<?xml version="1.0" encoding="UTF-8" standalone="no"?>
<!-- Created with Inkscape (http://www.inkscape.org/) -->

<svg
   xmlns:dc="http://purl.org/dc/elements/1.1/"
   xmlns:cc="http://creativecommons.org/ns#"
   xmlns:rdf="http://www.w3.org/1999/02/22-rdf-syntax-ns#"
   xmlns:svg="http://www.w3.org/2000/svg"
   xmlns="http://www.w3.org/2000/svg"
   xmlns:sodipodi="http://sodipodi.sourceforge.net/DTD/sodipodi-0.dtd"
   xmlns:inkscape="http://www.inkscape.org/namespaces/inkscape"
   width="13.229167mm"
   height="6.2585921mm"
   viewBox="0 0 46.875004 22.176114"
   id="svg2"
   version="1.1"
   inkscape:version="0.92.3 (d244b95, 2018-08-02)"
   sodipodi:docname="fwhaus_icon.svg">
  <defs
     id="defs4">
    <inkscape:path-effect
       effect="envelope"
       id="path-effect4307"
       is_visible="true"
       yy="true"
       xx="true"
       bendpath1="M 353.30731,482.16376 H 984.59637"
       bendpath2="m 985.36074,496.28674 -0.76437,31.0235"
       bendpath3="M 353.30731,527.31024 H 984.59637"
       bendpath4="m 353.30731,482.16376 v 45.14648"
       bendpath2-nodetypes="cc" />
  </defs>
  <sodipodi:namedview
     id="base"
     pagecolor="#ffffff"
     bordercolor="#666666"
     borderopacity="1.0"
     inkscape:pageopacity="0.0"
     inkscape:pageshadow="2"
     inkscape:zoom="7.9195959"
     inkscape:cx="78.708787"
     inkscape:cy="6.6523118"
     inkscape:document-units="px"
     inkscape:current-layer="layer1"
     showgrid="false"
     showguides="false"
     fit-margin-top="0"
     fit-margin-left="0"
     fit-margin-right="0"
     fit-margin-bottom="0"
     inkscape:window-width="1853"
     inkscape:window-height="1025"
     inkscape:window-x="1347"
     inkscape:window-y="27"
     inkscape:window-maximized="1" />
  <metadata
     id="metadata7">
    <rdf:RDF>
      <cc:Work
         rdf:about="">
        <dc:format>image/svg+xml</dc:format>
        <dc:type
           rdf:resource="http://purl.org/dc/dcmitype/StillImage" />
        <dc:title></dc:title>
      </cc:Work>
    </rdf:RDF>
  </metadata>
  <g
     inkscape:label="Ebene 1"
     inkscape:groupmode="layer"
     id="layer1"
     transform="translate(507.20195,-1001.7599)">
    <path
       style="fill:#a81c1c;fill-opacity:1;fill-rule:evenodd;stroke:#000000;stroke-width:0.02395829px;stroke-linecap:butt;stroke-linejoin:miter;stroke-opacity:1"
       d="m -490.8189,1023.4446 10.29539,-0.2677 0.0848,-10.3848 -10.23486,-0.5203 z"
       id="path4313"
       inkscape:connector-curvature="0" />
    <path
       style="fill:#a81c1c;fill-opacity:1;fill-rule:evenodd;stroke:#000000;stroke-width:0.02066152px;stroke-linecap:butt;stroke-linejoin:miter;stroke-opacity:1"
       d="m -478.12967,1023.1255 8.39073,-0.2435 0.0689,-9.4763 -8.34144,-0.4756 z"
       id="path4313-6"
       inkscape:connector-curvature="0" />
    <path
       style="fill:#ffffff;fill-opacity:1;fill-rule:evenodd;stroke:#000000;stroke-width:0.28567931;stroke-linecap:butt;stroke-linejoin:miter;stroke-miterlimit:4;stroke-dasharray:none;stroke-opacity:1"
       d="m -494.908,1023.7832 4.06491,-0.2671 0.12096,-11.3527 10.40421,0.5562 -0.16922,10.4341 2.32282,0.043 0.12096,-10.2641 8.39595,0.4837 -0.0475,9.4648 6.33935,-0.098 -0.16921,-10.6999 -31.0192,-1.9845 z"
       id="path4147"
       inkscape:connector-curvature="0" />
    <path
       style="fill:#ffffff;fill-opacity:1;fill-rule:evenodd;stroke:#000000;stroke-width:0.28567931;stroke-linecap:butt;stroke-linejoin:miter;stroke-miterlimit:4;stroke-dasharray:none;stroke-opacity:1"
       d="m -494.908,1023.8077 -2.15343,-2.3477 -7.08938,-0.1694 0.21794,-6.7294 7.18623,-2.6392 -0.2663,9.562"
       id="path4149"
       inkscape:connector-curvature="0" />
    <path
       style="fill:none;fill-rule:evenodd;stroke:#000000;stroke-width:0.02395829px;stroke-linecap:butt;stroke-linejoin:miter;stroke-opacity:1"
       d="m -496.74686,1011.9943 2.25026,-1.8393"
       id="path4151"
       inkscape:connector-curvature="0" />
    <path
       style="fill:none;fill-rule:evenodd;stroke:#000000;stroke-width:0.02395829px;stroke-linecap:butt;stroke-linejoin:miter;stroke-opacity:1"
       d="m -494.54504,1010.3724 v -1.1375 l 18.00177,-6.1244 15.12242,8.7873 -2.25018,0.2436"
       id="path4153"
       inkscape:connector-curvature="0"
       sodipodi:nodetypes="ccccc" />
    <path
       style="fill:none;fill-rule:evenodd;stroke:#000000;stroke-width:0.02395829px;stroke-linecap:butt;stroke-linejoin:miter;stroke-opacity:1"
       d="m -494.52079,1009.332 -2.05672,0.605 -1.42749,1.912 -0.2419,0.042 -8.44441,3.1709 -0.48385,-0.313 8.44433,-3.0507 1.42753,-2.4936 21.19564,-7.4315 15.75151,9.852 -1.18556,0.3376"
       id="path4155"
       inkscape:connector-curvature="0" />
    <path
       style="fill:#171c4a;fill-opacity:0.82999998;fill-rule:evenodd;stroke:#000000;stroke-width:0.02395829px;stroke-linecap:butt;stroke-linejoin:miter;stroke-opacity:1"
       d="m -490.21395,1012.7577 1.30652,0.046 -0.0244,1.5122 -1.33081,-0.045 z"
       id="path4157"
       inkscape:connector-curvature="0" />
    <path
       style="fill:#171c4a;fill-opacity:0.82999998;fill-rule:evenodd;stroke:#000000;stroke-width:0.02395829px;stroke-linecap:butt;stroke-linejoin:miter;stroke-opacity:1"
       d="m -488.6654,1012.7931 1.27026,0.073 -0.0143,1.5253 -1.31861,-0.046 z"
       id="path4159"
       inkscape:connector-curvature="0" />
    <path
       style="fill:#171c4a;fill-opacity:0.82999998;fill-rule:evenodd;stroke:#000000;stroke-width:0.02395829px;stroke-linecap:butt;stroke-linejoin:miter;stroke-opacity:1"
       d="m -486.82651,1012.8903 1.2944,0.084 -0.0142,1.4523 h -1.28239 z"
       id="path4161"
       inkscape:connector-curvature="0" />
    <path
       style="fill:#171c4a;fill-opacity:0.82999998;fill-rule:evenodd;stroke:#000000;stroke-width:0.02395829px;stroke-linecap:butt;stroke-linejoin:miter;stroke-opacity:1"
       d="m -485.30221,1013.0111 1.22197,0.046 -0.0245,1.4522 -1.23403,-0.045 z"
       id="path4163"
       inkscape:connector-curvature="0"
       sodipodi:nodetypes="ccccc" />
    <path
       style="fill:#171c4a;fill-opacity:0.82999998;fill-rule:evenodd;stroke:#000000;stroke-width:0.02395829px;stroke-linecap:butt;stroke-linejoin:miter;stroke-opacity:1"
       d="m -483.43907,1013.0606 1.20974,0.046 -0.0241,1.4884 -1.23403,-0.073 z"
       id="path4165"
       inkscape:connector-curvature="0" />
    <path
       style="fill:#171c4a;fill-opacity:0.82999998;fill-rule:evenodd;stroke:#000000;stroke-width:0.02395829px;stroke-linecap:butt;stroke-linejoin:miter;stroke-opacity:1"
       d="m -482.03573,1013.1443 1.12512,0.043 0.0142,1.4168 -1.13723,-0.045 z"
       id="path4167"
       inkscape:connector-curvature="0" />
    <path
       style="fill:#171c4a;fill-opacity:0.82999998;fill-rule:evenodd;stroke:#000000;stroke-width:0.02395829px;stroke-linecap:butt;stroke-linejoin:miter;stroke-opacity:1"
       d="m -482.04787,1014.8263 h 1.1493 l -0.0242,1.429 H -482.06 Z"
       id="path4169"
       inkscape:connector-curvature="0" />
    <path
       style="fill:#171c4a;fill-opacity:0.82999998;fill-rule:evenodd;stroke:#000000;stroke-width:0.02395829px;stroke-linecap:butt;stroke-linejoin:miter;stroke-opacity:1"
       d="m -482.30192,1014.8033 v 1.452 h -1.23397 l 0.0473,-1.4776 z"
       id="path4171"
       inkscape:connector-curvature="0" />
    <path
       style="fill:#171c4a;fill-opacity:0.82999998;fill-rule:evenodd;stroke:#000000;stroke-width:0.02395829px;stroke-linecap:butt;stroke-linejoin:miter;stroke-opacity:1"
       d="m -484.11654,1014.7777 v 1.4528 l -1.25827,-0.044 0.0474,-1.4646 z"
       id="path4173"
       inkscape:connector-curvature="0" />
    <path
       style="fill:#171c4a;fill-opacity:0.82999998;fill-rule:evenodd;stroke:#000000;stroke-width:0.02395829px;stroke-linecap:butt;stroke-linejoin:miter;stroke-opacity:1"
       d="m -486.82651,1014.6817 h 1.25816 l -0.0242,1.4882 -1.25814,-0.045 z"
       id="path4175"
       inkscape:connector-curvature="0" />
    <path
       style="fill:#171c4a;fill-opacity:0.82999998;fill-rule:evenodd;stroke:#000000;stroke-width:0.02395829px;stroke-linecap:butt;stroke-linejoin:miter;stroke-opacity:1"
       d="m -488.72588,1014.597 1.29439,0.046 -0.0142,1.4762 -1.34293,-0.046 z"
       id="path4177"
       inkscape:connector-curvature="0" />
    <path
       style="fill:#171c4a;fill-opacity:0.82999998;fill-rule:evenodd;stroke:#000000;stroke-width:0.02395829px;stroke-linecap:butt;stroke-linejoin:miter;stroke-opacity:1"
       d="m -490.31074,1014.5118 1.31865,0.05 -0.0373,1.5368 -1.28226,-0.049 z"
       id="path4179"
       inkscape:connector-curvature="0" />
    <path
       style="fill:#171c4a;fill-opacity:0.82999998;fill-rule:evenodd;stroke:#000000;stroke-width:0.02395829px;stroke-linecap:butt;stroke-linejoin:miter;stroke-opacity:1"
       d="m -490.29868,1016.3043 1.29453,0.047 0.0142,1.5364 -1.33075,-0.046 z"
       id="path4181"
       inkscape:connector-curvature="0" />
    <path
       style="fill:#171c4a;fill-opacity:0.82999998;fill-rule:evenodd;stroke:#000000;stroke-width:0.02395829px;stroke-linecap:butt;stroke-linejoin:miter;stroke-opacity:1"
       d="m -488.77435,1016.3396 1.34286,0.047 -0.0473,1.488 -1.28242,-0.045 z"
       id="path4183"
       inkscape:connector-curvature="0" />
    <path
       style="fill:#171c4a;fill-opacity:0.82999998;fill-rule:evenodd;stroke:#000000;stroke-width:0.02395829px;stroke-linecap:butt;stroke-linejoin:miter;stroke-opacity:1"
       d="m -486.8507,1016.3754 1.28235,0.049 v 1.5008 l -1.30658,-0.045 z"
       id="path4185"
       inkscape:connector-curvature="0" />
    <path
       style="fill:#171c4a;fill-opacity:0.82999998;fill-rule:evenodd;stroke:#000000;stroke-width:0.02395829px;stroke-linecap:butt;stroke-linejoin:miter;stroke-opacity:1"
       d="m -485.36267,1016.4241 1.28243,0.046 -0.0603,1.4409 h -1.2461 z"
       id="path4187"
       inkscape:connector-curvature="0" />
    <path
       style="fill:#171c4a;fill-opacity:0.82999998;fill-rule:evenodd;stroke:#000000;stroke-width:0.02395829px;stroke-linecap:butt;stroke-linejoin:miter;stroke-opacity:1"
       d="m -483.4875,1016.4723 h 1.18558 l -0.0473,1.4524 h -1.14936 z"
       id="path4189"
       inkscape:connector-curvature="0" />
    <path
       style="fill:#171c4a;fill-opacity:0.82999998;fill-rule:evenodd;stroke:#000000;stroke-width:0.02395829px;stroke-linecap:butt;stroke-linejoin:miter;stroke-opacity:1"
       d="m -482.05993,1016.5096 h 1.16136 l -0.0473,1.4151 h -1.13724 z"
       id="path4191"
       inkscape:connector-curvature="0" />
    <g
       style="font-style:normal;font-weight:normal;font-size:13.75px;line-height:125%;font-family:sans-serif;letter-spacing:0px;word-spacing:0px;fill:#a81c1c;fill-opacity:1;stroke:none;stroke-width:1px;stroke-linecap:butt;stroke-linejoin:miter;stroke-opacity:1"
       id="text4262"
       inkscape:path-effect="#path-effect4307"
       transform="matrix(0.02772568,0.00150323,-0.00129626,0.02392861,-495.68191,998.74885)"
       inkscape:transform-center-x="-8.6245145"
       inkscape:transform-center-y="0.38892526">
      <path
         d="m 377.26383,491.67778 c 0.17558,-6.2e-4 -15.01332,0.0628 -14.83774,0.0622 3.2e-4,3.41967 2e-5,6.83739 -6.3e-4,10.25801 0.1134,-0.001 13.52142,-0.13152 13.63482,-0.13273 -0.001,2.52858 -0.003,5.06095 -0.005,7.6021 -4.54335,0.0537 -9.08843,0.11207 -13.63211,0.17555 -0.003,11.05727 -0.002,5.28252 -0.005,16.33979 0.0581,-6.7e-4 -9.52264,0.11836 -9.46454,0.11769 0,0.003 -2.4e-4,-42.01291 -2.4e-4,-42.01576 0.63122,-0.001 23.67386,-0.0272 24.30507,-0.0284 1.8e-4,0.16292 0.005,7.45865 0.005,7.62156 z"
         style="font-style:normal;font-variant:normal;font-weight:bold;font-stretch:normal;font-size:60px;font-family:'Segoe WP';-inkscape-font-specification:'Segoe WP Bold';fill:#a81c1c;fill-opacity:1"
         id="path4267"
         inkscape:original-d="M 377.59442,492.27118 H 362.7702 v 10.3125 h 13.62305 v 7.67578 H 362.7702 v 16.31836 h -9.46289 V 484.5661 h 24.28711 z"
         inkscape:connector-curvature="0" />
      <path
         d="m 410.31558,513.05661 c -6.52396,0.0512 -13.0538,0.1102 -19.57825,0.17806 0.30752,4.33819 3.04917,6.51976 8.22628,6.47491 3.30454,-0.0286 6.20061,-0.84453 8.70699,-2.43999 0.001,-0.84862 -0.0121,7.65661 -0.0107,6.80799 -2.78113,1.55141 -6.37488,2.33789 -10.81416,2.36252 -4.84433,0.0269 -8.60269,-1.33276 -11.27667,-4.02287 -2.67374,-2.7097 -4.00833,-6.46365 -4.00388,-11.23867 0.005,-4.94649 1.45365,-8.84848 4.34784,-11.72715 2.89397,-2.87844 6.45171,-4.31553 10.67343,-4.32998 4.37652,-0.015 7.76145,1.24449 10.14283,3.76172 2.40271,2.51902 3.60045,5.93722 3.59305,10.31797 -4.9e-4,0.29004 -0.006,3.56546 -0.007,3.85549 z m -8.57889,-5.54927 c 0.006,-4.21814 -1.73234,-6.30561 -5.21131,-6.28423 -1.4853,0.009 -2.77596,0.6195 -3.87137,1.83536 -1.07597,1.21582 -1.73217,2.72928 -1.96863,4.5434 0.0787,-7.3e-4 10.97264,-0.0938 11.05131,-0.0945 z"
         style="font-style:normal;font-variant:normal;font-weight:bold;font-stretch:normal;font-size:60px;font-family:'Segoe WP';-inkscape-font-specification:'Segoe WP Bold';fill:#a81c1c;fill-opacity:1"
         id="path4269"
         inkscape:original-d="m 410.6413,514.21454 h -19.57032 q 0.46875,6.5332 8.23243,6.5332 4.95117,0 8.70117,-2.34375 v 6.67969 q -4.16016,2.22656 -10.81055,2.22656 -7.26562,0 -11.2793,-4.01367 -4.01367,-4.04297 -4.01367,-11.25 0,-7.4707 4.33594,-11.83594 4.33594,-4.36523 10.66406,-4.36523 6.5625,0 10.13672,3.89648 3.60352,3.89649 3.60352,10.57617 z m -8.58399,-5.6836 q 0,-6.44531 -5.21484,-6.44531 -2.22656,0 -3.86719,1.84571 -1.61133,1.8457 -1.96289,4.5996 z"
         inkscape:connector-curvature="0" />
      <path
         d="m 444.30979,525.52613 c 0.0896,-9e-5 -9.31833,0.0127 -9.22872,0.0126 3e-4,-0.18386 0.009,-4.58574 0.009,-4.7696 2e-5,0 -0.14651,6e-4 -0.14649,6e-4 -2.30282,3.66515 -5.34258,5.55338 -9.18049,5.56161 -6.95378,0.0149 -10.42406,-4.45131 -10.40768,-12.84649 -0.01,4.93631 0.0328,-22.63895 0.0231,-17.70264 0.067,-1.5e-4 9.16711,-0.0168 9.23414,-0.0169 -3e-4,5.5695 -0.0115,11.12381 -0.024,16.84186 -0.009,4.21449 1.66616,6.37456 5.02611,6.35717 1.66151,-0.009 2.98893,-0.60337 3.98904,-1.77506 0.99904,-1.19011 1.50119,-2.78334 1.50601,-4.75814 0.0138,-5.67299 0.0262,-11.16523 0.0263,-16.6779 0.0707,-5e-5 9.16255,-0.005 9.23324,-0.005 -2e-5,-0.51825 -0.0598,29.25951 -0.0597,29.77777 z"
         style="font-style:normal;font-variant:normal;font-weight:bold;font-stretch:normal;font-size:60px;font-family:'Segoe WP';-inkscape-font-specification:'Segoe WP Bold';fill:#a81c1c;fill-opacity:1"
         id="path4271"
         inkscape:original-d="m 444.65497,526.57782 h -9.22852 v -4.57031 h -0.14648 q -3.42774,5.30273 -9.16992,5.30273 -10.42969,0 -10.42969,-12.62695 v -18.10547 h 9.22851 v 17.28516 q 0,6.35742 5.03907,6.35742 2.49023,0 3.98437,-1.72852 1.49414,-1.75781 1.49414,-4.74609 v -17.16797 h 9.22852 z"
         inkscape:connector-curvature="0" />
      <path
         d="m 479.00577,512.74942 c 0.36215,-6.4e-4 -19.93644,0.0477 -19.57429,0.0471 0.30044,4.3321 3.0367,6.5886 8.21383,6.57902 3.30634,-0.006 6.19861,-0.81989 8.7093,-2.41649 0.002,-0.73816 -0.0222,7.70057 -0.0198,6.96242 -2.78536,1.59278 -6.37365,2.39723 -10.81546,2.39275 -4.84981,-0.005 -8.5949,-1.46615 -11.27047,-4.26518 -2.66973,-2.81338 -3.99644,-6.6401 -3.98354,-11.36257 0.0134,-4.88705 1.46707,-8.67105 4.36132,-11.45929 2.89308,-2.7871 6.45083,-4.17667 10.67001,-4.17257 4.37525,0.004 7.75942,1.25115 10.13984,3.72532 2.40152,2.4758 3.59578,5.82157 3.58199,10.14408 -0.001,0.34927 -0.0116,3.47618 -0.0127,3.82545 z m -8.56845,-5.54677 c 0.0117,-4.14433 -1.72513,-6.1893 -5.20289,-6.1876 -1.48459,7.3e-4 -2.77577,0.58944 -3.87177,1.77081 -1.07679,1.18169 -1.7348,2.6578 -1.97383,4.43896 0.0969,-2.3e-4 10.95159,-0.0219 11.04849,-0.0222 z"
         style="font-style:normal;font-variant:normal;font-weight:bold;font-stretch:normal;font-size:60px;font-family:'Segoe WP';-inkscape-font-specification:'Segoe WP Bold';fill:#a81c1c;fill-opacity:1"
         id="path4273"
         inkscape:original-d="m 479.31317,514.21454 h -19.57031 q 0.46875,6.5332 8.23242,6.5332 4.95117,0 8.70117,-2.34375 v 6.67969 q -4.16015,2.22656 -10.81054,2.22656 -7.26563,0 -11.2793,-4.01367 -4.01367,-4.04297 -4.01367,-11.25 0,-7.4707 4.33593,-11.83594 4.33594,-4.36523 10.66407,-4.36523 6.5625,0 10.13672,3.89648 3.60351,3.89649 3.60351,10.57617 z m -8.58398,-5.6836 q 0,-6.44531 -5.21485,-6.44531 -2.22656,0 -3.86718,1.84571 -1.61133,1.8457 -1.96289,4.5996 z"
         inkscape:connector-curvature="0" />
      <path
         d="m 504.11897,503.73355 c -1.11175,-0.5771 -2.41101,-0.86609 -3.89547,-0.86739 -2.01148,-0.002 -3.58745,0.70199 -4.72368,2.12059 -1.13703,1.40096 -1.70984,3.32345 -1.71883,5.80901 0.0552,-15.2429 -0.10286,30.00504 -0.0477,14.76214 0.15616,2.9e-4 -9.41378,-0.0161 -9.25762,-0.0158 0.0229,-10.89468 0.0794,-20.24187 0.0765,-29.76352 0.0744,1.2e-4 9.18645,0.0165 9.26089,0.0166 6.8e-4,1.7642 -8.2e-4,3.52146 -0.004,5.28355 2e-5,0 0.11721,1.2e-4 0.11722,1.2e-4 1.46973,-3.85055 4.10808,-5.77667 7.91619,-5.76803 0.97687,0.002 1.73885,0.11541 2.28604,0.33929 0.002,2.69921 -0.003,5.37855 -0.01,8.08345 z"
         style="font-style:normal;font-variant:normal;font-weight:bold;font-stretch:normal;font-size:60px;font-family:'Segoe WP';-inkscape-font-specification:'Segoe WP Bold';fill:#a81c1c;fill-opacity:1"
         id="path4275"
         inkscape:original-d="m 504.3913,504.92743 q -1.66993,-0.9082 -3.89649,-0.9082 -3.01758,0 -4.71679,2.22656 -1.69922,2.19726 -1.69922,6.00586 v 14.32617 h -9.25782 v -30 h 9.25782 v 5.56641 h 0.11718 q 2.19727,-6.09375 7.91016,-6.09375 1.46484,0 2.28516,0.35156 z"
         inkscape:connector-curvature="0" />
      <path
         d="m 554.03386,495.96355 c -2.91392,9.59051 -5.79243,18.36648 -8.73983,29.72219 2.24745,0.006 -11.97364,-0.0331 -9.7262,-0.0268 -1.45693,-6.53481 -2.90487,-12.39084 -4.3556,-18.00763 -0.28867,-1.12519 -0.45031,-2.34452 -0.48547,-3.65837 2e-5,0 -0.17585,-3.3e-4 -0.17582,-3.3e-4 -0.14098,1.44254 -0.34092,2.62712 -0.59829,3.54472 -1.60868,5.6741 -3.21264,11.52327 -4.81411,18.0935 0.35933,9.5e-4 -9.96837,-0.0256 -9.60904,-0.0246 -2.77266,-10.97628 -5.57806,-20.36228 -8.38238,-29.78207 0.0703,1.7e-4 9.3659,0.0235 9.43622,0.0237 1.37605,6.16784 2.73582,12.27944 4.08085,18.80053 0.19151,0.92097 0.33346,2.04745 0.42592,3.39673 5e-5,0 0.17574,8e-5 0.17579,8e-5 0.10298,-1.4094 0.28373,-2.57463 0.54146,-3.51408 1.7719,-6.59699 3.46723,-12.42124 5.20839,-18.65432 0.0487,1.4e-4 8.77185,0.0264 8.82053,0.0266 1.54176,6.15736 3.06808,12.2379 4.57564,18.75535 0.11467,0.48841 0.24704,1.62765 0.39538,3.46079 9e-5,0 0.20501,2e-4 0.20509,2e-4 0.10242,-1.17165 0.26369,-2.32385 0.4836,-3.4601 1.32804,-6.54318 2.65816,-12.55415 3.95193,-18.72527 0.0273,9e-5 8.55864,0.0293 8.58594,0.0294 z"
         style="font-style:normal;font-variant:normal;font-weight:bold;font-stretch:normal;font-size:60px;font-family:'Segoe WP';-inkscape-font-specification:'Segoe WP Bold';fill:#a81c1c;fill-opacity:1"
         id="path4277"
         inkscape:original-d="m 554.28387,496.57782 -8.64257,30 h -9.72657 l -4.42382,-17.57813 q -0.43946,-1.75781 -0.49805,-3.83789 h -0.17578 q -0.20508,2.28516 -0.58594,3.72071 l -4.74609,17.69531 h -9.60938 l -8.4668,-30 h 9.4336 l 4.13086,19.57031 q 0.29297,1.37696 0.43945,3.33985 h 0.17578 q 0.14649,-2.05079 0.52735,-3.45704 l 5.15625,-19.45312 h 8.81836 l 4.6289,19.57031 q 0.17578,0.73242 0.41016,3.39844 h 0.20508 q 0.14648,-1.69922 0.46875,-3.39844 l 3.89648,-19.57031 z"
         inkscape:connector-curvature="0" />
      <path
         d="m 585.07331,512.7961 c 0.48413,8.8e-4 -20.05628,-0.0332 -19.57215,-0.0324 0.29296,4.31661 3.02423,6.64061 8.20181,6.64799 3.3085,0.005 6.19689,-0.81721 8.71228,-2.41818 0.003,-0.65315 -0.0314,7.76666 -0.0283,7.11351 -2.78955,1.65028 -6.37168,2.49569 -10.81655,2.48288 -4.85674,-0.014 -8.58719,-1.57199 -11.26643,-4.48306 -2.66673,-2.91867 -3.98538,-6.81804 -3.96367,-11.47911 0.0224,-4.81799 1.48099,-8.49516 4.3744,-11.21772 2.8933,-2.72244 6.44657,-4.09281 10.66577,-4.07656 4.37632,0.0169 7.75798,1.26656 10.14036,3.71364 2.4017,2.44692 3.59256,5.72439 3.57172,9.96994 -0.002,0.44484 -0.0171,3.3342 -0.0193,3.77904 z m -8.55811,-5.505 c 0.018,-4.06225 -1.71829,-6.07323 -5.1953,-6.08531 -1.48433,-0.005 -2.77556,0.56689 -3.87239,1.71867 -1.07756,1.15212 -1.73745,2.59333 -1.97917,4.33981 0.0725,1.7e-4 10.97434,0.0267 11.04686,0.0268 z"
         style="font-style:normal;font-variant:normal;font-weight:bold;font-stretch:normal;font-size:60px;font-family:'Segoe WP';-inkscape-font-specification:'Segoe WP Bold';fill:#a81c1c;fill-opacity:1"
         id="path4279"
         inkscape:original-d="m 585.36786,514.21454 h -19.57031 q 0.46875,6.5332 8.23242,6.5332 4.95117,0 8.70117,-2.34375 v 6.67969 q -4.16016,2.22656 -10.81055,2.22656 -7.26562,0 -11.27929,-4.01367 -4.01368,-4.04297 -4.01368,-11.25 0,-7.4707 4.33594,-11.83594 4.33594,-4.36523 10.66406,-4.36523 6.5625,0 10.13672,3.89648 3.60352,3.89649 3.60352,10.57617 z m -8.58399,-5.6836 q 0,-6.44531 -5.21484,-6.44531 -2.22656,0 -3.86719,1.84571 -1.61132,1.8457 -1.96289,4.5996 z"
         inkscape:connector-curvature="0" />
      <path
         d="m 619.32478,525.86065 c -0.0608,-10e-5 -9.16746,-0.0158 -9.2283,-0.0159 0.0157,-6.49023 0.0542,-12.12146 0.082,-17.51266 0.0214,-4.14218 -1.57666,-6.1878 -4.78032,-6.20121 -1.64062,-0.007 -2.97129,0.56135 -3.9907,1.70741 -1.01988,1.14658 -1.53397,2.60857 -1.54293,4.40748 -0.027,5.42003 -0.0646,11.07948 -0.0803,17.57861 -0.10523,-2.3e-4 -9.15229,-0.0202 -9.25753,-0.0204 0.0405,-16.83463 0.22241,-28.16827 -0.001,-44.10645 0.32808,-4e-4 8.92747,-0.011 9.25554,-0.0114 0.0987,6.81997 0.12149,12.76622 0.11192,18.64366 -10e-6,0 0.11722,5e-4 0.11722,5e-4 2.27021,-3.21927 5.34292,-4.85462 9.23029,-4.8366 6.798,0.0315 10.21272,3.95259 10.1749,11.56852 -0.0287,5.77701 -0.0735,11.77335 -0.0906,18.79844 z"
         style="font-style:normal;font-variant:normal;font-weight:bold;font-stretch:normal;font-size:60px;font-family:'Segoe WP';-inkscape-font-specification:'Segoe WP Bold';fill:#a81c1c;fill-opacity:1"
         id="path4281"
         inkscape:original-d="m 619.6745,526.57782 h -9.22852 v -17.05078 q 0,-6.5918 -4.80468,-6.5918 -2.46094,0 -3.98438,1.8457 -1.52344,1.84571 -1.52344,4.6875 v 17.10938 h -9.25781 v -44.41406 h 9.25781 v 18.86718 h 0.11719 q 3.39844,-5.18554 9.22852,-5.18554 10.19531,0 10.19531,12.30469 z"
         inkscape:connector-curvature="0" />
      <path
         d="m 646.30061,504.16956 c -1.11108,-0.56651 -2.40971,-0.85368 -3.89427,-0.86109 -2.01146,-0.01 -3.58807,0.6698 -4.72653,2.0451 -1.13916,1.35806 -1.71588,3.22342 -1.73043,5.65344 -0.0274,4.57981 -0.0588,9.40384 -0.0722,14.87607 -0.037,-4e-5 -9.22066,-0.0115 -9.25765,-0.0115 0.0279,-11.44807 0.13159,-20.11774 0.11675,-29.59718 -0.0725,-3.7e-4 9.33288,0.0491 9.26034,0.0487 0.003,1.75974 0.002,3.48961 -0.003,5.21332 -10e-6,0 0.11723,6e-4 0.11722,6e-4 1.47316,-3.76276 4.10467,-5.69221 7.91426,-5.67082 0.97701,0.005 1.73888,0.12146 2.28649,0.34732 0.005,2.69983 -3.8e-4,5.32245 -0.0112,7.9561 z"
         style="font-style:normal;font-variant:normal;font-weight:bold;font-stretch:normal;font-size:60px;font-family:'Segoe WP';-inkscape-font-specification:'Segoe WP Bold';fill:#a81c1c;fill-opacity:1"
         id="path4283"
         inkscape:original-d="m 646.53973,504.92743 q -1.66992,-0.9082 -3.89648,-0.9082 -3.01758,0 -4.7168,2.22656 -1.69922,2.19726 -1.69922,6.00586 v 14.32617 h -9.25781 v -30 h 9.25781 v 5.56641 h 0.11719 q 2.19727,-6.09375 7.91016,-6.09375 1.46484,0 2.28515,0.35156 z"
         inkscape:connector-curvature="0" />
      <path
         d="m 663.98136,512.58068 c -0.21557,-6.2e-4 -15.81215,-0.0438 -16.02772,-0.0444 -0.0142,2.27632 0.0505,-8.40463 0.0362,-6.1283 -0.19149,-8.5e-4 16.2209,0.0752 16.02941,0.0743 -0.004,0.69915 -0.0341,5.3992 -0.0379,6.09835 z"
         style="font-style:normal;font-variant:normal;font-weight:bold;font-stretch:normal;font-size:60px;font-family:'Segoe WP';-inkscape-font-specification:'Segoe WP Bold';fill:#a81c1c;fill-opacity:1"
         id="path4285"
         inkscape:original-d="m 664.26434,513.80438 h -16.02539 v -6.47461 h 16.02539 z"
         inkscape:connector-curvature="0" />
      <path
         d="m 707.37281,522.75255 c -4.14291,2.58165 -9.18191,3.9803 -15.30624,3.98538 -6.79213,0.006 -12.05234,-2.20421 -15.97389,-6.18509 -3.87151,-3.97068 -5.76884,-9.04291 -5.73824,-15.04036 0.0307,-6.02585 2.15518,-11.08152 6.37488,-15.29691 4.2506,-4.24626 9.81116,-6.65355 16.91364,-6.63798 4.46917,0.01 8.37702,0.72729 11.81165,2.11584 0.0467,3.28758 0.0724,6.3093 0.0836,9.1849 -3.26406,-1.85678 -7.21292,-2.83551 -11.9148,-2.86832 -3.93627,-0.0275 -7.11257,1.24727 -9.59514,3.69081 -2.45441,2.41642 -3.68803,5.56736 -3.70779,9.4628 -0.02,3.95125 1.0572,7.1159 3.25025,9.42961 2.2207,2.32223 5.19269,3.54023 8.97212,3.545 2.26776,0.003 4.06295,-0.32346 5.39737,-0.96756 0.0123,-1.87423 0.0437,-5.98598 0.056,-7.86021 -0.0648,-3.3e-4 -8.34566,-0.0407 -8.41044,-0.041 0.0159,-2.34216 0.0297,-4.63574 0.0374,-6.95132 -0.27447,-0.002 18.1528,0.13576 17.87833,0.13383 -0.0229,6.32426 -0.10586,13.97633 -0.12874,20.30058 z"
         style="font-style:normal;font-variant:normal;font-weight:bold;font-stretch:normal;font-size:60px;font-family:'Segoe WP';-inkscape-font-specification:'Segoe WP Bold';fill:#a81c1c;fill-opacity:1"
         id="path4287"
         inkscape:original-d="m 707.71161,523.76532 q -6.15234,3.54492 -15.29297,3.54492 -10.13672,0 -15.99609,-5.5957 -5.83008,-5.625 -5.83008,-15.46875 0,-9.90235 6.38672,-16.14258 6.38672,-6.24023 16.99218,-6.24023 6.67969,0 11.77735,1.8457 v 8.87695 q -4.86328,-2.8125 -11.89453,-2.8125 -5.88867,0 -9.60938,3.83789 -3.6914,3.8086 -3.6914,10.19532 0,6.4746 3.31054,10.01953 3.33985,3.54492 8.99414,3.54492 3.39844,0 5.39063,-0.9668 v -8.20312 h -8.4082 v -7.5586 h 17.87109 z"
         inkscape:connector-curvature="0" />
      <path
         d="m 741.54332,513.25385 c -0.40122,-0.002 -19.17398,-0.0838 -19.5752,-0.0857 0.28169,4.13619 3.00843,6.40855 8.18694,6.41291 3.3104,0.003 6.19749,-0.79909 8.71855,-2.33287 -0.0164,2.18568 -0.0308,4.47265 -0.0404,6.91679 -2.79386,1.64119 -6.37077,2.51278 -10.81866,2.5216 -4.86463,0.01 -8.58036,-1.55273 -11.26399,-4.44239 -2.66407,-2.88965 -3.97288,-6.69578 -3.93877,-11.14749 0.0352,-4.59798 1.50262,-8.13583 4.39756,-10.79623 2.90232,-2.66718 6.44079,-4.04232 10.66848,-3.99971 4.38409,0.0442 7.75614,1.33929 10.14406,3.7713 2.40134,2.42598 3.58489,5.59278 3.55177,9.60297 -0.005,0.62481 -0.0252,2.95398 -0.0304,3.5788 z m -8.54408,-5.2586 c 0.0289,-3.86654 -1.70577,-5.8434 -5.18372,-5.87604 -1.48563,-0.014 -2.77609,0.5362 -3.87609,1.64352 -1.07975,1.10677 -1.74312,2.48809 -1.98924,4.15482 -0.1085,-7.4e-4 11.15755,0.0784 11.04905,0.0777 z"
         style="font-style:normal;font-variant:normal;font-weight:bold;font-stretch:normal;font-size:60px;font-family:'Segoe WP';-inkscape-font-specification:'Segoe WP Bold';fill:#a81c1c;fill-opacity:1"
         id="path4289"
         inkscape:original-d="m 741.81317,514.21454 h -19.57031 q 0.46875,6.5332 8.23242,6.5332 4.95117,0 8.70117,-2.34375 v 6.67969 q -4.16015,2.22656 -10.81054,2.22656 -7.26563,0 -11.2793,-4.01367 -4.01367,-4.04297 -4.01367,-11.25 0,-7.4707 4.33593,-11.83594 4.33594,-4.36523 10.66407,-4.36523 6.5625,0 10.13672,3.89648 3.60351,3.89649 3.60351,10.57617 z m -8.58398,-5.6836 q 0,-6.44531 -5.21485,-6.44531 -2.22656,0 -3.86718,1.84571 -1.61133,1.8457 -1.96289,4.5996 z"
         inkscape:connector-curvature="0" />
      <path
         d="m 766.7005,505.08407 c -1.1106,-0.55092 -2.40823,-0.83673 -3.89368,-0.85389 -2.01303,-0.0233 -3.58957,0.62273 -4.73241,1.93299 -1.14249,1.29261 -1.72421,3.06612 -1.74503,5.3677 -0.0393,4.34061 -0.0825,8.90244 -0.0987,14.26155 0.19996,-4.5e-4 -9.45819,0.0208 -9.25823,0.0203 0.033,-11.26885 0.1817,-19.07999 0.16647,-28.60165 -0.0637,-7.4e-4 9.32765,0.11383 9.26395,0.11308 0.003,1.76636 -3.9e-4,3.47097 -0.007,5.14763 -10e-6,0 0.11726,0.001 0.11725,0.001 1.48368,-3.66015 4.10645,-5.59914 7.92226,-5.54755 0.97757,0.0132 1.7395,0.13612 2.28745,0.36734 0.004,2.71062 -0.005,5.26616 -0.0219,7.79114 z"
         style="font-style:normal;font-variant:normal;font-weight:bold;font-stretch:normal;font-size:60px;font-family:'Segoe WP';-inkscape-font-specification:'Segoe WP Bold';fill:#a81c1c;fill-opacity:1"
         id="path4291"
         inkscape:original-d="m 766.8913,504.92743 q -1.66993,-0.9082 -3.89649,-0.9082 -3.01758,0 -4.71679,2.22656 -1.69922,2.19726 -1.69922,6.00586 v 14.32617 h -9.25782 v -30 h 9.25782 v 5.56641 h 0.11718 q 2.19727,-6.09375 7.91016,-6.09375 1.46484,0 2.28516,0.35156 z"
         inkscape:connector-curvature="0" />
      <path
         d="m 795.84213,525.69715 c -0.65772,0.002 -8.10254,0.0198 -8.76026,0.0213 0.005,-1.58322 0.0134,-3.09205 0.0232,-4.54333 -2e-5,0 -0.11718,-10e-5 -0.1172,-10e-5 -2.05448,3.42736 -4.99577,5.3729 -8.9617,5.38451 -2.92007,0.009 -5.19346,-0.92139 -6.87539,-2.69272 -1.65247,-1.78198 -2.4683,-4.0669 -2.44602,-6.70845 0.0463,-5.48894 3.53041,-8.37387 10.43146,-9.08812 2.71955,-0.28811 5.4378,-0.57307 8.15744,-0.85539 0.0249,-2.86211 -1.7487,-4.36206 -5.3054,-4.41275 -3.57738,-0.051 -6.98088,0.85827 -10.219,2.70474 0.0146,-2.05722 0.0245,-4.13241 0.0261,-6.2945 1.29031,-0.59943 3.04945,-1.12619 5.27702,-1.57559 2.24998,-0.44969 4.28653,-0.66289 6.12677,-0.6339 8.56357,0.13489 12.85979,4.39685 12.78791,11.69757 -0.0511,5.19274 -0.12182,10.44488 -0.14493,16.99669 z m -8.61234,-12.01387 c 0.003,-0.31439 0.0154,-1.49608 0.0186,-1.81047 -1.81939,0.1924 -3.63849,0.38664 -5.45779,0.58278 -3.01215,0.32702 -4.52953,1.53158 -4.5494,3.70599 -0.009,0.99134 0.34527,1.83008 1.06272,2.49841 0.73863,0.65067 1.72948,0.98212 2.98117,0.98445 1.74191,0.003 3.15583,-0.58682 4.26299,-1.72724 1.10393,-1.15562 1.66479,-2.57672 1.6817,-4.23392 z m 2.98805,-20.5571 c -1.30743,-0.0213 -2.38996,-0.42896 -3.23508,-1.24239 -0.8477,-0.81591 -1.27803,-1.84762 -1.29426,-3.13671 -0.0168,-1.33438 0.3861,-2.46296 1.21212,-3.34221 0.82853,-0.88189 1.8898,-1.33088 3.20218,-1.31593 1.31249,0.0149 2.3905,0.50088 3.2491,1.43138 0.87468,0.90391 1.32205,2.03905 1.33869,3.35789 0.0166,1.31721 -0.39359,2.34942 -1.22713,3.13966 -0.83132,0.76743 -1.91892,1.12988 -3.24562,1.10831 z m -13.42947,-0.20601 c -1.32698,-0.0192 -2.41899,-0.42385 -3.26411,-1.23222 -0.84777,-0.83121 -1.27809,-1.85768 -1.29384,-3.11587 -0.0163,-1.30289 0.39685,-2.40938 1.24263,-3.28059 0.84792,-0.89706 1.90893,-1.35502 3.20166,-1.34271 1.33174,0.0127 2.4098,0.49138 3.24837,1.41098 0.85482,0.89333 1.29212,2.01733 1.30857,3.32668 0.0167,1.32942 -0.3936,2.3559 -1.22724,3.1236 -0.8119,0.76591 -1.88927,1.12931 -3.21604,1.11013 z"
         style="font-style:normal;font-variant:normal;font-weight:bold;font-stretch:normal;font-size:60px;font-family:'Segoe WP';-inkscape-font-specification:'Segoe WP Bold';fill:#a81c1c;fill-opacity:1"
         id="path4293"
         inkscape:original-d="m 796.18817,526.57782 h -8.75976 v -4.30664 h -0.11719 q -3.01758,5.03906 -8.93555,5.03906 -4.36523,0 -6.88476,-2.46094 -2.49024,-2.49023 -2.49024,-6.62109 0,-8.73047 10.3418,-10.07812 l 8.14453,-1.08399 q 0,-4.92187 -5.33203,-4.92187 -5.36133,0 -10.19531,3.19336 v -6.97266 q 1.93359,-0.99609 5.27343,-1.75781 3.36914,-0.76172 6.12305,-0.76172 12.83203,0 12.83203,12.80273 z m -8.70117,-12.1875 v -2.02148 l -5.44922,0.70312 q -4.51172,0.58594 -4.51172,4.07227 0,1.58203 1.08399,2.60742 1.11328,0.99609 2.98828,0.99609 2.60742,0 4.24804,-1.78711 1.64063,-1.8164 1.64063,-4.57031 z m 2.90039,-22.55859 q -1.96289,0 -3.22266,-1.14258 -1.25976,-1.14258 -1.25976,-2.8711 0,-1.78711 1.25976,-2.90039 1.25977,-1.11328 3.22266,-1.11328 1.96289,0 3.22266,1.14258 1.28906,1.11328 1.28906,2.87109 0,1.75782 -1.25977,2.90039 -1.25976,1.11329 -3.25195,1.11329 z m -13.41797,0 q -1.99219,0 -3.25195,-1.14258 -1.25977,-1.17188 -1.25977,-2.8711 0,-1.75781 1.28907,-2.87109 1.28906,-1.14258 3.22265,-1.14258 1.99219,0 3.22266,1.14258 1.25976,1.11328 1.25976,2.87109 0,1.78711 -1.25976,2.90039 -1.23047,1.11329 -3.22266,1.11329 z"
         inkscape:connector-curvature="0" />
      <path
         d="m 821.24559,525.26383 c -1.37416,0.77426 -3.42872,1.17886 -6.18639,1.18664 -6.52328,0.0184 -9.77915,-3.85934 -9.7145,-10.14117 0.0432,-4.19801 0.0939,-8.01816 0.12117,-12.03054 -0.0151,-2.5e-4 -4.85191,-0.0787 -4.86697,-0.079 0.0132,-1.999 0.0207,-4.04364 0.0188,-6.20306 -0.0147,-2.7e-4 4.88255,0.09 4.86779,0.0897 -0.002,-2.04699 -0.0119,-4.19956 -0.034,-6.51734 3.06947,-0.88817 6.13946,-1.8052 9.20491,-2.75637 0.0456,3.48221 0.0647,6.57696 0.0665,9.45388 -0.0271,-5.5e-4 6.77222,0.1407 6.74509,0.14015 0.001,2.15305 -0.008,4.18016 -0.0225,6.15371 -0.0276,-5.1e-4 -6.71623,-0.12273 -6.74381,-0.12324 -0.0253,3.52194 -0.069,6.88305 -0.10962,10.48345 -0.0316,2.79888 1.19635,4.30938 3.67711,4.31958 0.97855,0.004 1.98355,-0.26102 3.02593,-0.78401 -0.0211,2.12804 -0.0389,4.37279 -0.0495,6.80756 z"
         style="font-style:normal;font-variant:normal;font-weight:bold;font-stretch:normal;font-size:60px;font-family:'Segoe WP';-inkscape-font-specification:'Segoe WP Bold';fill:#a81c1c;fill-opacity:1"
         id="path4295"
         inkscape:original-d="m 821.58856,526.22626 q -2.05078,1.08398 -6.18164,1.08398 -9.78515,0 -9.78515,-10.16601 v -13.74024 h -4.86329 v -6.82617 h 4.86329 v -6.47461 l 9.22851,-2.63672 v 9.11133 h 6.73828 v 6.82617 h -6.73828 v 12.12891 q 0,4.6875 3.7207,4.6875 1.46485,0 3.01758,-0.84961 z"
         inkscape:connector-curvature="0" />
      <path
         d="m 853.26575,514.20468 c -6.52472,-0.0909 -13.05533,-0.17354 -19.57976,-0.24891 0.26689,3.77394 2.98881,5.86253 8.16768,5.88974 3.31069,0.0174 6.20045,-0.69971 8.72697,-2.06629 -0.0238,1.97172 -0.0447,4.04245 -0.0588,6.28426 -2.79825,1.50044 -6.37358,2.31366 -10.82279,2.32363 -4.86947,0.0109 -8.57431,-1.44916 -11.25749,-4.13648 -2.65921,-2.68285 -3.95655,-6.18367 -3.90684,-10.26538 0.0514,-4.21601 1.53224,-7.54512 4.43431,-10.08002 2.91966,-2.55025 6.44244,-3.88169 10.68236,-3.77685 4.3941,0.10865 7.75182,1.45934 10.14187,3.84746 2.39657,2.37559 3.56759,5.36835 3.51772,8.99767 -0.0105,0.76353 -0.0347,2.46764 -0.0452,3.23117 z m -8.52547,-4.86491 c 0.0443,-3.55271 -1.68515,-5.47226 -5.16484,-5.55026 -1.48775,-0.0333 -2.77762,0.47471 -3.88316,1.50579 -1.08379,1.02943 -1.75244,2.31342 -2.00477,3.84913 -0.0772,-0.001 11.12995,0.19664 11.05277,0.19534 z"
         style="font-style:normal;font-variant:normal;font-weight:bold;font-stretch:normal;font-size:60px;font-family:'Segoe WP';-inkscape-font-specification:'Segoe WP Bold';fill:#a81c1c;fill-opacity:1"
         id="path4297"
         inkscape:original-d="m 853.49286,514.21454 h -19.57031 q 0.46875,6.5332 8.23242,6.5332 4.95117,0 8.70117,-2.34375 v 6.67969 q -4.16016,2.22656 -10.81055,2.22656 -7.26562,0 -11.27929,-4.01367 -4.01368,-4.04297 -4.01368,-11.25 0,-7.4707 4.33594,-11.83594 4.33594,-4.36523 10.66406,-4.36523 6.5625,0 10.13672,3.89648 3.60352,3.89649 3.60352,10.57617 z m -8.58399,-5.6836 q 0,-6.44531 -5.21484,-6.44531 -2.22656,0 -3.86719,1.84571 -1.61132,1.8457 -1.96289,4.5996 z"
         inkscape:connector-curvature="0" />
      <path
         d="m 887.45855,525.59843 c -0.09,-1.3e-4 -9.13895,-0.01 -9.22892,-0.01 0.0322,-5.72506 0.11749,-10.21639 0.18727,-14.73921 0.0537,-3.47944 -1.53315,-5.3808 -4.73999,-5.47191 -1.64456,-0.0467 -2.97466,0.43405 -4.00481,1.42282 -1.02809,0.98681 -1.55285,2.24567 -1.57507,3.77218 -0.067,4.60206 -0.14974,9.18854 -0.18041,15.01269 -0.10834,0 -9.14995,0.003 -9.2583,0.003 0.0759,-15.29339 0.49506,-22.27895 0.0922,-42.48455 3.09016,0.0709 6.18077,0.1453 9.27123,0.2234 0.17204,8.64934 0.1933,14.8477 0.15474,20.27558 -10e-6,0 0.11733,0.003 0.11732,0.003 2.30526,-2.93876 5.34773,-4.51915 9.25761,-4.39024 6.80841,0.22446 10.21798,4.37881 10.11871,10.7733 -0.0752,4.84168 -0.17502,9.50311 -0.21161,15.60956 z"
         style="font-style:normal;font-variant:normal;font-weight:bold;font-stretch:normal;font-size:60px;font-family:'Segoe WP';-inkscape-font-specification:'Segoe WP Bold';fill:#a81c1c;fill-opacity:1"
         id="path4299"
         inkscape:original-d="m 887.7995,526.57782 h -9.22852 v -17.05078 q 0,-6.5918 -4.80468,-6.5918 -2.46094,0 -3.98438,1.8457 -1.52344,1.84571 -1.52344,4.6875 v 17.10938 h -9.25781 v -44.41406 h 9.25781 v 18.86718 h 0.11719 q 3.39844,-5.18554 9.22852,-5.18554 10.19531,0 10.19531,12.30469 z"
         inkscape:connector-curvature="0" />
      <path
         d="m 919.71534,525.69347 c -0.0645,-3e-4 -8.69547,-0.0362 -8.75993,-0.0365 0.01,-1.37443 0.0231,-2.66957 0.0389,-3.90707 -1e-5,0 -0.11719,-0.001 -0.1172,-0.001 -2.0694,2.90326 -5.01224,4.60465 -8.97908,4.59841 -2.92255,-0.005 -5.18874,-0.83378 -6.86825,-2.39744 -1.64733,-1.57033 -2.45502,-3.56592 -2.4204,-5.84205 0.0718,-4.71795 3.57832,-7.1984 10.48531,-7.68435 2.72244,-0.19736 5.44423,-0.38944 8.1669,-0.57662 0.0427,-2.51616 -1.72441,-3.94796 -5.28326,-4.07843 -3.58809,-0.13154 -6.9814,0.63178 -10.23988,2.22894 0.0258,-1.84898 0.0461,-3.7629 0.056,-5.83113 1.29364,-0.54364 3.05599,-1.01135 5.28695,-1.39379 2.25532,-0.3825 4.29038,-0.54029 6.13403,-0.46496 4.30018,0.17568 7.48154,1.33342 9.62719,3.28253 2.13101,1.93582 3.16783,4.58265 3.10744,7.74323 -0.0854,4.46948 -0.19228,8.72715 -0.23473,14.36046 z m -8.5578,-10.28951 c 0.004,-0.19679 0.0259,-1.34108 0.0296,-1.53786 -1.82124,0.12985 -3.64224,0.26277 -5.46331,0.39881 -3.01502,0.22716 -4.54027,1.23615 -4.57137,3.09383 -0.0142,0.84685 0.33621,1.56871 1.05069,2.14873 0.73606,0.56538 1.72502,0.85937 2.97713,0.87492 1.74204,0.0216 3.15882,-0.46693 4.27176,-1.41935 1.10986,-0.96541 1.67871,-2.15604 1.70548,-3.55908 z"
         style="font-style:normal;font-variant:normal;font-weight:bold;font-stretch:normal;font-size:60px;font-family:'Segoe WP';-inkscape-font-specification:'Segoe WP Bold';fill:#a81c1c;fill-opacity:1"
         id="path4301"
         inkscape:original-d="m 920.05536,526.57782 h -8.75977 v -4.30664 h -0.11718 q -3.01758,5.03906 -8.93555,5.03906 -4.36524,0 -6.88477,-2.46094 -2.49023,-2.49023 -2.49023,-6.62109 0,-8.73047 10.3418,-10.07812 l 8.14453,-1.08399 q 0,-4.92187 -5.33203,-4.92187 -5.36133,0 -10.19532,3.19336 v -6.97266 q 1.9336,-0.99609 5.27344,-1.75781 3.36914,-0.76172 6.12305,-0.76172 12.83203,0 12.83203,12.80273 z m -8.70117,-12.1875 v -2.02148 l -5.44922,0.70312 q -4.51172,0.58594 -4.51172,4.07227 0,1.58203 1.08398,2.60742 1.11329,0.99609 2.98829,0.99609 2.60742,0 4.24804,-1.78711 1.64063,-1.8164 1.64063,-4.57031 z"
         inkscape:connector-curvature="0" />
      <path
         d="m 955.48655,525.94623 c -0.0589,-5.8e-4 -9.16942,-0.0824 -9.22827,-0.083 0.0125,-1.36114 0.0295,-2.63291 0.0494,-3.84283 -10e-6,0 -0.1465,-0.003 -0.14652,-0.003 -2.356,2.79806 -5.37103,4.47056 -9.22462,4.44927 -3.49323,-0.0193 -6.06074,-1.03294 -7.79534,-2.89747 -1.71906,-1.84782 -2.545,-4.45691 -2.48027,-7.56259 0.0935,-4.48636 0.19488,-8.65619 0.2146,-14.16367 3.08141,0.14327 6.16317,0.29108 9.24479,0.44363 -0.0216,5.22996 -0.11851,9.2006 -0.21166,13.37448 -0.0687,3.0789 1.58287,4.79092 4.94338,4.85642 1.66324,0.0324 2.99469,-0.39049 4.0114,-1.2278 1.01426,-0.8496 1.53885,-1.98381 1.57238,-3.38747 0.0966,-4.0428 0.19668,-7.9149 0.2214,-13.07519 3.08187,0.16368 6.16406,0.33238 9.24614,0.50632 -0.0485,8.96085 -0.33011,13.86311 -0.41686,22.61241 z"
         style="font-style:normal;font-variant:normal;font-weight:bold;font-stretch:normal;font-size:60px;font-family:'Segoe WP';-inkscape-font-specification:'Segoe WP Bold';fill:#a81c1c;fill-opacity:1"
         id="path4303"
         inkscape:original-d="m 955.82684,526.57782 h -9.22851 v -4.57031 h -0.14649 q -3.42773,5.30273 -9.16992,5.30273 -10.42969,0 -10.42969,-12.62695 v -18.10547 h 9.22852 v 17.28516 q 0,6.35742 5.03906,6.35742 2.49024,0 3.98438,-1.72852 1.49414,-1.75781 1.49414,-4.74609 v -17.16797 h 9.22851 z"
         inkscape:connector-curvature="0" />
      <path
         d="m 961.23602,525.33011 c 0.0249,-2.10822 0.0615,-3.98937 0.10286,-5.76814 1.50949,0.69563 3.01179,1.22988 4.50974,1.59433 1.51915,0.36532 2.94726,0.56381 4.29749,0.59659 1.64195,0.0399 2.93304,-0.0921 3.87895,-0.38694 0.96457,-0.29402 1.45461,-0.76002 1.47071,-1.38664 0.0103,-0.39989 -0.19582,-0.73536 -0.61867,-1.01207 -0.42265,-0.27658 -0.97369,-0.52429 -1.65216,-0.74406 -0.65892,-0.21907 -1.38733,-0.42144 -2.18417,-0.60709 -0.79699,-0.18567 -1.56422,-0.39026 -2.30155,-0.61385 -1.18395,-0.34482 -2.23087,-0.70554 -3.14025,-1.08219 -0.88936,-0.38893 -1.64121,-0.82692 -2.25435,-1.31489 -0.59361,-0.48718 -1.04925,-1.04497 -1.36608,-1.67791 -0.29755,-0.63262 -0.43616,-1.38017 -0.41739,-2.26303 0.0256,-1.20499 0.40646,-2.27926 1.14398,-3.19033 0.75717,-0.9101 1.74424,-1.67126 2.96341,-2.24655 1.24076,-0.59161 2.63947,-1.00763 4.20903,-1.22456 1.59074,-0.23337 3.22875,-0.29867 4.93507,-0.18911 1.33282,0.0856 2.67916,0.27061 4.04994,0.5527 1.3705,0.26455 2.71634,0.61321 4.0459,1.03981 -0.0174,2.05802 -0.0482,3.87156 -0.0862,5.55236 -1.16372,-0.55158 -2.41639,-0.99644 -3.76246,-1.32117 -1.32755,-0.33828 -2.63172,-0.54804 -3.92513,-0.62372 -0.60681,-0.0355 -1.18412,-0.025 -1.7338,0.0313 -0.52972,0.0427 -1.00099,0.13287 -1.41497,0.26928 -0.4136,0.12186 -0.73991,0.29886 -0.97954,0.52864 -0.23927,0.21545 -0.36199,0.47106 -0.3683,0.76445 -0.008,0.39106 0.16006,0.72986 0.50569,1.02031 0.34556,0.29038 0.7995,0.54938 1.36155,0.77856 0.56242,0.21583 1.18385,0.41971 1.86411,0.61213 0.70015,0.18023 1.39045,0.36554 2.07055,0.55567 1.22373,0.34734 2.33043,0.7113 3.31759,1.09041 0.98711,0.37909 1.8271,0.80468 2.5171,1.27497 0.70971,0.47131 1.24198,1.00619 1.59503,1.60752 0.37304,0.6029 0.54695,1.30963 0.52331,2.14123 -0.0331,1.16333 -0.45009,2.19633 -1.25087,3.08661 -0.78046,0.87622 -1.82081,1.63416 -3.11875,2.23978 -1.28025,0.59159 -2.75759,1.03672 -4.44189,1.30924 -1.66693,0.28948 -3.38996,0.4308 -5.19009,0.41145 -3.31641,-0.0357 -6.33688,-0.50867 -9.15544,-1.40507 z"
         style="font-style:normal;font-variant:normal;font-weight:bold;font-stretch:normal;font-size:60px;font-family:'Segoe WP';-inkscape-font-specification:'Segoe WP Bold';fill:#a81c1c;fill-opacity:1"
         id="path4305"
         inkscape:original-d="m 961.56903,525.7868 v -7.5 q 2.28516,1.37696 4.54102,2.05079 2.28515,0.67382 4.30664,0.67382 2.46093,0 3.86718,-0.67382 1.43555,-0.67383 1.43555,-2.05079 0,-0.8789 -0.64453,-1.46484 -0.64453,-0.58594 -1.66992,-1.02539 -0.9961,-0.43945 -2.19727,-0.79102 -1.20117,-0.35156 -2.31445,-0.79101 -1.78711,-0.67383 -3.16406,-1.43555 -1.34766,-0.79101 -2.28516,-1.8164 -0.9082,-1.0254 -1.40625,-2.37305 -0.46875,-1.34766 -0.46875,-3.19336 0,-2.51953 1.08399,-4.33594 1.11328,-1.8164 2.92968,-2.95898 1.84571,-1.17188 4.18946,-1.69922 2.37304,-0.55664 4.92187,-0.55664 1.99219,0 4.04297,0.32226 2.05078,0.29297 4.04297,0.87891 v 7.14844 q -1.75781,-1.02539 -3.7793,-1.52344 -1.99219,-0.52734 -3.92578,-0.52734 -0.9082,0 -1.72852,0.17578 -0.79101,0.14648 -1.40625,0.46875 -0.61523,0.29297 -0.96679,0.79101 -0.35156,0.46875 -0.35156,1.08399 0,0.82031 0.52734,1.40625 0.52734,0.58593 1.37695,1.02539 0.84961,0.41015 1.875,0.76172 1.05469,0.32226 2.08008,0.67382 1.8457,0.64454 3.33984,1.40625 1.49414,0.76172 2.54883,1.78711 1.08399,1.02539 1.64063,2.40235 0.58593,1.37695 0.58593,3.28125 0,2.66601 -1.17187,4.57031 -1.14258,1.875 -3.07617,3.07617 -1.9043,1.17188 -4.42383,1.69922 -2.49023,0.55664 -5.18555,0.55664 -4.95117,0 -9.16992,-1.52344 z"
         inkscape:connector-curvature="0" />
    </g>
    <ellipse
       style="fill:#171c4a;fill-opacity:0.83137255;stroke:#000000;stroke-width:0.01064868;stroke-linecap:round;stroke-miterlimit:4;stroke-dasharray:none;stroke-dashoffset:0;stroke-opacity:1"
       id="path4309"
       cx="-477.19122"
       cy="1005.6191"
       rx="0.8732295"
       ry="0.95921731" />
    <path
       style="fill:none;fill-rule:evenodd;stroke:#000000;stroke-width:0.02395829px;stroke-linecap:butt;stroke-linejoin:miter;stroke-opacity:1"
       d="m -487.18949,1023.3478 0.14533,-10.8692"
       id="path4311"
       inkscape:connector-curvature="0" />
    <path
       style="fill:none;fill-rule:evenodd;stroke:#000000;stroke-width:0.02395829px;stroke-linecap:butt;stroke-linejoin:miter;stroke-opacity:1"
       d="m -483.70522,1012.6483 -0.12099,10.603"
       id="path4315"
       inkscape:connector-curvature="0" />
    <path
       style="fill:none;fill-rule:evenodd;stroke:#000000;stroke-width:0.02395829px;stroke-linecap:butt;stroke-linejoin:miter;stroke-opacity:1"
       d="m -487.6855,1019.825 h 0.375"
       id="path4317"
       inkscape:connector-curvature="0" />
    <path
       style="fill:#171c4a;fill-opacity:0.82999998;fill-rule:evenodd;stroke:#000000;stroke-width:0.02066152px;stroke-linecap:butt;stroke-linejoin:miter;stroke-opacity:1"
       d="m -477.63666,1013.3726 1.06481,0.044 -0.0195,1.3812 -1.08463,-0.046 z"
       id="path4157-9"
       inkscape:connector-curvature="0" />
    <path
       style="fill:#171c4a;fill-opacity:0.82999998;fill-rule:evenodd;stroke:#000000;stroke-width:0.02066152px;stroke-linecap:butt;stroke-linejoin:miter;stroke-opacity:1"
       d="m -476.37465,1013.4064 1.03522,0.063 -0.009,1.3922 -1.07484,-0.049 z"
       id="path4159-5"
       inkscape:connector-curvature="0" />
    <path
       style="fill:#171c4a;fill-opacity:0.82999998;fill-rule:evenodd;stroke:#000000;stroke-width:0.02066152px;stroke-linecap:butt;stroke-linejoin:miter;stroke-opacity:1"
       d="m -474.87597,1013.4944 1.05502,0.077 -0.01,1.3255 h -1.04522 z"
       id="path4161-0"
       inkscape:connector-curvature="0" />
    <path
       style="fill:#171c4a;fill-opacity:0.82999998;fill-rule:evenodd;stroke:#000000;stroke-width:0.02066152px;stroke-linecap:butt;stroke-linejoin:miter;stroke-opacity:1"
       d="m -473.63364,1013.605 0.99584,0.046 -0.0194,1.3243 -1.00573,-0.046 z"
       id="path4163-4"
       inkscape:connector-curvature="0"
       sodipodi:nodetypes="ccccc" />
    <path
       style="fill:#171c4a;fill-opacity:0.82999998;fill-rule:evenodd;stroke:#000000;stroke-width:0.02066152px;stroke-linecap:butt;stroke-linejoin:miter;stroke-opacity:1"
       d="m -472.11518,1013.6491 0.98597,0.046 -0.0191,1.3588 -1.00569,-0.067 z"
       id="path4165-0"
       inkscape:connector-curvature="0" />
    <path
       style="fill:#171c4a;fill-opacity:0.82999998;fill-rule:evenodd;stroke:#000000;stroke-width:0.02066152px;stroke-linecap:butt;stroke-linejoin:miter;stroke-opacity:1"
       d="m -470.97148,1013.7262 0.91699,0.046 0.01,1.2924 h -0.92688 z"
       id="path4167-5"
       inkscape:connector-curvature="0" />
    <path
       style="fill:#171c4a;fill-opacity:0.82999998;fill-rule:evenodd;stroke:#000000;stroke-width:0.02066152px;stroke-linecap:butt;stroke-linejoin:miter;stroke-opacity:1"
       d="m -470.98133,1015.2612 h 0.93669 l -0.019,1.3039 h -0.92678 z"
       id="path4169-5"
       inkscape:connector-curvature="0" />
    <path
       style="fill:#171c4a;fill-opacity:0.82999998;fill-rule:evenodd;stroke:#000000;stroke-width:0.02066152px;stroke-linecap:butt;stroke-linejoin:miter;stroke-opacity:1"
       d="m -471.18836,1015.2393 v 1.3249 h -1.00568 l 0.0371,-1.3477 z"
       id="path4171-2"
       inkscape:connector-curvature="0" />
    <path
       style="fill:#171c4a;fill-opacity:0.82999998;fill-rule:evenodd;stroke:#000000;stroke-width:0.02066152px;stroke-linecap:butt;stroke-linejoin:miter;stroke-opacity:1"
       d="m -472.66737,1015.217 v 1.3256 l -1.02541,-0.045 0.0373,-1.3357 z"
       id="path4173-5"
       inkscape:connector-curvature="0" />
    <path
       style="fill:#171c4a;fill-opacity:0.82999998;fill-rule:evenodd;stroke:#000000;stroke-width:0.02066152px;stroke-linecap:butt;stroke-linejoin:miter;stroke-opacity:1"
       d="m -474.87597,1015.1289 h 1.02542 l -0.0194,1.3586 -1.02545,-0.046 z"
       id="path4175-0"
       inkscape:connector-curvature="0" />
    <path
       style="fill:#171c4a;fill-opacity:0.82999998;fill-rule:evenodd;stroke:#000000;stroke-width:0.02066152px;stroke-linecap:butt;stroke-linejoin:miter;stroke-opacity:1"
       d="m -476.42396,1015.0517 1.05502,0.046 -0.01,1.3471 h -1.09445 z"
       id="path4177-2"
       inkscape:connector-curvature="0" />
    <path
       style="fill:#171c4a;fill-opacity:0.82999998;fill-rule:evenodd;stroke:#000000;stroke-width:0.02066152px;stroke-linecap:butt;stroke-linejoin:miter;stroke-opacity:1"
       d="m -477.7156,1014.9736 1.07472,0.046 -0.028,1.403 -1.04506,-0.043 z"
       id="path4179-5"
       inkscape:connector-curvature="0" />
    <path
       style="fill:#171c4a;fill-opacity:0.82999998;fill-rule:evenodd;stroke:#000000;stroke-width:0.02066152px;stroke-linecap:butt;stroke-linejoin:miter;stroke-opacity:1"
       d="m -477.70576,1016.6094 h 1.05502 l 0.01,1.4017 h -1.08457 z"
       id="path4181-7"
       inkscape:connector-curvature="0" />
    <path
       style="fill:#171c4a;fill-opacity:0.82999998;fill-rule:evenodd;stroke:#000000;stroke-width:0.02066152px;stroke-linecap:butt;stroke-linejoin:miter;stroke-opacity:1"
       d="m -476.4634,1016.6419 1.09446,0.046 -0.0374,1.3586 -1.04512,-0.046 z"
       id="path4183-5"
       inkscape:connector-curvature="0" />
    <path
       style="fill:#171c4a;fill-opacity:0.82999998;fill-rule:evenodd;stroke:#000000;stroke-width:0.02066152px;stroke-linecap:butt;stroke-linejoin:miter;stroke-opacity:1"
       d="m -474.89569,1016.6749 h 1.04514 v 1.3701 h -1.06483 z"
       id="path4185-9"
       inkscape:connector-curvature="0" />
    <path
       style="fill:#171c4a;fill-opacity:0.82999998;fill-rule:evenodd;stroke:#000000;stroke-width:0.02066152px;stroke-linecap:butt;stroke-linejoin:miter;stroke-opacity:1"
       d="m -473.68293,1016.7192 1.04513,0.046 -0.0485,1.3149 h -1.01561 z"
       id="path4187-9"
       inkscape:connector-curvature="0" />
    <path
       style="fill:#171c4a;fill-opacity:0.82999998;fill-rule:evenodd;stroke:#000000;stroke-width:0.02066152px;stroke-linecap:butt;stroke-linejoin:miter;stroke-opacity:1"
       d="m -472.15465,1016.7634 h 0.96629 l -0.0373,1.3252 h -0.9367 z"
       id="path4189-9"
       inkscape:connector-curvature="0" />
    <path
       style="fill:#171c4a;fill-opacity:0.82999998;fill-rule:evenodd;stroke:#000000;stroke-width:0.02066152px;stroke-linecap:butt;stroke-linejoin:miter;stroke-opacity:1"
       d="m -470.99118,1016.7968 h 0.94654 l -0.0374,1.2918 h -0.9268 z"
       id="path4191-5"
       inkscape:connector-curvature="0" />
    <path
       style="fill:none;fill-rule:evenodd;stroke:#000000;stroke-width:0.02066152px;stroke-linecap:butt;stroke-linejoin:miter;stroke-opacity:1"
       d="m -475.17171,1023.0372 0.11803,-9.9188"
       id="path4311-2"
       inkscape:connector-curvature="0" />
    <path
       style="fill:none;fill-rule:evenodd;stroke:#000000;stroke-width:0.02066152px;stroke-linecap:butt;stroke-linejoin:miter;stroke-opacity:1"
       d="m -472.33216,1013.2733 -0.0984,9.6758"
       id="path4315-9"
       inkscape:connector-curvature="0" />
    <path
       style="fill:none;fill-rule:evenodd;stroke:#000000;stroke-width:0.02066152px;stroke-linecap:butt;stroke-linejoin:miter;stroke-opacity:1"
       d="m -475.57601,1019.8225 h 0.30565"
       id="path4317-7"
       inkscape:connector-curvature="0" />
    <path
       style="fill:none;fill-rule:evenodd;stroke:#000000;stroke-width:0.02395829px;stroke-linecap:butt;stroke-linejoin:miter;stroke-opacity:1"
       d="m -504.7711,1014.332 0.83801,0.2063"
       id="path4397"
       inkscape:connector-curvature="0" />
    <path
       style="fill:#000000;fill-opacity:0;stroke:#000000;stroke-width:0.01210076;stroke-linecap:round;stroke-miterlimit:4;stroke-dasharray:none;stroke-dashoffset:0;stroke-opacity:1"
       d="m -463.51573,1012.0738 c -0.01,0 -3.79027,-0.2714 -15.43376,-1.0177 -8.48296,-0.5433 -15.45946,-0.9884 -15.50326,-0.9889 h -0.0799 l 0.007,-0.4074 0.007,-0.4082 8.98993,-3.0585 c 6.64368,-2.2602 8.99995,-3.0526 9.02838,-3.0352 0.019,0 3.40216,1.9775 7.5135,4.3664 6.78127,3.9393 7.4686,4.3446 7.40399,4.3608 -0.0374,0 -0.44158,0.056 -0.89389,0.1033 -0.45231,0.042 -0.86769,0.094 -0.92272,0.099 -0.0692,0 -0.10312,0 -0.11014,0 z m -13.35883,-5.546 c 0.18655,-0.074 0.35202,-0.2296 0.46032,-0.45 0.0891,-0.1782 0.091,-0.1924 0.0905,-0.45 -0.002,-0.3375 -0.0528,-0.4828 -0.24513,-0.6915 -0.18988,-0.2062 -0.34637,-0.2765 -0.61366,-0.2765 -0.18467,0 -0.22262,0 -0.36613,0.08 -0.51769,0.253 -0.68879,0.9457 -0.36,1.4545 0.23019,0.3563 0.62981,0.487 1.03396,0.3375 z"
       id="path4399"
       inkscape:connector-curvature="0" />
    <path
       style="fill:#46393b;fill-opacity:1;stroke:#000000;stroke-width:0.01210076;stroke-linecap:round;stroke-miterlimit:4;stroke-dasharray:none;stroke-dashoffset:0;stroke-opacity:1"
       d="m -463.51925,1012.0598 c -0.0323,-0.044 -8.22822,-0.5661 -24.61129,-1.6048 -3.36688,-0.2159 -6.17897,-0.3937 -6.24917,-0.4032 h -0.12752 l 0.009,-0.3889 0.009,-0.3893 3.90766,-1.3292 c 2.14922,-0.7314 5.1434,-1.7504 6.65382,-2.2642 1.5105,-0.5137 3.79627,-1.2867 5.07961,-1.7174 2.07854,-0.698 2.33878,-0.7805 2.38327,-0.7515 0.0279,0 0.93196,0.5442 2.00989,1.1706 11.3177,6.5744 12.85694,7.4744 12.8306,7.5004 -0.009,0.01 -0.31264,0.043 -0.68499,0.083 -0.37217,0.043 -0.76929,0.084 -0.88243,0.099 -0.24284,0.043 -0.30095,0.043 -0.32254,0 z m -13.28613,-5.5507 c 0.18419,-0.089 0.30089,-0.2158 0.41293,-0.45 0.0764,-0.1595 0.0821,-0.1829 0.0821,-0.4126 0,-0.3796 -0.0805,-0.584 -0.3112,-0.7922 -0.16791,-0.15 -0.2785,-0.1968 -0.52728,-0.2061 -0.19971,0 -0.23527,-0.01 -0.35908,0.052 -0.36747,0.1686 -0.57632,0.4973 -0.57757,0.9106 -0.002,0.2344 0.0556,0.4173 0.1847,0.6079 0.18563,0.2718 0.42653,0.389 0.75195,0.3749 0.15092,0 0.22126,-0.043 0.34363,-0.083 z"
       id="path4412"
       inkscape:connector-curvature="0" />
    <path
       style="fill:#46393b;fill-opacity:1;stroke:#000000;stroke-width:0.01210076;stroke-linecap:round;stroke-miterlimit:4;stroke-dasharray:none;stroke-dashoffset:0;stroke-opacity:1"
       d="m -504.28593,1014.4274 c -0.19553,-0.049 -0.36143,-0.094 -0.36892,-0.1033 -0.01,0 1.44284,-0.5606 3.22268,-1.2287 2.3536,-0.8836 3.26278,-1.2152 3.33414,-1.2149 l 0.098,8e-4 0.71978,-0.9629 0.71975,-0.9625 0.97252,-0.2862 c 0.53487,-0.1544 0.98074,-0.2858 0.99072,-0.2858 0.009,5e-4 0.0191,0.1828 0.0191,0.4078 l -0.003,0.4077 -1.05548,0.8601 c -0.76292,0.6206 -1.07267,0.8596 -1.11767,0.8597 -0.0323,0 -1.65412,0.5866 -3.59981,1.3008 -1.94569,0.7154 -3.54625,1.2993 -3.55682,1.2977 -0.01,0 -0.17911,-0.049 -0.37458,-0.088 z"
       id="path4414"
       inkscape:connector-curvature="0" />
    <path
       style="fill:#a81c1c;fill-opacity:1;stroke:#000000;stroke-width:0.01210076;stroke-linecap:round;stroke-miterlimit:4;stroke-dasharray:none;stroke-dashoffset:0;stroke-opacity:1"
       d="m -506.90046,1014.8812 c -0.10321,-0.072 -0.1876,-0.1307 -0.1876,-0.1405 0,0 1.88435,-0.6964 4.18747,-1.5282 l 4.18738,-1.5115 0.71214,-1.2461 0.71207,-1.2473 10.58984,-3.713 c 9.69452,-3.3989 10.59433,-3.7101 10.64328,-3.6797 0.0278,0 3.55517,2.2233 7.83496,4.8993 4.27984,2.6762 7.78179,4.8718 7.78207,4.8789 2.4e-4,0 -0.21607,0.076 -0.48101,0.15 l -0.48162,0.136 -7.52122,-4.3722 c -4.13665,-2.4047 -7.54844,-4.3822 -7.58169,-4.3949 -0.0511,0 -1.50397,0.4687 -8.78318,2.9456 -10.48692,3.5689 -9.28685,3.1536 -9.2959,3.2165 -0.009,0.043 -0.11858,0.083 -1.00685,0.3467 -0.54975,0.1643 -1.00297,0.2999 -1.00709,0.3048 -0.008,0 -0.32529,0.4362 -0.7134,0.9525 l -0.70595,0.944 h -0.12616 c -0.0735,0 -1.85818,0.6687 -4.28757,1.5821 -2.28895,0.8595 -4.18894,1.5681 -4.2222,1.575 -0.042,0 -0.11065,0 -0.24794,-0.1129 z"
       id="path4420"
       inkscape:connector-curvature="0" />
    <path
       style="fill:#ffffff;fill-opacity:1;stroke:#322a26;stroke-width:0.83046323;stroke-linecap:round;stroke-linejoin:miter;stroke-miterlimit:4;stroke-dasharray:none;stroke-opacity:1;paint-order:stroke fill markers"
       d="m -495.98153,1022.5065 -0.94522,-1.0335 0.12282,-4.3005 c 0.0678,-2.3646 0.12496,-4.5002 0.12745,-4.7438 l 0.009,-0.444 1.00553,-0.8206 c 0.55306,-0.4507 1.01139,-0.8129 1.01854,-0.8041 0.0248,0.032 -0.33705,13.1337 -0.3628,13.1556 -0.0142,0.024 -0.45095,-0.4422 -0.97083,-1.0091 z"
       id="path1033"
       inkscape:connector-curvature="0" />
  </g>
</svg>
