<?xml version="1.0" encoding="UTF-8" standalone="no"?>
<svg
   xmlns:dc="http://purl.org/dc/elements/1.1/"
   xmlns:cc="http://creativecommons.org/ns#"
   xmlns:rdf="http://www.w3.org/1999/02/22-rdf-syntax-ns#"
   xmlns:svg="http://www.w3.org/2000/svg"
   xmlns="http://www.w3.org/2000/svg"
   id="svg4136"
   version="1.1"
   width="111"
   height="111"
   viewBox="0 0 111 111">
  <metadata
     id="metadata4142">
    <rdf:RDF>
      <cc:Work
         rdf:about="">
        <dc:format>image/svg+xml</dc:format>
        <dc:type
           rdf:resource="http://purl.org/dc/dcmitype/StillImage" />
        <dc:title></dc:title>
      </cc:Work>
    </rdf:RDF>
  </metadata>
  <defs
     id="defs4140" />
  <path
     style="fill:#a81c1c;fill-opacity:1;fill-rule:evenodd;stroke:#000000;stroke-width:0.56416744;stroke-linecap:butt;stroke-linejoin:miter;stroke-miterlimit:4;stroke-dasharray:none;stroke-opacity:1"
     d="m 13.225357,1.9798687 84.442531,0.2922799 c 0,0 -0.192668,9.8004904 0.58845,72.1931054 C 96.536542,86.293473 92.254761,91.545507 85.898892,97.555367 78.716879,104.34639 68.87865,109.01434 58.977319,109.53882 47.734519,110.13436 35.608128,106.43473 27.053925,99.162901 19.503739,92.744578 14.050544,82.562076 13.078245,73.003859 12.988617,4.2589858 13.225357,1.9798687 13.225357,1.9798687 Z"
     id="path4384-2" />
  <text
     xml:space="preserve"
     style="font-style:normal;font-variant:normal;font-weight:normal;font-stretch:normal;line-height:0%;font-family:'Ubuntu Condensed';-inkscape-font-specification:'Ubuntu Condensed, ';letter-spacing:-1.40999997px;word-spacing:0px;fill:#ffffff;fill-opacity:1;stroke:none;stroke-width:1px;stroke-linecap:butt;stroke-linejoin:miter;stroke-opacity:1"
     x="21.935743"
     y="34.720272"
     id="text4266"><tspan
       id="tspan4268"
       x="21.935743"
       y="34.720272"
       style="font-style:normal;font-variant:normal;font-weight:normal;font-stretch:normal;font-size:12.5px;line-height:1.25;font-family:'Ubuntu Condensed';-inkscape-font-specification:'Ubuntu Condensed, '"> </tspan></text>
  <text
     xml:space="preserve"
     style="font-style:normal;font-weight:normal;line-height:0%;font-family:sans-serif;letter-spacing:0px;word-spacing:0px;fill:#000000;fill-opacity:1;stroke:none;stroke-width:1px;stroke-linecap:butt;stroke-linejoin:miter;stroke-opacity:1"
     x="67.287674"
     y="45.246094"
     id="text4322"><tspan
       id="tspan4324"
       x="67.287674"
       y="45.246094"
       style="font-size:13.75px;line-height:1.25"> </tspan></text>
  <g
     transform="matrix(0.06499922,0,0,0.06499922,31.316105,21.827698)"
     id="layer1">
    <path
       d="m 28.035714,279.68361 685.535716,0.71429 -3.75,58.92857 -6.25,82.67857 -2.67857,85 -7.14286,86.07143 -1.60714,32.85714 -5.17857,88.03571 -4.82143,40.35715 -8.03572,46.42857 -13.03571,38.39286 -14.10714,32.85714 -20.71429,33.39286 -21.78571,27.14285 -29.28572,29.28572 -48.39285,33.03571 -65.17858,24.46432 -55.17857,8.3928 -63.39285,4.2857 -53.75001,-8.75 -36.07142,-11.7857 -32.67858,-12.67855 -45,-30.53571 -31.60714,-26.96429 -27.5,-28.92857 -26.964284,-45.89285 -11.071429,-30.17858 -12.321428,-41.42857 -8.928572,-50.53571 -6.428571,-95.35715 -4.821429,-63.75 -8.035714,-134.82142 -8.75,-133.03572 z"
       style="fill:#fcdd09;fill-opacity:1;stroke:#000000;stroke-width:1px;stroke-linecap:butt;stroke-linejoin:miter;stroke-opacity:1"
       id="path3114" />
    <path
       d="M 58.561001,613.78122 H 694.46163 V 574.3507 h 1.83786 v -92.81208 h 8.27038 v -54.88528 h 0.16708 v -61.48487 h 6.5996 V 278.45475 H 24.811152 v 25.31239 h 7.685609 v 72.51205 h 4.761736 v 99.41168 h -1.921402 v 40.60007 h 9.607011 v 77.27379 h 0.751853 v 20.21649 z"
       style="fill:#da121a;fill-opacity:1;stroke:#000000;stroke-width:1px;stroke-linecap:butt;stroke-linejoin:miter;stroke-opacity:1"
       id="path3118" />
    <path
       id="path3116"
       d="M 51.740429,613.81792 H 689.59039"
       style="fill:none;stroke:#000000;stroke-width:5;stroke-linecap:butt;stroke-linejoin:miter;stroke-miterlimit:4;stroke-dasharray:none;stroke-opacity:1" />
    <path
       d="m 257.38782,273.49475 h 226.5552 v 340.32318 h -226.5552 z"
       style="fill:#ffffff;fill-opacity:1;fill-rule:nonzero;stroke:#000000;stroke-width:5;stroke-linecap:round;stroke-linejoin:round;stroke-miterlimit:4;stroke-dashoffset:0;stroke-opacity:1"
       id="rect3888" />
    <g
       transform="translate(563.6223,30.458051)"
       id="g3981">
      <path
         d="m -199.88512,248.50611 h 13.78881 m -9.18721,752.49209 c 20.48385,0.2821 40.99386,-1.366 61.16981,-4.91545 26.35197,-4.63597 52.138143,-12.52464 76.520647,-23.54336 22.944176,-10.36873 44.621012,-23.49382 64.6406602,-38.76338 17.4960668,-13.34475 33.8004858,-28.39851 47.3558298,-45.73193 18.831464,-24.08007 32.029714,-52.13065 42.27394,-80.93221 8.457573,-23.77839 15.006693,-48.23857 19.486793,-73.07546 8.01033,-44.40792 9.37364,-89.7031 11.36729,-134.78363 1.31731,-29.7872 2.91833,-59.56221 4.8717,-89.31446 2.63022,-40.06163 5.89927,-80.08209 8.11949,-120.16854 1.64888,-29.77073 2.71917,-59.5759 4.8717,-89.31445 1.25607,-17.35345 2.88046,-34.68024 4.8717,-51.96477 -57.377771,-10e-6 -114.755542,-10e-6 -172.133313,-10e-6 -56.295172,0 -112.590347,0 -168.885517,10e-6 m -0.67696,752.54144 c -20.73734,0 -41.47416,-1.81192 -61.89852,-5.40119 -26.2412,-4.61149 -51.99881,-12.17846 -76.32326,-23.04989 -22.98922,-10.27467 -44.63512,-23.47118 -64.64066,-38.76338 -17.48148,-13.36282 -33.79523,-28.40342 -47.35583,-45.73193 -18.83952,-24.07422 -32.03193,-52.12949 -42.27394,-80.93221 -8.45563,-23.77904 -15.00603,-48.23873 -19.48679,-73.07546 -8.01154,-44.40772 -9.37391,-89.70307 -11.36729,-134.78363 -1.31714,-29.7872 -2.91828,-59.56221 -4.8717,-89.31446 -2.6303,-40.06163 -5.89928,-80.08209 -8.11949,-120.16854 -1.64886,-29.77073 -2.71917,-59.5759 -4.8717,-89.31445 -1.25608,-17.35345 -2.88046,-34.68024 -4.8717,-51.96477 57.37777,-1e-5 114.75554,-1e-5 172.13331,-1e-5 56.29517,0 112.59035,0 168.88552,1e-5"
         style="fill:none;stroke:#000000;stroke-width:20;stroke-linecap:butt;stroke-linejoin:miter;stroke-miterlimit:4;stroke-dasharray:none;stroke-opacity:1"
         id="path3902" />
    </g>
    <path
       d="m 184.19665,630.41848 c -0.51074,-0.0177 -1.01655,0.0335 -1.5,0.21875 -1.15506,0.44269 -2.14661,1.73609 -2.25,2.96875 -0.22843,2.72333 2.15472,5.07029 3.84375,7.21875 1.12259,1.42794 2.72587,2.39512 4.0625,3.625 1.60952,1.48098 3.57752,2.68486 4.75,4.53125 0.76711,1.20802 1.97246,2.777 1.34375,4.0625 -0.59737,1.22141 -2.5036,1.14544 -3.84375,1.375 -3.64256,0.62395 -7.37661,0.26791 -11.0625,0 -4.7709,-0.34678 -9.49653,-1.33063 -14.21875,-2.09375 -1.97893,-0.31981 -3.93176,-0.68504 -5.90625,-1.03125 -2.98847,-0.52401 -6.00532,-0.91165 -8.96875,-1.5625 -3.23517,-0.71052 -6.46035,-1.58467 -9.625,-2.5625 -2.06287,-0.6374 -4.07563,-1.38885 -6.09375,-2.15625 -2.51311,-0.95564 -5.18335,-1.64619 -7.46875,-3.0625 -2.13491,-1.32305 -3.20522,-5.51715 -5.65625,-4.96875 -2.40642,0.53842 -3.00498,4.31625 -2.9375,6.78125 0.0785,2.86591 2.1674,5.39294 3.84375,7.71875 2.05807,2.85542 4.66231,5.31313 7.46875,7.4375 3.44611,2.60858 7.39226,4.52384 11.3125,6.34375 3.5069,1.62803 7.15046,2.94988 10.84375,4.09375 5.71381,1.76965 11.61799,2.89828 17.4375,4.28125 2.63443,0.62606 5.30179,1.07156 7.90625,1.8125 2.91345,0.82885 8.21397,-0.0635 8.625,2.9375 0.27954,2.041 -3.18036,2.73662 -5.09375,3.5 -3.36803,1.34374 -7.13503,1.4337 -10.75,1.71875 -4.58642,0.36165 -9.21523,0.17656 -13.8125,0 -3.93056,-0.15095 -7.84697,-0.41787 -11.75,-0.90625 -3.49418,-0.43722 -6.95954,-1.09095 -10.40625,-1.8125 -4.02846,-0.84333 -8.02713,-1.86234 -12,-2.9375 -2.05012,-0.55481 -4.11273,-1.13312 -6.125,-1.8125 -3.82215,-1.29043 -7.61822,-2.6919 -11.3125,-4.3125 -4.7876,-2.10022 -9.7901,-3.94312 -14.0313,-7 -1.644,-1.18495 -2.714,-3.02768 -4.2812,-4.3125 -0.8412,-0.6896 -1.6646,-2.08072 -2.7188,-1.8125 -1.5692,0.39931 -1.8767,2.74448 -2.2812,4.3125 -0.9232,3.57923 -0.8365,7.44935 -0.2188,11.09375 0.5784,3.41166 1.8823,6.72938 3.625,9.71875 1.9155,3.28556 4.6177,6.06694 7.3438,8.71875 3.0762,2.99225 6.3702,5.89768 10.0938,8.03125 3.36401,1.92762 7.11958,3.10884 10.8437,4.1875 4.28657,1.24156 8.69283,2.07217 13.125,2.59375 6.97144,0.8204 14.01257,0.92233 21.03125,0.8125 6.80398,-0.10646 13.59625,-0.84252 20.375,-1.4375 4.53264,-0.39784 10.6956,-4.91393 13.59375,-1.40625 1.65647,2.00486 -0.53865,5.53828 -2.28125,7.46875 -2.35579,2.60977 -6.33465,3.10934 -9.71875,4.0625 -3.81941,1.07577 -7.84319,1.32585 -11.78125,1.8125 -10.44974,1.29133 -20.91972,2.44673 -31.4375,2.9375 -4.52033,0.21092 -9.07878,0.3047 -13.59375,0 -4.48035,-0.30237 -8.9472,-0.89832 -13.3438,-1.8125 -2.7305,-0.56776 -5.4027,-1.34901 -8.0312,-2.28125 -2.5084,-0.88964 -4.8289,-2.28501 -7.3438,-3.15625 -2.2127,-0.76656 -4.8129,-3.08114 -6.7812,-1.8125 -1.5424,0.99416 -1.2142,3.62847 -0.9062,5.4375 0.7763,4.56044 3.7765,8.56078 6.6874,12.15625 2.8501,3.52053 6.6971,6.13653 10.2813,8.90625 2.1023,1.62461 4.3087,3.09304 6.5625,4.5 1.1745,0.73318 2.3585,1.50313 3.625,2.0625 3.11372,1.37521 6.35768,2.48127 9.6875,3.1875 5.8682,1.24461 11.91263,1.53362 17.90625,1.78125 9.42076,0.38923 18.90374,0.51335 28.28125,-0.46875 3.13343,-0.32816 6.17062,-1.31244 9.28125,-1.8125 5.3293,-0.85673 13.38498,-6.71807 16.0625,-2.03125 1.46673,2.56741 -3.22667,5.0678 -5.4375,7.03125 -1.6441,1.46013 -3.70288,2.36535 -5.65625,3.375 -3.00008,1.55066 -6.11186,2.92758 -9.28125,4.09375 -2.95592,1.08762 -6.02874,1.76728 -9.03125,2.71875 -3.75323,1.18937 -7.39546,2.77866 -11.21875,3.71875 -3.89365,0.95739 -7.8964,1.4397 -11.875,1.9375 -4.20755,0.52645 -8.4159,1.13195 -12.65625,1.125 -4.09014,-0.007 -8.17675,-0.49933 -12.21875,-1.125 -4.19575,-0.64947 -8.40975,-1.47355 -12.46875,-2.71875 -4.2712,-1.31031 -8.0318,-5.74175 -12.4375,-5 -1.4763,0.24855 -3.1077,1.46451 -3.375,2.9375 -0.5925,3.26462 2.837,6.03906 4.75,8.75 2.474,3.50597 5.5122,6.60771 8.5937,9.59375 2.6908,2.60734 5.4367,5.2322 8.5938,7.25 4.3498,2.78012 9.12029,4.9712 14.03125,6.5625 3.43343,1.11253 7.04063,1.60882 10.625,2.03125 4.94866,0.58321 9.97212,1.10503 14.9375,0.6875 7.45897,-0.62721 14.73966,-2.72682 21.9375,-4.78125 3.98337,-1.13695 7.95096,-2.43472 11.71875,-4.15625 4.11865,-1.88185 7.82483,-4.542 11.8125,-6.6875 3.20805,-1.72604 7.20101,-7.57133 9.75,-4.96875 2.6018,2.6565 -2.88952,6.99196 -5.3125,9.8125 -2.74532,3.19576 -6.53281,5.34224 -10.09375,7.59375 -2.86116,1.80905 -5.95965,3.2304 -9,4.71875 -3.4759,1.70156 -7.01642,3.2625 -10.5625,4.8125 -4.60286,2.01194 -9.13604,4.14621 -13.875,5.8125 -5.70889,2.00732 -11.52411,3.89894 -17.46875,5.03125 -2.30748,0.43952 -4.65611,0.50195 -7,0.65625 -3.04178,0.20024 -6.12087,0.62479 -9.15625,0.34375 -1.70607,-0.15796 -3.33165,-0.73482 -5,-1.125 -1.99857,-0.4674 -4.25075,-2.54233 -5.99995,-1.46875 -1.768,1.08499 -1.8675,4.04013 -1.4063,6.0625 0.8591,3.7667 4.52957,6.31937 7.28125,9.03125 2.60015,2.56255 5.40899,5.02236 8.625,6.75 3.65202,1.96186 7.74129,3.0075 11.78125,3.9375 4.58547,1.05556 9.29876,1.61474 14,1.8125 6.21159,0.2613 12.53709,0.41704 18.625,-0.84375 6.69497,-1.3865 13.16387,-4.04691 19.1875,-7.28125 4.90121,-2.63166 9.13001,-6.38837 13.5625,-9.75 5.15369,-3.90859 9.87455,-8.35995 15.15625,-12.09375 4.13439,-2.92273 8.54153,-10.59732 12.90625,-8.03125 2.66886,1.56906 0.56695,6.3637 -0.46875,9.28125 -1.56368,4.40486 -5.0404,7.97464 -8.3125,11.3125 -5.60346,5.71608 -12.45742,10.0721 -19.0625,14.59375 -4.01123,2.74598 -8.32186,4.97565 -12.4375,7.5625 -4.10909,2.58274 -7.98527,5.56414 -12.21875,7.9375 -3.50161,1.96306 -7.14062,3.71463 -10.875,5.1875 -2.57405,1.01523 -5.18671,1.98955 -7.90625,2.5 -5.57181,1.04582 -11.32692,0.56955 -16.96875,1.125 -1.74095,0.1714 -4.60817,-0.95186 -5.21875,0.6875 -1.24957,3.355 4.28419,5.8938 7.15625,8.03125 3.36299,2.50281 7.40001,4.07807 11.40625,5.3125 4.96908,1.53111 10.18557,2.17451 15.375,2.5 6.32695,0.39684 12.8073,0.51671 19.03125,-0.6875 5.66838,-1.09672 11.1678,-3.19433 16.28125,-5.875 7.13616,-3.74106 13.35804,-9.04545 19.6875,-14.03125 5.33664,-4.20374 10.37549,-8.77542 15.375,-13.375 4.80404,-4.41975 8.82901,-9.71295 14.03125,-13.65625 3.54229,-2.68506 7.75385,-9.03027 11.53125,-6.6875 1.99106,1.23487 0.27411,4.79903 -0.4375,7.03125 -0.63946,2.00589 -2.19101,3.59321 -3.3125,5.375 -1.58712,2.52155 -3.14253,5.05398 -4.84375,7.5 -2.36131,3.3951 -4.69227,6.84458 -7.4375,9.9375 -3.05314,3.43981 -6.50169,6.50909 -9.96875,9.53125 -3.33728,2.90903 -7.06428,5.34636 -10.40625,8.25 -2.35725,2.04808 -7.85323,3.52458 -6.8125,6.46875 0.78491,2.22047 4.65754,2.29698 7.1875,2.6875 5.22309,0.80622 10.54224,-0.1662 15.84375,-0.84375 6.19817,-0.79214 12.30183,-3.04148 17.71875,-6.15625 6.02796,-3.46613 11.0275,-8.51728 15.8125,-13.5625 5.1074,-5.38515 9.76363,-11.29893 13.59375,-17.65625 1.49783,-2.48613 2.15469,-5.435 3.625,-7.9375 2.32304,-3.95386 3.82546,-12.65735 8.125,-11.0625 2.76594,1.02599 -0.0135,5.93329 -0.65625,8.8125 -0.50971,2.28305 -1.53699,4.43066 -2.5,6.5625 -1.8611,4.11999 -4.42087,7.90848 -6.34375,12 -1.66067,3.53358 -6.86261,7.72811 -4.46875,10.8125 1.57921,2.03474 5.17782,-0.39273 7.65625,-1.09375 4.19296,-1.18598 8.17875,-3.0373 11.96875,-5.1875 3.14943,-1.78678 6.00965,-4.09001 8.84375,-6.34375 2.59334,-2.06228 5.39715,-3.9766 7.46875,-6.5625 2.25802,-2.81861 3.68231,-6.21707 5.1875,-9.5 2.14853,-4.6861 0.3051,-14.01608 5.4375,-14.5 2.0218,-0.19063 2.40839,3.33071 3.15625,5.21875 1.07858,2.72298 1.50919,5.68069 1.8125,8.59375 0.24994,2.40049 0.13347,4.84023 0,7.25 -0.15107,2.72767 -0.14478,5.50142 -0.90625,8.125 -1.00601,3.46614 -2.50072,6.92743 -4.75,9.75 -1.57091,1.9713 -3.68874,3.49539 -5.875,4.75 -4.05783,2.32864 -8.5549,3.9674 -13.125,4.96875 -4.28318,0.93848 -8.74281,0.75532 -13.125,0.90625 -2.48741,0.0857 -6.40512,-2.25016 -7.46875,0 -1.16791,2.47077 2.97308,4.78629 5.21875,6.34375 2.48903,1.72623 6.62409,0.63628 8.59375,2.9375 0.84661,0.98912 0.97285,2.57344 0.6875,3.84375 -0.35427,1.57712 -1.67812,2.81723 -2.8125,3.96875 -1.43618,1.45788 -3.32505,2.40586 -4.96875,3.625 -1.35506,1.00504 -2.64825,2.06503 -4.03125,3.03125 -1.43915,1.00545 -2.90333,1.99027 -4.4375,2.84375 -1.91578,1.06578 -3.89986,2.00373 -5.9375,2.8125 -3.39174,1.34624 -6.82131,2.7247 -10.40625,3.40625 -2.44957,0.4657 -4.98436,0.64988 -7.46875,0.4375 -2.62476,-0.22438 -5.26539,-0.7766 -7.6875,-1.8125 -3.55828,-1.52181 -6.15391,-4.88233 -9.75,-6.3125 -1.56707,-0.62323 -3.2833,-0.84791 -4.96875,-0.90625 -2.73022,-0.0945 -5.41027,1.21169 -8.125,0.90625 -1.8251,-0.20534 -3.6985,-0.78196 -5.21875,-1.8125 -1.23918,-0.84001 -1.47723,-3.07641 -2.9375,-3.40625 -1.2848,-0.29021 -2.54669,0.83733 -3.625,1.59375 -1.70328,1.19483 -3.48108,2.62402 -4.3125,4.53125 -0.48316,1.10835 -0.5231,2.4236 -0.21875,3.59375 0.63195,2.42966 2.94354,4.11224 4.09375,6.34375 0.55825,1.08305 1.19135,2.19736 1.34375,3.40625 0.2188,1.73563 -0.89,3.44989 -0.6875,5.1875 0.34537,2.96359 0.28266,7.6938 3.1875,8.375 1.40285,0.32898 2.17311,-1.8841 3.15625,-2.9375 1.71988,-1.84278 2.71178,-4.39194 4.75,-5.875 3.02421,-2.20049 6.76639,-3.50158 10.46875,-4.03125 3.42415,-0.48986 6.95181,0.16585 10.34375,0.84375 2.40904,0.48146 5.63786,0.25796 7.03125,2.28125 0.8139,1.18183 0.38777,2.9958 -0.25,4.28125 -0.57084,1.15054 -1.84155,1.83029 -2.9375,2.5 -1.67326,1.02249 -3.48339,1.89668 -5.40625,2.28125 -2.44055,0.48811 -5.00799,-0.37307 -7.46875,0 -2.26423,0.34327 -4.56368,0.91352 -6.5625,2.03125 -2.09927,1.1739 -5.27476,2.35031 -5.4375,4.75 -0.20978,3.09341 4.84763,4.16092 6.09375,7 0.54898,1.25075 0.23937,2.74722 0.46875,4.09375 0.67591,3.96779 -1.28849,11.3728 2.71875,11.75 2.0509,0.19305 1.12077,-4.09856 2.46875,-5.65625 0.9312,-1.07606 2.54365,-1.32495 3.625,-2.25 2.2752,-1.94633 4.08042,-4.4158 5.875,-6.8125 2.25708,-3.01438 3.56,-6.74289 6.125,-9.5 1.54116,-1.65659 3.41968,-3.03886 5.4375,-4.0625 1.61706,-0.82033 3.67158,-2.58863 5.1875,-1.59375 2.22126,1.45779 1.09392,5.28723 0.90625,7.9375 -0.12663,1.78825 -0.5541,3.57805 -1.34375,5.1875 -1.4685,2.99306 -4.0326,5.34197 -6.125,7.9375 -1.17578,1.4585 -2.09467,3.20062 -3.625,4.28125 -1.57915,1.11511 -3.74191,1.0478 -5.40625,2.03125 -0.59864,0.35374 -1.58443,0.67972 -1.59375,1.375 -0.0286,2.13569 2.97051,3.09998 4.75,4.28125 2.08024,1.38092 5.02917,1.40857 6.78125,3.1875 1.68193,1.70771 0.58018,6.12869 2.9375,6.5625 1.3637,0.25095 2.04904,-1.87294 2.9375,-2.9375 1.52819,-1.8311 3.27784,-3.66514 4.09375,-5.90625 1.11425,-3.06057 0.22703,-6.53327 0.90625,-9.71875 0.88035,-4.12873 2.03462,-8.29742 4.0625,-12 0.92793,-1.69424 2.20114,-3.22583 3.625,-4.53125 1.00221,-0.91884 2.05189,-2.37001 3.40625,-2.25 1.3788,0.12218 1.99076,1.89542 2.96875,2.875 0.90643,0.90791 1.85776,1.80276 2.6875,2.78125 1.21946,1.43808 1.74893,3.57674 3.375,4.53125 2.42845,1.42551 5.59716,1.58658 8.375,1.125 0.99819,-0.16587 2.03187,-0.60072 2.71875,-1.34375 2.04404,-2.21112 1.36221,-6.16388 3.40625,-8.375 1.25928,-1.36221 3.65699,-1.18824 4.96875,-2.5 1.19251,-1.1925 1.62431,-2.96516 2.25,-4.53125 1.05332,-2.63644 4.11689,-5.79134 2.5,-8.125 -0.68859,-0.99384 -2.46967,-0.60651 -3.625,-0.25 -1.64339,0.50712 -2.78955,2.031 -4.0625,3.1875 -1.38211,1.25567 -2.2236,3.13405 -3.84375,4.0625 -2.61913,1.50093 -5.82776,1.90314 -8.84375,2.03125 -2.66412,0.11316 -5.33017,-0.43639 -7.90625,-1.125 -1.96188,-0.52443 -3.94957,-1.14944 -5.65625,-2.25 -2.19662,-1.4165 -6.12432,-2.86601 -5.65625,-5.4375 0.41144,-2.2604 4.33752,-1.59905 6.34375,-2.71875 2.17431,-1.21351 3.90036,-3.13383 6.09375,-4.3125 3.28169,-1.76349 6.78914,-3.17034 10.40625,-4.0625 2.65236,-0.6542 5.45967,-1.34385 8.15625,-0.90625 2.13183,0.34595 3.93735,1.76486 5.875,2.71875 1.60412,0.78969 3.08287,3.14615 4.75,2.5 1.64623,-0.63805 0.9817,-3.44213 1.8125,-5 1.14286,-2.14304 2.79778,-3.97648 4.3125,-5.875 2.98453,-3.74074 6.20872,-7.28335 9.40625,-10.84375 2.28473,-2.54402 4.35066,-5.30053 6.96875,-7.5 1.68768,-1.41784 3.4652,-4.27188 5.5625,-3.59375 4.32523,1.39849 4.28323,8.18913 4.9375,12.6875 1.1232,7.72252 -0.79321,15.61977 -1.90625,23.34375 -0.97447,6.76236 -1.92016,13.60657 -4.15625,20.0625 -0.85236,2.4609 -2.03436,4.84722 -3.5,7 -2.00423,2.94386 -4.47207,5.5969 -7.15625,7.9375 -1.92349,1.67728 -4.03194,3.16702 -6.3125,4.3125 -3.28244,1.6487 -6.93807,2.41491 -10.40625,3.625 -1.50892,0.52648 -4.27319,-0.0143 -4.53125,1.5625 -0.41657,2.54593 3.64092,3.95069 6.09375,4.75 3.27198,1.06625 6.88296,-0.0278 10.3125,-0.3125 4.8083,-0.39908 11.3989,-5.75938 14.34375,-1.9375 1.72056,2.23297 -1.71791,5.42629 -3.21875,7.8125 -1.42671,2.26833 -3.29671,4.30839 -5.375,6 -2.09682,1.70669 -4.45134,3.16039 -7,4.0625 -3.2379,1.14607 -6.75481,1.7125 -10.1875,1.59375 -3.4011,-0.11765 -6.79753,-1.04647 -9.96875,-2.28125 -1.69987,-0.66188 -3.27354,-1.64743 -4.75,-2.71875 -2.63622,-1.91284 -3.96587,-6.72809 -7.21875,-6.5625 -1.01337,0.0516 -1.67981,1.32937 -2.03125,2.28125 -0.79845,2.16264 -0.38896,4.66632 0.15625,6.90625 0.50111,2.05878 1.69579,3.89901 2.78125,5.71875 1.05526,1.7691 2.22231,3.52269 3.625,5.03125 1.48416,1.59618 3.1916,2.97086 5,4.1875 2.03394,1.36836 4.21386,2.55269 6.5,3.4375 2.86668,1.10949 5.8723,2.05022 8.9375,2.28125 3.67615,0.27707 7.55381,0.21569 11,-1.09375 4.08977,-1.55398 7.34301,-4.79448 10.625,-7.6875 2.40172,-2.11708 4.63451,-4.47525 6.5625,-7.03125 0.79449,-1.05328 0.71268,-3.33055 2.03125,-3.375 2.51727,-0.0849 2.90154,4.10112 4.3125,6.1875 0.68688,1.01568 1.65811,1.92577 2.03125,3.09375 0.62014,1.9411 0.18103,4.05635 0.21875,6.09375 0.053,2.8655 -0.73011,5.82232 0,8.59377 0.41951,1.5924 1.30416,3.1178 2.4375,4.3125 1.06164,1.1191 2.39678,2.7865 3.90625,2.4687 0.75977,-0.1599 1.62602,-0.6036 2.4375,-1.2187 0.81149,0.6151 1.67771,1.0588 2.4375,1.2187 1.5094,0.3178 2.84465,-1.3496 3.90625,-2.4687 1.1333,-1.1947 2.018,-2.7201 2.4375,-4.3125 0.7301,-2.77145 -0.053,-5.72827 0,-8.59377 0.0377,-2.0374 -0.40145,-4.15265 0.21875,-6.09375 0.3731,-1.16798 1.34445,-2.07807 2.03125,-3.09375 1.411,-2.08638 1.7952,-6.2724 4.3125,-6.1875 1.3186,0.0444 1.23685,2.32172 2.03125,3.375 1.928,2.556 4.1608,4.91417 6.5625,7.03125 3.282,2.89302 6.5352,6.13352 10.625,7.6875 3.4462,1.30944 7.3238,1.37082 11,1.09375 3.0652,-0.23103 6.0708,-1.17176 8.9375,-2.28125 2.2861,-0.88481 4.4661,-2.06914 6.5,-3.4375 1.8084,-1.21664 3.54705,-2.59132 5.03125,-4.1875 1.4027,-1.50856 2.53855,-3.26215 3.59375,-5.03125 1.0855,-1.81974 2.28015,-3.65997 2.78125,-5.71875 0.5452,-2.23993 0.9859,-4.74361 0.1875,-6.90625 -0.3514,-0.95188 -1.0491,-2.22965 -2.0625,-2.28125 -3.2528,-0.16559 -4.58255,4.64966 -7.21875,6.5625 -1.4765,1.07132 -3.0501,2.05687 -4.75,2.71875 -3.1712,1.23478 -6.56765,2.1636 -9.96875,2.28125 -3.4327,0.11875 -6.9496,-0.44768 -10.1875,-1.59375 -2.5486,-0.90211 -4.9032,-2.35581 -7,-4.0625 -2.0783,-1.69161 -3.9483,-3.73167 -5.375,-6 -1.5009,-2.38621 -4.93925,-5.57953 -3.21875,-7.8125 2.9449,-3.82188 9.53545,1.53842 14.34375,1.9375 3.4295,0.28468 7.0405,1.37875 10.3125,0.3125 2.4528,-0.79931 6.51035,-2.20407 6.09375,-4.75 -0.2581,-1.57683 -2.991,-1.03602 -4.5,-1.5625 -3.4681,-1.21009 -7.1551,-1.9763 -10.4375,-3.625 -2.2806,-1.14548 -4.389,-2.63522 -6.3125,-4.3125 -2.6841,-2.3406 -5.15205,-4.99364 -7.15625,-7.9375 -1.4657,-2.15278 -2.6476,-4.5391 -3.5,-7 -2.2361,-6.45593 -3.1506,-13.30014 -4.125,-20.0625 -1.1131,-7.72398 -3.0607,-15.62123 -1.9375,-23.34375 0.6542,-4.49837 0.6123,-11.28901 4.9375,-12.6875 2.0973,-0.67813 3.8748,2.17591 5.5625,3.59375 2.6181,2.19947 4.68405,4.95598 6.96875,7.5 3.1975,3.5604 6.453,7.10301 9.4375,10.84375 1.5148,1.89852 3.13845,3.73196 4.28125,5.875 0.8308,1.55787 0.1663,4.36195 1.8125,5 1.6671,0.64615 3.1459,-1.71031 4.75,-2.5 1.9377,-0.95389 3.7432,-2.3728 5.875,-2.71875 2.6966,-0.4376 5.50385,0.25205 8.15625,0.90625 3.6171,0.89216 7.12455,2.29901 10.40625,4.0625 2.1934,1.17867 3.9507,3.09899 6.125,4.3125 2.0062,1.1197 5.9011,0.45835 6.3125,2.71875 0.4681,2.57149 -3.45965,4.021 -5.65625,5.4375 -1.7067,1.10056 -3.69435,1.72557 -5.65625,2.25 -2.576,0.68861 -5.24215,1.23816 -7.90625,1.125 -3.016,-0.12811 -6.22455,-0.53032 -8.84375,-2.03125 -1.6201,-0.92845 -2.46165,-2.80683 -3.84375,-4.0625 -1.273,-1.1565 -2.4191,-2.68038 -4.0625,-3.1875 -1.1554,-0.35651 -2.9364,-0.74384 -3.625,0.25 -1.6169,2.33366 1.4466,5.48856 2.5,8.125 0.6256,1.56609 1.0575,3.33875 2.25,4.53125 1.3117,1.31176 3.7408,1.13779 5,2.5 2.0441,2.21112 1.3309,6.16388 3.375,8.375 0.6869,0.74303 1.72055,1.17788 2.71875,1.34375 2.7779,0.46158 5.9466,0.30051 8.375,-1.125 1.6261,-0.95451 2.18685,-3.09317 3.40625,-4.53125 0.8298,-0.97849 1.74985,-1.87334 2.65625,-2.78125 0.978,-0.97958 1.6212,-2.75282 3,-2.875 1.3544,-0.12001 2.3728,1.33116 3.375,2.25 1.4239,1.30542 2.6971,2.83701 3.625,4.53125 2.0279,3.70258 3.1822,7.87127 4.0625,12 0.6793,3.18548 -0.20805,6.65818 0.90625,9.71875 0.8159,2.24111 2.56555,4.07515 4.09375,5.90625 0.8885,1.06456 1.5738,3.18845 2.9375,2.9375 2.3573,-0.43381 1.2556,-4.85479 2.9375,-6.5625 1.7521,-1.77893 4.70095,-1.80658 6.78125,-3.1875 1.7795,-1.18127 4.779,-2.14556 4.75,-4.28125 -0.009,-0.69528 -0.99515,-1.02126 -1.59375,-1.375 -1.6644,-0.98345 -3.82715,-0.91614 -5.40625,-2.03125 -1.5304,-1.08063 -2.4492,-2.82275 -3.625,-4.28125 -2.0924,-2.59553 -4.6565,-4.94444 -6.125,-7.9375 -0.7897,-1.60945 -1.21705,-3.39925 -1.34375,-5.1875 -0.1876,-2.65027 -1.31505,-6.47971 0.90625,-7.9375 1.5159,-0.99488 3.5704,0.77342 5.1875,1.59375 2.0178,1.02364 3.8963,2.40591 5.4375,4.0625 2.565,2.75711 3.8679,6.48562 6.125,9.5 1.7945,2.3967 3.5998,4.86617 5.875,6.8125 1.0813,0.92505 2.6938,1.17394 3.625,2.25 1.348,1.55769 0.41785,5.8493 2.46875,5.65625 4.0072,-0.3772 2.04285,-7.78221 2.71875,-11.75 0.2294,-1.34653 -0.0802,-2.843 0.46875,-4.09375 1.2461,-2.83908 6.30355,-3.90659 6.09375,-7 -0.1627,-2.39969 -3.3382,-3.5761 -5.4375,-4.75 -1.9988,-1.11773 -4.26705,-1.68798 -6.53125,-2.03125 -2.4608,-0.37307 -5.02825,0.48811 -7.46875,0 -1.9229,-0.38457 -3.7643,-1.25876 -5.4375,-2.28125 -1.096,-0.66971 -2.3667,-1.34946 -2.9375,-2.5 -0.6378,-1.28545 -1.0639,-3.09942 -0.25,-4.28125 1.3934,-2.02329 4.62225,-1.79979 7.03125,-2.28125 3.392,-0.6779 6.91965,-1.33361 10.34375,-0.84375 3.7024,0.52967 7.44455,1.83076 10.46875,4.03125 2.0383,1.48306 3.0302,4.03222 4.75,5.875 0.9832,1.0534 1.75345,3.26648 3.15625,2.9375 2.9048,-0.6812 2.8421,-5.41141 3.1875,-8.375 0.2025,-1.73761 -0.9063,-3.45187 -0.6875,-5.1875 0.1524,-1.20889 0.8167,-2.3232 1.375,-3.40625 1.1502,-2.23151 3.4305,-3.91409 4.0625,-6.34375 0.3043,-1.17015 0.26445,-2.4854 -0.21875,-3.59375 -0.8314,-1.90723 -2.6092,-3.33642 -4.3125,-4.53125 -1.0783,-0.75642 -2.3402,-1.88396 -3.625,-1.59375 -1.4602,0.32984 -1.6983,2.56624 -2.9375,3.40625 -1.5202,1.03054 -3.3624,1.60716 -5.1875,1.8125 -2.7147,0.30544 -5.42605,-1.00075 -8.15625,-0.90625 -1.6855,0.0583 -3.40165,0.28302 -4.96875,0.90625 -3.5961,1.43017 -6.1917,4.79069 -9.75,6.3125 -2.4221,1.0359 -5.0627,1.58812 -7.6875,1.8125 -2.4844,0.21238 -5.01915,0.0282 -7.46875,-0.4375 -3.585,-0.68155 -7.01445,-2.06001 -10.40625,-3.40625 -2.0376,-0.80877 -4.0217,-1.74672 -5.9375,-2.8125 -1.5341,-0.85348 -2.9984,-1.8383 -4.4375,-2.84375 -1.383,-0.96622 -2.67615,-2.02621 -4.03125,-3.03125 -1.6437,-1.21914 -3.53255,-2.16712 -4.96875,-3.625 -1.1344,-1.15152 -2.42695,-2.39163 -2.78125,-3.96875 -0.2853,-1.27031 -0.19035,-2.85463 0.65625,-3.84375 1.9697,-2.30122 6.10475,-1.21127 8.59375,-2.9375 2.2457,-1.55746 6.38665,-3.87298 5.21875,-6.34375 -1.0636,-2.25016 -4.98135,0.0857 -7.46875,0 -4.3822,-0.15093 -8.8419,0.0322 -13.125,-0.90625 -4.5701,-1.00135 -9.0672,-2.64011 -13.125,-4.96875 -2.1863,-1.25461 -4.3041,-2.7787 -5.875,-4.75 -2.2493,-2.82257 -3.744,-6.28386 -4.75,-9.75 -0.7615,-2.62358 -0.75515,-5.39733 -0.90625,-8.125 -0.1335,-2.40977 -0.2499,-4.84951 0,-7.25 0.3033,-2.91306 0.7339,-5.87077 1.8125,-8.59375 0.7479,-1.88804 1.13445,-5.40938 3.15625,-5.21875 5.1324,0.48392 3.2889,9.8139 5.4375,14.5 1.5051,3.28293 2.9295,6.68139 5.1875,9.5 2.0716,2.5859 4.87545,4.50022 7.46875,6.5625 2.8341,2.25374 5.69425,4.55697 8.84375,6.34375 3.79,2.1502 7.77585,4.00152 11.96875,5.1875 2.4785,0.70102 6.07705,3.12849 7.65625,1.09375 2.3939,-3.08439 -2.80805,-7.27892 -4.46875,-10.8125 -1.9229,-4.09152 -4.48265,-7.88001 -6.34375,-12 -0.963,-2.13184 -1.9903,-4.27945 -2.5,-6.5625 -0.6428,-2.87921 -3.42215,-7.78651 -0.65625,-8.8125 4.2995,-1.59485 5.802,7.10864 8.125,11.0625 1.4704,2.5025 2.1272,5.45137 3.625,7.9375 3.8302,6.35732 8.48635,12.2711 13.59375,17.65625 4.785,5.04522 9.81575,10.09637 15.84375,13.5625 5.4169,3.11477 11.4894,5.36411 17.6875,6.15625 5.3016,0.67755 10.62065,1.64997 15.84375,0.84375 2.5299,-0.39052 6.4026,-0.46703 7.1875,-2.6875 1.0407,-2.94417 -4.42395,-4.42067 -6.78125,-6.46875 -3.342,-2.90364 -7.06905,-5.34097 -10.40625,-8.25 -3.4671,-3.02216 -6.91565,-6.09144 -9.96875,-9.53125 -2.7453,-3.09292 -5.10745,-6.5424 -7.46875,-9.9375 -1.7012,-2.44602 -3.25655,-4.97845 -4.84375,-7.5 -1.1215,-1.78179 -2.673,-3.36911 -3.3125,-5.375 -0.7116,-2.23222 -2.4285,-5.79638 -0.4375,-7.03125 3.7774,-2.34277 7.98895,4.00244 11.53125,6.6875 5.2022,3.9433 9.22725,9.2365 14.03125,13.65625 4.9995,4.59958 10.0383,9.17126 15.375,13.375 6.3294,4.9858 12.5513,10.29019 19.6875,14.03125 5.1134,2.68067 10.6441,4.77828 16.3125,5.875 6.224,1.20421 12.6731,1.08434 19,0.6875 5.1895,-0.32549 10.406,-0.96889 15.375,-2.5 4.0063,-1.23443 8.04325,-2.80969 11.40625,-5.3125 2.872,-2.13745 8.40575,-4.67625 7.15625,-8.03125 -0.6106,-1.63936 -3.47775,-0.5161 -5.21875,-0.6875 -5.6418,-0.55545 -11.39695,-0.0792 -16.96875,-1.125 -2.7196,-0.51045 -5.33225,-1.48477 -7.90625,-2.5 -3.7344,-1.47287 -7.3734,-3.22444 -10.875,-5.1875 -4.2335,-2.37336 -8.10965,-5.35476 -12.21875,-7.9375 -4.1157,-2.58685 -8.4262,-4.81652 -12.4375,-7.5625 -6.605,-4.52165 -13.4591,-8.87767 -19.0625,-14.59375 -3.2721,-3.33786 -6.7488,-6.90764 -8.3125,-11.3125 -1.0357,-2.91755 -3.1063,-7.71219 -0.4375,-9.28125 4.3647,-2.56607 8.7406,5.10852 12.875,8.03125 5.2817,3.7338 10.00255,8.18516 15.15625,12.09375 4.4325,3.36163 8.6613,7.11834 13.5625,9.75 6.0236,3.23434 12.4925,5.89475 19.1875,7.28125 6.0879,1.26079 12.4134,1.10505 18.625,0.84375 4.7012,-0.19776 9.4145,-0.75694 14,-1.8125 4.04,-0.93 8.12925,-1.97564 11.78125,-3.9375 3.216,-1.72764 6.0248,-4.18745 8.625,-6.75 2.7517,-2.71188 6.42215,-5.26455 7.28125,-9.03125 0.4612,-2.02237 0.36165,-4.97751 -1.40625,-6.0625 -1.7493,-1.07358 -4.0014,1.00135 -6,1.46875 -1.6683,0.39018 -3.2939,0.96704 -5,1.125 -3.0354,0.28104 -6.11445,-0.14351 -9.15625,-0.34375 -2.3439,-0.1543 -4.6925,-0.21673 -7,-0.65625 -5.9446,-1.13231 -11.7286,-3.02393 -17.4375,-5.03125 -4.7389,-1.66629 -9.30345,-3.80056 -13.90625,-5.8125 -3.5461,-1.55 -7.0866,-3.11094 -10.5625,-4.8125 -3.0403,-1.48835 -6.1388,-2.9097 -9,-4.71875 -3.5609,-2.25151 -7.34845,-4.39799 -10.09375,-7.59375 -2.423,-2.82054 -7.9143,-7.156 -5.3125,-9.8125 2.549,-2.60258 6.5419,3.24271 9.75,4.96875 3.9877,2.1455 7.6938,4.80565 11.8125,6.6875 3.7678,1.72153 7.73545,3.0193 11.71875,4.15625 7.1979,2.05443 14.4785,4.15404 21.9375,4.78125 4.9653,0.41753 9.9888,-0.10429 14.9375,-0.6875 3.5843,-0.42243 7.1915,-0.91872 10.625,-2.03125 4.9109,-1.5913 9.68145,-3.78238 14.03125,-6.5625 3.1571,-2.0178 5.90295,-4.64266 8.59375,-7.25 3.0816,-2.98604 6.11975,-6.08778 8.59375,-9.59375 1.913,-2.71094 5.3425,-5.48538 4.75,-8.75 -0.2673,-1.47299 -1.8987,-2.68895 -3.375,-2.9375 -4.4057,-0.74175 -8.1663,3.68969 -12.4375,5 -4.059,1.2452 -8.27295,2.06928 -12.46875,2.71875 -4.042,0.62567 -8.12855,1.118 -12.21875,1.125 -4.2403,0.007 -8.44875,-0.59855 -12.65625,-1.125 -3.9786,-0.4978 -7.9813,-0.98011 -11.875,-1.9375 -3.8233,-0.94009 -7.46545,-2.52938 -11.21875,-3.71875 -3.0025,-0.95147 -6.07525,-1.63113 -9.03125,-2.71875 -3.1693,-1.16617 -6.28115,-2.54309 -9.28125,-4.09375 -1.9534,-1.00965 -4.01215,-1.91487 -5.65625,-3.375 -2.2108,-1.96345 -6.9043,-4.46384 -5.4375,-7.03125 2.6775,-4.68682 10.7332,1.17452 16.0625,2.03125 3.1106,0.50006 6.14785,1.48434 9.28125,1.8125 9.3775,0.9821 18.86045,0.85798 28.28125,0.46875 5.9936,-0.24763 12.03805,-0.53664 17.90625,-1.78125 3.3298,-0.70623 6.60495,-1.81229 9.71875,-3.1875 1.2665,-0.55937 2.41925,-1.32932 3.59375,-2.0625 2.2538,-1.40696 4.4602,-2.87539 6.5625,-4.5 3.5842,-2.76972 7.4624,-5.38572 10.3125,-8.90625 2.9109,-3.59546 5.87985,-7.59581 6.65625,-12.15625 0.308,-1.80903 0.63615,-4.44334 -0.90625,-5.4375 -1.9683,-1.26864 -4.56855,1.04594 -6.78125,1.8125 -2.5148,0.87124 -4.8041,2.26661 -7.3125,3.15625 -2.6285,0.93224 -5.332,1.71349 -8.0625,2.28125 -4.3965,0.91418 -8.86335,1.51013 -13.34375,1.8125 -4.515,0.3047 -9.07345,0.21092 -13.59375,0 -10.5178,-0.49077 -20.9877,-1.64617 -31.4375,-2.9375 -3.938,-0.48665 -7.96185,-0.73673 -11.78125,-1.8125 -3.3841,-0.95316 -7.36295,-1.45273 -9.71875,-4.0625 -1.7426,-1.93047 -3.9064,-5.46389 -2.25,-7.46875 2.8982,-3.50768 9.0298,1.00841 13.5625,1.40625 6.7787,0.59498 13.5711,1.33104 20.375,1.4375 7.0187,0.10983 14.05985,0.008 21.03125,-0.8125 4.4322,-0.52158 8.8384,-1.35219 13.125,-2.59375 3.7241,-1.07866 7.47965,-2.25988 10.84375,-4.1875 3.7235,-2.13357 7.01755,-5.039 10.09375,-8.03125 2.7261,-2.65181 5.42825,-5.43319 7.34375,-8.71875 1.7428,-2.98937 3.0467,-6.30709 3.625,-9.71875 0.6177,-3.6444 0.70445,-7.51452 -0.21875,-11.09375 -0.4045,-1.56802 -0.71195,-3.91319 -2.28125,-4.3125 -1.0541,-0.26822 -1.87755,1.1229 -2.71875,1.8125 -1.5672,1.28482 -2.63725,3.12755 -4.28125,4.3125 -4.2412,3.05688 -9.24365,4.89978 -14.03125,7 -3.6943,1.6206 -7.4903,3.02207 -11.3125,4.3125 -2.0123,0.67938 -4.0748,1.25769 -6.125,1.8125 -3.9728,1.07516 -7.94025,2.09417 -11.96875,2.9375 -3.4467,0.72155 -6.91205,1.37528 -10.40625,1.8125 -3.903,0.48838 -7.85075,0.7553 -11.78125,0.90625 -4.5973,0.17656 -9.2261,0.36165 -13.8125,0 -3.615,-0.28505 -7.35065,-0.37501 -10.71875,-1.71875 -1.9133,-0.76338 -5.37325,-1.459 -5.09375,-3.5 0.4111,-3.00101 5.68025,-2.10865 8.59375,-2.9375 2.6044,-0.74094 5.27175,-1.18644 7.90625,-1.8125 5.8195,-1.38297 11.7237,-2.5116 17.4375,-4.28125 3.6933,-1.14387 7.33685,-2.46572 10.84375,-4.09375 3.9203,-1.81991 7.8664,-3.73517 11.3125,-6.34375 2.8065,-2.12437 5.41065,-4.58208 7.46875,-7.4375 1.6763,-2.32581 3.76475,-4.85284 3.84375,-7.71875 0.0675,-2.465 -0.5311,-6.24283 -2.9375,-6.78125 -2.451,-0.5484 -3.52135,3.6457 -5.65625,4.96875 -2.2854,1.41631 -4.95565,2.10686 -7.46875,3.0625 -2.0181,0.7674 -4.03085,1.51885 -6.09375,2.15625 -3.1646,0.97783 -6.3898,1.85198 -9.625,2.5625 -2.9634,0.65085 -5.98035,1.03849 -8.96875,1.5625 -1.9745,0.3462 -3.92725,0.71144 -5.90625,1.03125 -4.7222,0.76312 -9.4166,1.74697 -14.1875,2.09375 -3.6859,0.26791 -7.45125,0.62395 -11.09375,0 -1.3402,-0.22956 -3.24635,-0.15359 -3.84375,-1.375 -0.6287,-1.2855 0.57665,-2.85448 1.34375,-4.0625 1.1725,-1.84639 3.1405,-3.05027 4.75,-4.53125 1.3366,-1.22988 2.9399,-2.19706 4.0625,-3.625 1.6891,-2.14846 4.1034,-4.49541 3.875,-7.21875 -0.1034,-1.23266 -1.12625,-2.52606 -2.28125,-2.96875 -1.9339,-0.74116 -4.14005,0.46935 -6.09375,1.15625 -5.4117,1.90264 -9.75515,6.19227 -15.15625,8.125 -4.4147,1.57977 -9.375,1.20406 -13.8125,2.71875 -1.1172,0.38137 -2.11065,1.04586 -3.15625,1.59375 -2.362,1.23755 -4.69435,2.55937 -7.03125,3.84375 -1.9177,1.05407 -3.8675,2.04048 -5.75,3.15625 -2.6595,1.57623 -5.3864,3.08393 -7.8125,5 -2.6492,2.09228 -5.21945,4.35823 -7.28125,7.03125 -1.2074,1.56528 -2.44765,3.2646 -2.90625,5.1875 -0.3853,1.61565 -0.62645,3.53889 0.21875,4.96875 0.8096,1.36964 2.6472,1.74199 4.0625,2.46875 1.8941,0.97263 4.02485,1.50306 5.90625,2.5 1.3494,0.71505 2.67175,1.52089 3.84375,2.5 1.2694,1.0605 2.4663,2.24289 3.375,3.625 1.0392,1.5805 2.00515,3.31622 2.28125,5.1875 0.377,2.55433 -0.29295,5.17941 -0.90625,7.6875 -0.5557,2.27231 -1.4695,4.46247 -2.5,6.5625 -1.2081,2.46181 -2.74715,4.75828 -4.28125,7.03125 -1.4177,2.10052 -2.90015,4.15433 -4.53125,6.09375 -1.4079,1.67388 -2.86605,3.33191 -4.53125,4.75 -2.4368,2.07522 -5.12345,3.85619 -7.90625,5.4375 -2.8166,1.60051 -5.77035,3.03806 -8.84375,4.0625 -2.0489,0.68297 -4.20925,1.0458 -6.34375,1.375 -3.1448,0.48502 -6.3333,0.59482 -9.5,0.90625 -5.2056,0.51194 -10.64495,-0.13175 -15.59375,1.5625 -0.6732,0.23046 -1.281,0.68318 -1.8125,1.15625 -0.7214,0.64217 -1.4928,1.33859 -1.8125,2.25 -0.2247,0.64052 -0.2335,1.39388 0,2.03125 0.4418,1.206 1.4902,2.14387 2.5,2.9375 0.9282,0.72947 2.15745,0.96433 3.15625,1.59375 0.7275,0.45849 1.63215,0.83204 2.03125,1.59375 0.6311,1.20436 0.90115,2.88651 0.21875,4.0625 -1.1851,2.04209 -4.1023,2.32581 -6.3125,3.15625 -1.6781,0.63055 -3.44465,1.11729 -5.21875,1.375 -2.2403,0.32546 -4.52235,0.36786 -6.78125,0.21875 -1.8311,-0.12087 -3.6924,-0.33876 -5.4375,-0.90625 -2.2453,-0.73014 -4.42835,-1.77573 -6.34375,-3.15625 -1.2979,-0.93549 -2.2648,-2.25419 -3.375,-3.40625 -0.9998,-1.03756 -2.032,-2.03543 -2.9375,-3.15625 -0.5786,-0.71611 -1.46805,-1.36924 -1.59375,-2.28125 -0.2183,-1.58316 0.46875,-3.36494 1.59375,-4.5 1.4107,-1.42329 3.71875,-1.55091 5.65625,-2.0625 2.146,-0.5666 4.5009,-0.30304 6.5625,-1.125 1.0104,-0.40283 2.6345,-0.72607 2.6875,-1.8125 0.0523,-1.07065 -1.50705,-1.55779 -2.46875,-2.03125 -2.0845,-1.02623 -5.37225,0.25368 -6.78125,-1.59375 -1.19,-1.56036 0.37455,-3.91881 0.21875,-5.875 -0.0916,-1.15007 -0.8786,-2.23722 -0.6875,-3.375 0.42,-2.50028 2.46445,-4.43521 3.84375,-6.5625 1.4118,-2.17752 2.27735,-5.05732 4.53125,-6.34375 1.5123,-0.86313 3.47785,-0.49825 5.21875,-0.46875 2.5068,0.0425 4.97265,0.67193 7.46875,0.90625 3.3866,0.3179 6.78925,1.17036 10.15625,0.6875 2.3855,-0.34211 4.7816,-1.20273 6.8125,-2.5 0.809,-0.51673 1.85605,-1.08744 2.03125,-2.03125 0.1356,-0.73033 -0.28345,-1.62648 -0.90625,-2.03125 -0.6957,-0.45207 -1.6707,0.0218 -2.5,0 -1.4345,-0.0377 -2.86305,1.3e-4 -4.28125,-0.21875 -2.0791,-0.32088 -4.2799,-0.5833 -6.125,-1.59375 -1.2638,-0.69212 -2.18285,-1.87513 -3.15625,-2.9375 -0.581,-0.63403 -1.15405,-1.29224 -1.59375,-2.03125 -0.6735,-1.13195 -1.98725,-2.36798 -1.59375,-3.625 0.3439,-1.09868 1.8097,-1.5812 2.9375,-1.8125 2.0166,-0.41361 4.1961,0.18703 6.125,0.90625 0.9214,0.34356 1.65,1.09933 2.5,1.59375 1.2541,0.7294 2.51375,1.45188 3.84375,2.03125 1.6838,0.73347 3.4629,1.18107 5.1875,1.8125 1.9729,0.72231 3.8682,1.6282 5.875,2.25 1.5552,0.48185 3.1248,1.0283 4.75,1.125 1.9705,0.11725 4.08565,0.10657 5.90625,-0.65625 2.7702,-1.16071 7.3223,-2.66999 7,-5.65625 -0.0724,-0.67069 -1.1428,-0.82545 -1.8125,-0.90625 -1.6893,-0.20384 -3.26765,1.0852 -4.96875,1.125 -2.1446,0.0502 -4.33245,-0.37893 -6.34375,-1.125 -1.807,-0.67028 -3.34205,-1.90387 -4.96875,-2.9375 -1.695,-1.07704 -3.04975,-2.81429 -4.96875,-3.40625 -1.4414,-0.44463 -3.02415,-0.0627 -4.53125,0 -1.8148,0.0755 -3.6263,0.60539 -5.4375,0.46875 -1.6235,-0.12248 -3.5121,-0.0987 -4.75,-1.15625 -1.0543,-0.90063 -2.29655,-2.64847 -1.59375,-3.84375 0.6543,-1.11287 2.55505,-0.3619 3.84375,-0.4375 2.0329,-0.11917 4.089,0.0351 6.125,0 2.1882,-0.0377 4.6038,0.75748 6.5625,-0.21875 1.8238,-0.90899 2.14405,-3.65721 3.84375,-4.78125 1.3739,-0.90861 3.1615,-1.77967 4.75,-1.34375 1.8007,0.49417 2.84575,2.48424 3.84375,4.0625 0.7785,1.23113 0.81525,2.86262 1.59375,4.09375 0.998,1.57826 1.97885,4.1569 3.84375,4.0625 2.4708,-0.12506 3.47195,-3.63926 4.53125,-5.875 0.9948,-2.09965 1.7774,-4.46782 1.5625,-6.78125 -0.1906,-2.05113 -1.52215,-3.82666 -2.46875,-5.65625 -0.6063,-1.17177 -1.23215,-2.35653 -2.03125,-3.40625 -1.325,-1.74024 -2.89655,-3.2969 -4.53125,-4.75 -1.1274,-1.00213 -2.4854,-1.73043 -3.625,-2.71875 -0.8058,-0.69885 -1.5936,-1.40929 -2.25,-2.25 -1.0826,-1.38653 -2.04565,-2.90606 -2.71875,-4.53125 -0.5951,-1.43648 -0.63655,-3.06584 -1.15625,-4.53125 -0.4172,-1.17663 -0.6553,-2.54859 -1.5625,-3.40625 -0.5903,-0.55805 -1.55685,-0.53869 -2.28125,-0.90625 -1.269,-0.64391 -2.3722,-1.57504 -3.625,-2.25 -1.7529,-0.94443 -3.48585,-1.97404 -5.40625,-2.5 -1.3897,-0.38063 -2.8717,-0.4159 -4.3125,-0.4375 -3.0249,-0.0454 -6.07485,0.0453 -9.03125,0.6875 -2.9846,0.64842 -5.7429,2.14525 -8.625,3.15625 -1.5754,0.55262 -3.1495,1.1188 -4.75,1.59375 -1.7187,0.51 -3.3986,1.22655 -5.1875,1.34375 -3.6406,0.23848 -7.3003,-0.61419 -10.875,-1.34375 -1.076,-0.21959 -2.27375,-0.25274 -3.15625,-0.90625 -1.2273,-0.90881 -1.0124,-3.49851 -2.5,-3.84375 -0.8568,-0.19884 -1.8309,0.57048 -2.25,1.34375 -0.971,1.79153 -0.28605,4.15076 0.21875,6.125 0.2089,0.81695 0.5418,1.64094 1.125,2.25 1.074,1.12173 3.30615,0.91152 4.09375,2.25 0.306,0.52003 0.077,1.21411 0,1.8125 -0.1901,1.46953 -0.38085,3.04981 -1.15625,4.3125 -0.9506,1.54779 -2.741,2.37891 -4.0625,3.625 -1.2417,1.17075 -2.8288,2.11553 -3.625,3.625 -0.5728,1.08596 -0.0135,2.54772 -0.65625,3.59375 -1.4927,2.42907 -4.6244,3.3909 -6.8125,5.21875 -0.8604,0.71882 -1.64195,1.49264 -2.46875,2.25 -0.9839,0.90131 -2.9615,1.38465 -2.9375,2.71875 0.0256,1.39045 2.28255,1.63677 3.15625,2.71875 1.2933,1.60162 2.4318,3.44201 2.9375,5.4375 0.5003,1.97395 0.4505,4.10784 0,6.09375 -0.4253,1.87522 -1.5651,3.53844 -2.5,5.21875 -1.0883,1.95623 -2.65015,3.62623 -3.59375,5.65625 -0.9653,2.07672 -1.271,4.41353 -2.0625,6.5625 -0.3971,1.07798 -1.04155,2.04795 -1.34375,3.15625 -0.7801,2.86103 -0.8938,5.88729 -1.125,8.84375 -0.2063,2.63277 1.51335,5.91287 -0.21875,7.90625 -1.22291,1.40737 -4.04263,1.84531 -6.46875,1.9375 v -0.125 c 0,0 -0.88474,0.0873 -2.09375,0.125 -1.20901,-0.0377 -2.09375,-0.125 -2.09375,-0.125 v 0.125 c -2.42612,-0.0922 -5.2146,-0.53014 -6.4375,-1.9375 -1.73212,-1.99339 -0.0441,-5.27349 -0.25,-7.90625 -0.23118,-2.95646 -0.34488,-5.98272 -1.125,-8.84375 -0.3022,-1.10831 -0.9467,-2.07827 -1.34375,-3.15625 -0.79152,-2.14897 -1.06593,-4.48578 -2.03125,-6.5625 -0.94361,-2.03002 -2.53664,-3.70002 -3.625,-5.65625 -0.93485,-1.68031 -2.07465,-3.34353 -2.5,-5.21875 -0.45046,-1.98591 -0.50027,-4.1198 0,-6.09375 0.50573,-1.99549 1.6442,-3.83589 2.9375,-5.4375 0.87369,-1.08198 3.16192,-1.3283 3.1875,-2.71875 0.0245,-1.3341 -1.98485,-1.81744 -2.96875,-2.71875 -0.82675,-0.75736 -1.60828,-1.53118 -2.46875,-2.25 -2.18804,-1.82785 -5.28853,-2.78969 -6.78125,-5.21875 -0.64281,-1.04604 -0.1147,-2.50779 -0.6875,-3.59375 -0.79618,-1.50947 -2.38334,-2.45424 -3.625,-3.625 -1.32154,-1.24609 -3.11196,-2.0772 -4.0625,-3.625 -0.77544,-1.26268 -0.96613,-2.84297 -1.15625,-4.3125 -0.0774,-0.59838 -0.30598,-1.29248 0,-1.8125 0.78757,-1.33849 3.01972,-1.12826 4.09375,-2.25 0.58316,-0.60906 0.91611,-1.43305 1.125,-2.25 0.50481,-1.97424 1.18976,-4.33347 0.21875,-6.125 -0.41911,-0.77327 -1.39322,-1.54259 -2.25,-1.34375 -1.48762,0.34524 -1.2727,2.93494 -2.5,3.84375 -0.88252,0.65351 -2.08029,0.68666 -3.15625,0.90625 -3.57468,0.72956 -7.23444,1.58223 -10.875,1.34375 -1.7889,-0.11719 -3.46884,-0.83375 -5.1875,-1.34375 -1.60052,-0.47495 -3.17461,-1.04113 -4.75,-1.59375 -2.88213,-1.011 -5.60907,-2.50783 -8.59375,-3.15625 -2.95634,-0.64226 -6.03754,-0.7329 -9.0625,-0.6875 -1.44075,0.0216 -2.92277,0.0569 -4.3125,0.4375 -1.92044,0.52596 -3.65331,1.55557 -5.40625,2.5 -1.25278,0.67496 -2.35598,1.60609 -3.625,2.25 -0.72439,0.36756 -1.69097,0.3482 -2.28125,0.90625 -0.9072,0.85766 -1.14522,2.22962 -1.5625,3.40625 -0.51969,1.46541 -0.56124,3.09477 -1.15625,4.53125 -0.67318,1.62519 -1.60493,3.14472 -2.6875,4.53125 -0.65641,0.84071 -1.47547,1.55115 -2.28125,2.25 -1.13953,0.98832 -2.4976,1.71662 -3.625,2.71875 -1.63473,1.4531 -3.17509,3.00976 -4.5,4.75 -0.79919,1.04972 -1.45623,2.23448 -2.0625,3.40625 -0.94661,1.82959 -2.27819,3.60512 -2.46875,5.65625 -0.21493,2.31343 0.5677,4.6816 1.5625,6.78125 1.05928,2.23574 2.06043,5.74994 4.53125,5.875 1.86494,0.0944 2.84575,-2.48424 3.84375,-4.0625 0.7785,-1.23113 0.81525,-2.86262 1.59375,-4.09375 0.998,-1.57826 2.043,-3.56833 3.84375,-4.0625 1.58848,-0.43592 3.37605,0.43514 4.75,1.34375 1.6997,1.12404 2.01996,3.87226 3.84375,4.78125 1.9587,0.97623 4.37433,0.18103 6.5625,0.21875 2.03605,0.0351 4.09213,-0.11917 6.125,0 1.28878,0.0756 3.18939,-0.67537 3.84375,0.4375 0.70281,1.19528 -0.53947,2.94312 -1.59375,3.84375 -1.23791,1.0575 -3.12651,1.03377 -4.75,1.15625 -1.81122,0.13664 -3.6227,-0.39326 -5.4375,-0.46875 -1.50711,-0.0627 -3.08986,-0.44463 -4.53125,0 -1.91901,0.59196 -3.27376,2.32921 -4.96875,3.40625 -1.62667,1.03363 -3.16178,2.26722 -4.96875,2.9375 -2.01127,0.74607 -4.19915,1.17516 -6.34375,1.125 -1.70111,-0.0398 -3.27944,-1.32884 -4.96875,-1.125 -0.66972,0.0808 -1.74012,0.23556 -1.8125,0.90625 -0.32228,2.98626 4.22974,4.49554 7,5.65625 1.8206,0.76282 3.93578,0.7735 5.90625,0.65625 1.62523,-0.0967 3.19483,-0.64315 4.75,-1.125 2.00686,-0.6218 3.90209,-1.52769 5.875,-2.25 1.72466,-0.63142 3.50371,-1.07903 5.1875,-1.8125 1.33004,-0.57937 2.62095,-1.30184 3.875,-2.03125 0.85003,-0.49442 1.54735,-1.25019 2.46875,-1.59375 1.92886,-0.71922 4.10839,-1.31985 6.125,-0.90625 1.12777,0.2313 2.59358,0.71382 2.9375,1.8125 0.39348,1.25702 -0.92025,2.49305 -1.59375,3.625 -0.4397,0.73901 -1.01281,1.39722 -1.59375,2.03125 -0.97343,1.06238 -1.89244,2.24539 -3.15625,2.9375 -1.84512,1.01045 -4.01468,1.27287 -6.09375,1.59375 -1.41819,0.21888 -2.87802,0.18103 -4.3125,0.21875 -0.82934,0.0218 -1.80436,-0.45207 -2.5,0 -0.62284,0.40477 -1.04185,1.30092 -0.90625,2.03125 0.17525,0.94382 1.2535,1.51451 2.0625,2.03125 2.03097,1.29727 4.39573,2.15789 6.78125,2.5 3.36702,0.48286 6.80092,-0.3696 10.1875,-0.6875 2.49613,-0.23431 4.96201,-0.86377 7.46875,-0.90625 1.74097,-0.0295 3.67526,-0.39438 5.1875,0.46875 2.25389,1.28643 3.1194,4.16623 4.53125,6.34375 1.37928,2.12729 3.4238,4.06222 3.84375,6.5625 0.1911,1.13778 -0.5959,2.22493 -0.6875,3.375 -0.1558,1.9562 1.4088,4.31463 0.21875,5.875 -1.40897,1.84742 -4.69677,0.56753 -6.78125,1.59375 -0.9617,0.47346 -2.52111,0.9606 -2.46875,2.03125 0.0531,1.08643 1.67711,1.40967 2.6875,1.8125 2.06166,0.82195 4.41657,0.5584 6.5625,1.125 1.93757,0.51159 4.24553,0.6392 5.65625,2.0625 1.12503,1.13506 1.81205,2.91684 1.59375,4.5 -0.12576,0.912 -1.01519,1.56514 -1.59375,2.28125 -0.90553,1.12082 -1.93766,2.11869 -2.9375,3.15625 -1.11018,1.15206 -2.07708,2.47076 -3.375,3.40625 -1.91537,1.38052 -4.09844,2.42611 -6.34375,3.15625 -1.74511,0.56748 -3.60642,0.78538 -5.4375,0.90625 -2.25896,0.14911 -4.54088,0.10671 -6.78125,-0.21875 -1.77411,-0.25771 -3.50932,-0.74445 -5.1875,-1.375 -2.21018,-0.83044 -5.15868,-1.11416 -6.34375,-3.15625 -0.68245,-1.17599 -0.41228,-2.85814 0.21875,-4.0625 0.3991,-0.76171 1.30375,-1.13526 2.03125,-1.59375 0.99873,-0.62942 2.25933,-0.86428 3.1875,-1.59375 1.00982,-0.79363 2.02698,-1.7315 2.46875,-2.9375 0.23347,-0.63737 0.22468,-1.39073 0,-2.03125 -0.31971,-0.91141 -1.09105,-1.60783 -1.8125,-2.25 -0.53147,-0.47307 -1.13934,-0.92579 -1.8125,-1.15625 -4.94875,-1.69425 -10.38812,-1.05056 -15.59375,-1.5625 -3.16672,-0.31143 -6.35518,-0.42123 -9.5,-0.90625 -2.13449,-0.3292 -4.29486,-0.69203 -6.34375,-1.375 -3.07334,-1.02444 -5.9959,-2.46198 -8.8125,-4.0625 -2.78281,-1.58131 -5.50069,-3.36228 -7.9375,-5.4375 -1.66519,-1.41809 -3.12342,-3.07612 -4.53125,-4.75 -1.63117,-1.93942 -3.0823,-3.99323 -4.5,-6.09375 -1.5341,-2.27298 -3.10444,-4.56944 -4.3125,-7.03125 -1.03053,-2.10003 -1.94435,-4.29019 -2.5,-6.5625 -0.61331,-2.50809 -1.28318,-5.13317 -0.90625,-7.6875 0.27614,-1.87128 1.24205,-3.607 2.28125,-5.1875 0.90875,-1.38211 2.10559,-2.5645 3.375,-3.625 1.17198,-0.97911 2.49434,-1.78496 3.84375,-2.5 1.8814,-0.99694 4.01217,-1.52737 5.90625,-2.5 1.4153,-0.72677 3.25293,-1.09911 4.0625,-2.46875 0.84517,-1.42986 0.60406,-3.35309 0.21875,-4.96875 -0.45858,-1.9229 -1.69888,-3.62222 -2.90625,-5.1875 -2.06182,-2.67302 -4.632,-4.93897 -7.28125,-7.03125 -2.42612,-1.91606 -5.15303,-3.42376 -7.8125,-5 -1.88253,-1.11576 -3.83224,-2.10219 -5.75,-3.15625 -2.33682,-1.28438 -4.63805,-2.6062 -7,-3.84375 -1.04568,-0.54789 -2.07027,-1.21239 -3.1875,-1.59375 -4.43744,-1.5147 -9.36655,-1.13898 -13.78125,-2.71875 -5.40104,-1.93273 -9.77579,-6.22236 -15.1875,-8.125 -1.46531,-0.51517 -3.06154,-1.32204 -4.59375,-1.375 z"
       style="fill:#000000;fill-opacity:1;stroke:#000000;stroke-width:5;stroke-linecap:butt;stroke-linejoin:miter;stroke-miterlimit:4;stroke-dasharray:none;stroke-opacity:1"
       id="path3914" />
    <path
       id="path3920"
       d="m 297.12859,661.65708 c -0.0768,-0.69571 0.79165,-1.19129 1.35992,-1.59991 0.93268,-0.67066 2.05219,-1.2288 3.19983,-1.27993 1.11247,-0.0496 2.43092,0.15445 3.19983,0.95995 0.60732,0.63622 0.16495,1.81961 0.63997,2.55986 0.36885,0.5748 0.95545,1.05386 1.59991,1.27993 1.00648,0.35306 2.15582,0.21839 3.19983,0 1.82329,-0.38139 3.58118,-1.18977 5.11973,-2.23988 0.49835,-0.34014 0.74344,-1.00384 1.27993,-1.27993 2.30754,-1.1875 5.20822,-2.07192 7.67959,-1.27993 1.14916,0.36827 2.73187,1.36545 2.55986,2.55986 -0.1905,1.32281 -2.2875,1.40267 -3.51981,1.9199 -1.18224,0.49621 -2.50659,0.60276 -3.67981,1.11994 -0.76578,0.33757 -1.52278,0.73728 -2.15988,1.27993 -0.47564,0.40512 -0.7992,0.96058 -1.19994,1.43992 -0.69199,0.82772 -1.36806,1.66915 -2.07988,2.47987 -0.88406,1.00688 -1.41992,2.635 -2.71986,2.95984 -1.01454,0.25352 -2.04309,-0.53683 -2.95984,-1.03995 -0.83241,-0.45682 -1.49393,-1.1724 -2.23988,-1.7599 -0.5071,-0.39939 -1.04623,-0.76144 -1.51992,-1.19994 -0.69239,-0.64094 -1.26621,-1.39951 -1.9199,-2.07988 -0.52254,-0.54386 -1.03089,-1.1049 -1.59991,-1.59992 -1.33584,-1.1621 -4.04559,-1.43993 -4.23977,-3.19983 z"
       style="fill:#ffffff;fill-opacity:1;stroke:none" />
    <path
       id="path3922"
       d="m 301.93502,698.07622 c -0.29736,1.35223 1.16566,2.5437 2.03636,3.62019 0.53766,0.66473 1.19397,1.25073 1.92323,1.69696 1.14088,0.69811 2.70283,2.32338 3.73332,1.47071 0.95381,-0.78922 1.78032,-1.70027 1.79244,-2.81168 0.0236,-2.16815 -2.49176,-4.22425 -3.37627,-5.56002 -0.45041,-0.68019 -1.2207,-1.37286 -2.03636,-1.35757 -1.67432,0.0314 -3.71306,1.30588 -4.07272,2.94141 z"
       style="fill:#ffffff;fill-opacity:1;stroke:none;stroke-opacity:1" />
    <path
       id="path3924"
       d="m 333.31448,753.97947 c -6.86599,0 -12.43033,12.72385 -12.43033,28.40605 0,15.68221 5.56434,28.37671 12.43033,28.37671 0.51825,0 1.0305,-0.0941 1.53211,-0.23476 -2.46923,-6.74672 -4.04708,-16.84265 -4.04708,-28.14195 0,-11.29929 1.57785,-21.42457 4.04708,-28.17129 -0.50161,-0.14066 -1.01386,-0.23476 -1.53211,-0.23476 z"
       style="fill:#ffffff;fill-opacity:1;fill-rule:nonzero;stroke:none;stroke-width:5;stroke-miterlimit:4;stroke-dasharray:none;stroke-opacity:1" />
    <path
       id="path3947"
       d="m 237.67659,820.71026 c 0,0 -9.33463,9.99573 -14.48076,14.48077 -4.70785,4.10306 -9.75447,7.82334 -14.93331,11.31311 -7.57293,5.10302 -15.24581,10.18877 -23.53125,14.02825 -5.06385,2.34659 -15.83835,5.43029 -15.83835,5.43029"
       style="fill:none;stroke:#ffffff;stroke-width:3;stroke-linecap:round;stroke-linejoin:miter;stroke-miterlimit:4;stroke-dasharray:none;stroke-opacity:1" />
    <path
       id="path4058"
       d="m 275.2361,826.59308 c 0,0 -3.86945,10.89113 -6.78786,15.83834 -3.49538,5.92527 -7.95582,11.28121 -12.67068,16.29087 -3.44273,3.65798 -11.3131,9.95553 -11.3131,9.95553"
       style="fill:none;stroke:#ffffff;stroke-width:3;stroke-linecap:round;stroke-linejoin:miter;stroke-miterlimit:4;stroke-dasharray:none;stroke-opacity:1" />
    <path
       id="path4076"
       d="m 210.52514,788.58105 c 0,0 -5.57424,5.60712 -8.59795,8.14543 -4.45952,3.74364 -9.2012,7.15202 -14.02825,10.40806 -5.27592,3.55883 -10.64043,7.02755 -16.29087,9.95553 -6.41879,3.32613 -12.8998,6.83554 -19.91106,8.59796 -6.90051,1.73457 -21.26864,1.8101 -21.26864,1.8101"
       style="fill:none;stroke:#ffffff;stroke-width:3;stroke-linecap:round;stroke-linejoin:miter;stroke-miterlimit:4;stroke-dasharray:none;stroke-opacity:1" />
    <path
       id="path4141"
       d="m 312.7956,825.2355 c 0,0 -3.33047,9.64686 -5.88281,14.02825 -2.11101,3.62379 -7.69291,9.95554 -7.69291,9.95554"
       style="fill:none;stroke:#ffffff;stroke-width:3;stroke-linecap:round;stroke-linejoin:miter;stroke-miterlimit:4;stroke-dasharray:none;stroke-opacity:1" />
    <path
       id="path4175"
       d="m 190.16156,760.97707 c 0,0 -11.26173,6.73263 -17.19592,9.50301 -6.44719,3.00988 -13.00913,5.964 -19.91106,7.69291 -8.40293,2.1049 -17.14749,2.63874 -25.79388,3.16767 -6.47408,0.39604 -19.45854,0 -19.45854,0"
       style="fill:none;stroke:#ffffff;stroke-width:3;stroke-linecap:round;stroke-linejoin:miter;stroke-miterlimit:4;stroke-dasharray:none;stroke-opacity:1" />
    <path
       id="path4189"
       d="m 183.82622,724.77514 c 0,0 -11.85129,5.45957 -18.10097,7.24039 -7.51273,2.14073 -15.289,3.48627 -23.07873,4.07272 -6.16888,0.46443 -12.39938,0.17812 -18.55349,-0.45253 -6.71068,-0.68768 -19.91103,-3.62019 -19.91103,-3.62019"
       style="fill:none;stroke:#ffffff;stroke-width:3;stroke-linecap:round;stroke-linejoin:miter;stroke-miterlimit:4;stroke-dasharray:none;stroke-opacity:1" />
    <path
       id="path4211"
       d="m 183.82622,694.0035 c 0,0 -21.42258,1.87839 -32.12922,1.35757 -8.67197,-0.42184 -17.30419,-1.80182 -25.79387,-3.62019 -4.76118,-1.01978 -14.02825,-4.07272 -14.02825,-4.07272"
       style="fill:none;stroke:#ffffff;stroke-width:3;stroke-linecap:round;stroke-linejoin:miter;stroke-miterlimit:4;stroke-dasharray:none;stroke-opacity:1" />
    <path
       id="path4225"
       d="m 195.13932,664.58943 c 0,0 -15.44621,0.10318 -23.07873,-0.90505 -6.74766,-0.89134 -19.91106,-4.52524 -19.91106,-4.52524"
       style="fill:none;stroke:#ffffff;stroke-width:3;stroke-linecap:round;stroke-linejoin:miter;stroke-miterlimit:4;stroke-dasharray:none;stroke-opacity:1" />
    <path
       id="path4247"
       d="m 308.24798,887.40502 c 0,0 0.52809,-0.15472 0.79997,-0.15999 1.34996,-0.0262 2.80878,0.004 3.99978,0.63996 0.89873,0.47999 1.51871,1.38947 2.07989,2.23988 0.57859,0.87679 0.94262,1.88499 1.27993,2.87985 0.44026,1.29852 0.56881,2.68564 0.95995,3.99979 0.22616,0.75987 0.79996,2.23988 0.79996,2.23988"
       style="fill:none;stroke:#ffffff;stroke-width:5;stroke-linecap:round;stroke-linejoin:miter;stroke-miterlimit:4;stroke-dasharray:none;stroke-opacity:1" />
    <path
       transform="matrix(-1,0,0,1,-753.2212,856.94163)"
       id="path3920-9"
       d="m -1197.4264,-195.28455 c -0.077,-0.69571 0.7917,-1.19129 1.3599,-1.59991 0.9327,-0.67066 2.0522,-1.2288 3.1999,-1.27993 1.1124,-0.0496 2.4309,0.15445 3.1998,0.95995 0.6073,0.63622 0.165,1.81961 0.64,2.55986 0.3688,0.5748 0.9554,1.05386 1.5999,1.27993 1.0065,0.35306 2.1558,0.21839 3.1998,0 1.8233,-0.38139 3.5812,-1.18977 5.1197,-2.23988 0.4984,-0.34014 0.7435,-1.00384 1.28,-1.27993 2.3075,-1.1875 5.2082,-2.07192 7.6796,-1.27993 1.1491,0.36827 2.7318,1.36545 2.5598,2.55986 -0.1905,1.32281 -2.2875,1.40267 -3.5198,1.9199 -1.1822,0.49621 -2.5066,0.60276 -3.6798,1.11994 -0.7658,0.33757 -1.5228,0.73728 -2.1599,1.27993 -0.4756,0.40512 -0.7992,0.96058 -1.1999,1.43992 -0.692,0.82772 -1.3681,1.66915 -2.0799,2.47987 -0.8841,1.00688 -1.4199,2.635 -2.7199,2.95984 -1.0145,0.25352 -2.043,-0.53683 -2.9598,-1.03995 -0.8324,-0.45682 -1.4939,-1.1724 -2.2399,-1.7599 -0.5071,-0.39939 -1.0462,-0.76144 -1.5199,-1.19994 -0.6924,-0.64094 -1.2662,-1.39951 -1.9199,-2.07988 -0.5225,-0.54386 -1.0309,-1.1049 -1.5999,-1.59992 -1.3358,-1.1621 -4.0456,-1.43993 -4.2398,-3.19983 z"
       style="fill:#ffffff;fill-opacity:1;stroke:none" />
    <path
       transform="matrix(-1,0,0,1,-753.2212,856.94163)"
       id="path3922-2"
       d="m -1192.6199,-158.86541 c -0.2974,1.35223 1.1656,2.5437 2.0363,3.62019 0.5377,0.66473 1.194,1.25073 1.9232,1.69696 1.1409,0.69811 2.7029,2.32338 3.7334,1.47071 0.9538,-0.78922 1.7803,-1.70027 1.7924,-2.81168 0.024,-2.16815 -2.4918,-4.22425 -3.3763,-5.56002 -0.4504,-0.68019 -1.2207,-1.37286 -2.0363,-1.35757 -1.6743,0.0314 -3.7131,1.30588 -4.0727,2.94141 z"
       style="fill:#ffffff;fill-opacity:1;stroke:none;stroke-opacity:1" />
    <path
       transform="matrix(-1,0,0,1,-753.2212,856.94163)"
       id="path3924-7"
       d="m -1161.2405,-102.96217 c -6.866,0 -12.4303,12.723855 -12.4303,28.406055 0,15.68221 5.5643,28.37671 12.4303,28.37671 0.5183,0 1.0305,-0.0941 1.5321,-0.23476 -2.4692,-6.74672 -4.0471,-16.84265 -4.0471,-28.14195 0,-11.29929 1.5779,-21.42457 4.0471,-28.171295 -0.5016,-0.14066 -1.0138,-0.23476 -1.5321,-0.23476 z"
       style="fill:#ffffff;fill-opacity:1;fill-rule:nonzero;stroke:none;stroke-width:5;stroke-miterlimit:4;stroke-dasharray:none;stroke-opacity:1" />
    <path
       transform="matrix(-1,0,0,1,-753.2212,856.94163)"
       id="path3947-9"
       d="m -1256.8784,-36.231375 c 0,0 -9.3346,9.99573 -14.4807,14.48077 -4.7079,4.10306 -9.7545,7.82334 -14.9333,11.31311 -7.573,5.1030199 -15.2459,10.18876994 -23.5313,14.0282499 -5.0638,2.34659 -15.8383,5.43029 -15.8383,5.43029"
       style="fill:none;stroke:#ffffff;stroke-width:3;stroke-linecap:round;stroke-linejoin:miter;stroke-miterlimit:4;stroke-dasharray:none;stroke-opacity:1" />
    <path
       transform="matrix(-1,0,0,1,-753.2212,856.94163)"
       id="path4058-5"
       d="m -1219.3189,-30.348555 c 0,0 -3.8694,10.89113 -6.7878,15.83834 -3.4954,5.9252699 -7.9558,11.2812099 -12.6707,16.2908699 -3.4427,3.65798 -11.3131,9.9555301 -11.3131,9.9555301"
       style="fill:none;stroke:#ffffff;stroke-width:3;stroke-linecap:round;stroke-linejoin:miter;stroke-miterlimit:4;stroke-dasharray:none;stroke-opacity:1" />
    <path
       transform="matrix(-1,0,0,1,-753.2212,856.94163)"
       id="path4076-4"
       d="m -1284.0298,-68.360585 c 0,0 -5.5743,5.60712 -8.598,8.14543 -4.4595,3.74364 -9.2012,7.15202 -14.0282,10.40806 -5.2759,3.55883 -10.6405,7.02755 -16.2909,9.95553 -6.4188,3.32613 -12.8998,6.83554 -19.9111,8.59796 -6.9005,1.73457 -21.2686,1.8101 -21.2686,1.8101"
       style="fill:none;stroke:#ffffff;stroke-width:3;stroke-linecap:round;stroke-linejoin:miter;stroke-miterlimit:4;stroke-dasharray:none;stroke-opacity:1" />
    <path
       transform="matrix(-1,0,0,1,-753.2212,856.94163)"
       id="path4141-1"
       d="m -1181.7594,-31.706135 c 0,0 -3.3304,9.64686 -5.8828,14.02825 -2.111,3.62379 -7.6929,9.9555399 -7.6929,9.9555399"
       style="fill:none;stroke:#ffffff;stroke-width:3;stroke-linecap:round;stroke-linejoin:miter;stroke-miterlimit:4;stroke-dasharray:none;stroke-opacity:1" />
    <path
       transform="matrix(-1,0,0,1,-753.2212,856.94163)"
       id="path4175-2"
       d="m -1304.3934,-95.964565 c 0,0 -11.2617,6.73263 -17.1959,9.50301 -6.4472,3.00988 -13.0092,5.964 -19.9111,7.69291 -8.4029,2.1049 -17.1475,2.63874 -25.7939,3.16767 -6.474,0.39604 -19.4585,0 -19.4585,0"
       style="fill:none;stroke:#ffffff;stroke-width:3;stroke-linecap:round;stroke-linejoin:miter;stroke-miterlimit:4;stroke-dasharray:none;stroke-opacity:1" />
    <path
       transform="matrix(-1,0,0,1,-753.2212,856.94163)"
       id="path4189-3"
       d="m -1310.7287,-132.16649 c 0,0 -11.8513,5.45956 -18.101,7.24038 -7.5127,2.14073 -15.289,3.48627 -23.0787,4.07272 -6.1689,0.46443 -12.3994,0.17812 -18.5535,-0.45253 -6.7107,-0.68768 -19.9111,-3.62019 -19.9111,-3.62019"
       style="fill:none;stroke:#ffffff;stroke-width:3;stroke-linecap:round;stroke-linejoin:miter;stroke-miterlimit:4;stroke-dasharray:none;stroke-opacity:1" />
    <path
       transform="matrix(-1,0,0,1,-753.2212,856.94163)"
       id="path4211-3"
       d="m -1310.7287,-162.93813 c 0,0 -21.4226,1.87839 -32.1293,1.35757 -8.6719,-0.42184 -17.3042,-1.80182 -25.7938,-3.62019 -4.7612,-1.01978 -14.0283,-4.07272 -14.0283,-4.07272"
       style="fill:none;stroke:#ffffff;stroke-width:3;stroke-linecap:round;stroke-linejoin:miter;stroke-miterlimit:4;stroke-dasharray:none;stroke-opacity:1" />
    <path
       transform="matrix(-1,0,0,1,-753.2212,856.94163)"
       id="path4225-4"
       d="m -1299.4156,-192.3522 c 0,0 -15.4463,0.10318 -23.0788,-0.90505 -6.7476,-0.89134 -19.911,-4.52524 -19.911,-4.52524"
       style="fill:none;stroke:#ffffff;stroke-width:3;stroke-linecap:round;stroke-linejoin:miter;stroke-miterlimit:4;stroke-dasharray:none;stroke-opacity:1" />
    <path
       transform="matrix(-1,0,0,1,-753.2212,856.94163)"
       id="path4247-1"
       d="m -1186.307,30.463385 c 0,0 0.5281,-0.15472 0.8,-0.15999 1.3499,-0.0262 2.8088,0.004 3.9998,0.63996 0.8987,0.47999 1.5187,1.38947 2.0799,2.23988 0.5785,0.87679 0.9426,1.88499 1.2799,2.87985 0.4402,1.29852 0.5688,2.68564 0.9599,3.99979 0.2262,0.75987 0.8,2.23988 0.8,2.23988"
       style="fill:none;stroke:#ffffff;stroke-width:5;stroke-linecap:round;stroke-linejoin:miter;stroke-miterlimit:4;stroke-dasharray:none;stroke-opacity:1" />
    <ellipse
       transform="translate(1102.8495,103.66848)"
       id="path5762"
       style="fill:none;stroke:#ffffff;stroke-width:5;stroke-linecap:round;stroke-linejoin:round;stroke-miterlimit:4;stroke-dasharray:none;stroke-dashoffset:0;stroke-opacity:1"
       cx="-732.18408"
       cy="848.72632"
       rx="0.90504831"
       ry="38.917076" />
    <path
       id="path6021"
       d="m 201.02214,674.54496 c 0,0 -3.1672,14.39489 -3.6202,21.72116 -0.44722,7.23286 0.30427,14.49944 0.90505,21.72116 0.80657,9.69549 1.21939,19.53345 3.6202,28.96155 2.23957,8.79492 6.15449,17.10009 9.95553,25.34135 2.14796,4.65713 4.01855,9.58543 7.24038,13.57572 6.45481,7.99437 14.4078,15.18487 23.53126,19.91107 7.47171,3.87055 16.08917,5.27089 24.4363,6.33533 8.08,1.03037 16.29087,0 24.43631,0 4.82692,0 14.48077,0 14.48077,0"
       style="fill:none;stroke:#ffffff;stroke-width:5;stroke-linecap:round;stroke-linejoin:miter;stroke-miterlimit:4;stroke-dasharray:none;stroke-opacity:1" />
    <path
       transform="matrix(-1,0,0,1,-220.2052,39.396505)"
       id="path6021-2"
       d="m -759.07294,635.14846 c 0,0 -3.1672,14.39489 -3.6202,21.72116 -0.44722,7.23286 0.30427,14.49944 0.90505,21.72116 0.80657,9.69549 1.21939,19.53345 3.6202,28.96155 2.23957,8.79492 6.15449,17.10008 9.95553,25.34134 2.14796,4.65713 4.01855,9.58543 7.24038,13.57572 6.45481,7.99437 14.4078,15.18487 23.53126,19.91107 7.47171,3.87055 16.08917,5.27089 24.4363,6.33533 8.08,1.03037 16.29087,0 24.43631,0 4.82692,0 14.48077,0 14.48077,0"
       style="fill:none;stroke:#ffffff;stroke-width:5;stroke-linecap:round;stroke-linejoin:miter;stroke-miterlimit:4;stroke-dasharray:none;stroke-opacity:1" />
    <path
       id="path6163"
       d="m 213.01506,903.47587 c -1.7703,0.82161 -3.91892,1.0034 -5.57329,1.9883 -2.57367,1.5322 -5.11314,3.44699 -6.42569,5.89416 -1.20043,2.23818 -1.43684,4.92031 -0.95708,7.35115 0.5003,2.53501 2.37867,4.72984 3.88281,6.95051 1.36367,2.0133 4.63596,5.73998 4.63596,5.73998 0,0 -1.54048,-7.61222 0.0217,-11.03539 0.66288,-1.45262 2.07136,-2.74128 3.69467,-3.43337 2.37712,-1.0135 6.23229,1.10788 7.91971,-0.6556 0.56251,-0.58783 -0.16902,-1.51693 -0.25353,-2.27541 -0.21128,-1.89617 -0.42257,-3.79234 -0.63385,-5.68852 -0.17471,-1.56799 0.57296,-3.44419 -0.52414,-4.70396 -0.55935,-0.64231 -1.66693,-0.84688 -2.59725,-0.89079 -1.10147,-0.0519 -2.56458,-0.0242 -3.19001,0.7589 0,10e-6 1e-5,4e-5 1e-5,4e-5 z"
       style="fill:#da121a;fill-opacity:1;stroke:#ff0000;stroke-width:1px;stroke-linecap:butt;stroke-linejoin:miter;stroke-opacity:1" />
    <path
       id="path6163-7"
       d="m 230.13055,934.97934 c -1.24787,1.22726 -2.97335,1.90594 -4.08329,3.26872 -1.72673,2.12006 -3.32621,4.61263 -3.7758,7.35033 -0.41111,2.50386 0.0879,5.22583 1.11267,7.53196 1.0687,2.40493 3.18625,4.15226 5.00179,6.01199 1.64595,1.68606 5.30975,4.6337 5.30975,4.6337 0,0 -3.24055,-7.21283 -2.83767,-10.97891 0.17103,-1.59814 0.99945,-3.20598 2.15952,-4.27038 1.69882,-1.5587 5.42813,-0.34249 6.36387,-2.48717 0.312,-0.71492 -0.53193,-1.46933 -0.79794,-2.20399 -0.66498,-1.83663 -1.32988,-3.67329 -1.99486,-5.50993 -0.54989,-1.51876 -0.41858,-3.55777 -1.64967,-4.55626 -0.62764,-0.50912 -1.59429,-0.45589 -2.37309,-0.28398 -0.92212,0.20389 -2.12198,0.57016 -2.43529,1.49388 0,1e-5 1e-5,4e-5 1e-5,4e-5 z"
       style="fill:#da121a;fill-opacity:1;stroke:#ff0000;stroke-width:1px;stroke-linecap:butt;stroke-linejoin:miter;stroke-opacity:1" />
    <path
       id="path6163-79"
       d="m 252.12172,959.44897 c -0.25062,1.73517 -1.2464,3.35427 -1.29649,5.10547 -0.0779,2.72428 0.18708,5.65302 1.56022,8.03705 1.25587,2.18043 3.40424,3.94825 5.7228,5.06248 2.41785,1.16202 5.28474,1.15209 7.97331,1.42067 2.4374,0.24354 7.34957,0.16835 7.34957,0.16835 0,0 -7.28081,-3.46255 -9.34821,-6.60487 -0.87737,-1.33344 -1.21693,-3.09298 -0.93471,-4.64765 0.41266,-2.27638 4.27524,-3.71991 3.68266,-5.95929 -0.19753,-0.74645 -1.37712,-0.78698 -2.06563,-1.18045 -1.72137,-0.98375 -3.44266,-1.9675 -5.16412,-2.95121 -1.42331,-0.8135 -2.61449,-2.45949 -4.2702,-2.44044 -0.84418,0.01 -1.61039,0.66619 -2.14563,1.29404 -0.63356,0.74332 -1.39313,1.7885 -1.06357,2.69582 0,10e-6 0,3e-5 0,3e-5 z"
       style="fill:#da121a;fill-opacity:1;stroke:#ff0000;stroke-width:1px;stroke-linecap:butt;stroke-linejoin:miter;stroke-opacity:1" />
    <path
       id="path6163-3"
       d="m 319.30778,926.03494 c 0.95483,1.36181 2.43801,2.29554 3.24395,3.75964 1.25378,2.27767 2.33066,4.88045 2.30758,7.5111 -0.0211,2.406 -0.91665,4.85654 -2.23075,6.82766 -1.37043,2.0556 -3.60314,3.31515 -5.57531,4.73221 -1.78792,1.28471 -5.639,3.3935 -5.639,3.3935 0,0 4.14268,-6.15889 4.37325,-9.74017 0.0979,-1.5197 -0.40927,-3.16318 -1.30917,-4.35786 -1.31786,-1.74947 -4.95246,-1.26623 -5.47267,-3.42887 -0.17345,-0.7209 0.72567,-1.27698 1.08846,-1.91548 0.90711,-1.59623 1.81421,-3.19246 2.72131,-4.78869 0.75008,-1.31995 0.95507,-3.24375 2.25031,-3.95986 0.66034,-0.36513 1.54358,-0.14687 2.23451,0.14926 0.81807,0.35064 1.86623,0.90172 2.00753,1.81753 0,1e-5 0,3e-5 0,3e-5 z"
       style="fill:#da121a;fill-opacity:1;stroke:#ff0000;stroke-width:1px;stroke-linecap:butt;stroke-linejoin:miter;stroke-opacity:1" />
    <path
       id="path6163-9"
       d="m 527.99814,902.94734 c 1.7703,0.82161 3.91892,1.0034 5.57329,1.9883 2.57367,1.5322 5.11314,3.44699 6.42569,5.89416 1.20043,2.23818 1.43684,4.92031 0.95708,7.35115 -0.5003,2.53501 -2.37867,4.72984 -3.88281,6.95051 -1.36367,2.0133 -4.63596,5.73998 -4.63596,5.73998 0,0 1.54048,-7.61222 -0.0217,-11.03539 -0.66288,-1.45262 -2.07136,-2.74128 -3.69467,-3.43337 -2.37712,-1.0135 -6.23229,1.10788 -7.91971,-0.6556 -0.56251,-0.58783 0.16902,-1.51693 0.25353,-2.27541 0.21128,-1.89617 0.42257,-3.79234 0.63385,-5.68852 0.17471,-1.56799 -0.57296,-3.44419 0.52414,-4.70396 0.55935,-0.64231 1.66693,-0.84688 2.59725,-0.89079 1.10147,-0.0519 2.56458,-0.0242 3.19001,0.7589 0,10e-6 -10e-6,4e-5 -10e-6,4e-5 z"
       style="fill:#da121a;fill-opacity:1;stroke:#ff0000;stroke-width:1px;stroke-linecap:butt;stroke-linejoin:miter;stroke-opacity:1" />
    <path
       id="path6163-7-8"
       d="m 510.88265,934.45081 c 1.24787,1.22726 2.97335,1.90594 4.08329,3.26872 1.72673,2.12006 3.32621,4.61263 3.7758,7.35033 0.41111,2.50386 -0.0879,5.22583 -1.11267,7.53196 -1.0687,2.40493 -3.18625,4.15226 -5.00179,6.01199 -1.64595,1.68606 -5.30975,4.6337 -5.30975,4.6337 0,0 3.24055,-7.21283 2.83767,-10.97891 -0.17103,-1.59814 -0.99945,-3.20598 -2.15952,-4.27038 -1.69882,-1.5587 -5.42813,-0.34249 -6.36387,-2.48717 -0.312,-0.71492 0.53193,-1.46933 0.79794,-2.20399 0.66498,-1.83663 1.32988,-3.67329 1.99486,-5.50993 0.54989,-1.51876 0.41858,-3.55777 1.64967,-4.55626 0.62764,-0.50912 1.59429,-0.45589 2.37309,-0.28398 0.92212,0.20389 2.12198,0.57016 2.43529,1.49388 0,10e-6 -10e-6,4e-5 -10e-6,4e-5 z"
       style="fill:#da121a;fill-opacity:1;stroke:#ff0000;stroke-width:1px;stroke-linecap:butt;stroke-linejoin:miter;stroke-opacity:1" />
    <path
       id="path6163-79-6"
       d="m 488.89148,958.92044 c 0.25062,1.73517 1.2464,3.35427 1.29649,5.10547 0.0779,2.72428 -0.18708,5.65302 -1.56022,8.03705 -1.25587,2.18043 -3.40424,3.94825 -5.7228,5.06248 -2.41785,1.16202 -5.28474,1.15209 -7.97331,1.42067 -2.4374,0.24354 -7.34957,0.16835 -7.34957,0.16835 0,0 7.28081,-3.46255 9.34821,-6.60487 0.87737,-1.33344 1.21693,-3.09298 0.93471,-4.64765 -0.41266,-2.27638 -4.27524,-3.71991 -3.68266,-5.95929 0.19753,-0.74645 1.37712,-0.78698 2.06563,-1.18045 1.72137,-0.98375 3.44266,-1.9675 5.16412,-2.95121 1.42331,-0.8135 2.61449,-2.45949 4.2702,-2.44044 0.84418,0.01 1.61039,0.66619 2.14563,1.29404 0.63356,0.74332 1.39313,1.7885 1.06357,2.69582 0,1e-5 0,3e-5 0,3e-5 z"
       style="fill:#da121a;fill-opacity:1;stroke:#ff0000;stroke-width:1px;stroke-linecap:butt;stroke-linejoin:miter;stroke-opacity:1" />
    <path
       id="path6163-3-5"
       d="m 421.70542,925.50641 c -0.95483,1.36181 -2.43801,2.29554 -3.24395,3.75964 -1.25378,2.27767 -2.33066,4.88045 -2.30758,7.5111 0.0211,2.406 0.91665,4.85654 2.23075,6.82766 1.37043,2.0556 3.60314,3.31515 5.57531,4.73221 1.78792,1.28471 5.639,3.3935 5.639,3.3935 0,0 -4.14268,-6.15889 -4.37325,-9.74017 -0.0979,-1.5197 0.40927,-3.16318 1.30917,-4.35786 1.31786,-1.74947 4.95246,-1.26623 5.47267,-3.42887 0.17345,-0.7209 -0.72567,-1.27698 -1.08846,-1.91548 -0.90711,-1.59623 -1.81421,-3.19246 -2.72131,-4.78869 -0.75008,-1.31995 -0.95507,-3.24375 -2.25031,-3.95986 -0.66034,-0.36513 -1.54358,-0.14687 -2.23451,0.14926 -0.81807,0.35064 -1.86623,0.90172 -2.00753,1.81753 0,10e-6 0,3e-5 0,3e-5 z"
       style="fill:#da121a;fill-opacity:1;stroke:#ff0000;stroke-width:1px;stroke-linecap:butt;stroke-linejoin:miter;stroke-opacity:1" />
    <ellipse
       transform="matrix(1.5106218,0,0,0.82325877,-187.48809,180.74603)"
       id="path6407"
       style="fill:#000000;fill-opacity:1;fill-rule:nonzero;stroke:#000000;stroke-width:0.66829967;stroke-opacity:1"
       cx="369.48593"
       cy="1005.4186"
       rx="2.5983541"
       ry="1.5590124" />
    <g
       transform="translate(1.556977)"
       id="g10694">
      <path
         style="fill:#ffffff;fill-opacity:1;stroke:none"
         d="m 275.66259,659.66005 c 0.0902,2.74063 2.54682,3.93838 3.77683,5.96814 1.833,3.02478 3.82518,5.87968 5.36709,9.25061 0.72147,1.57727 0.70996,4.05469 1.78903,5.07292 1.45963,1.37733 3.45126,0.53131 5.16831,0.2984 0.6084,-0.0825 1.54785,0.24575 1.78903,-0.59682 0.45761,-1.59865 -1.20564,-2.97257 -1.78903,-4.4761 -0.8811,-2.2708 -1.55997,-4.73211 -2.58416,-6.86336 -1.09783,-2.28451 -2.49942,-4.20311 -3.77682,-6.26654 -1.37189,-2.21601 -2.44954,-5.00056 -4.17442,-6.56495 -0.82575,-0.74893 -1.86585,-1.64333 -2.78292,-1.19362 -1.4363,0.7043 -2.85749,3.10584 -2.78294,5.37132 z"
         id="path3916" />
      <path
         style="fill:#ffffff;fill-opacity:1;stroke:none"
         d="m 462.8306,659.66005 c -0.0902,2.74063 -2.54682,3.93838 -3.77683,5.96814 -1.833,3.02478 -3.82518,5.87968 -5.36709,9.25061 -0.72147,1.57727 -0.70996,4.05469 -1.78903,5.07292 -1.45963,1.37733 -3.45126,0.53131 -5.16831,0.2984 -0.6084,-0.0825 -1.54785,0.24575 -1.78903,-0.59682 -0.45761,-1.59865 1.20564,-2.97257 1.78903,-4.4761 0.8811,-2.2708 1.55997,-4.73211 2.58416,-6.86336 1.09783,-2.28451 2.49942,-4.20311 3.77682,-6.26654 1.37189,-2.21601 2.44954,-5.00056 4.17442,-6.56495 0.82575,-0.74893 1.86585,-1.64333 2.78292,-1.19362 1.4363,0.7043 2.85749,3.10584 2.78294,5.37132 z"
         id="path3916-7" />
    </g>
  </g>
  <g
     aria-label="FREIWILLIGE FEUERWEHR  "
     transform="matrix(1.1295765,0,0,1,9.6875713,0)"
     style="font-style:normal;font-variant:normal;font-weight:normal;font-stretch:normal;line-height:0.01%;font-family:'Nirmala UI';-inkscape-font-specification:'Nirmala UI';text-align:center;letter-spacing:-0.70999998px;word-spacing:-1.55999994px;text-anchor:middle;fill:#ffffff;fill-opacity:1;stroke:none;stroke-width:1px;stroke-linecap:butt;stroke-linejoin:miter;stroke-opacity:1"
     id="flowRoot4250">
    <path
       d="M 10.073015,21.969808 V 11.805807 h 4.561333 v 1.129334 h -3.241333 v 3.197333 h 2.874667 v 1.1 h -2.874667 v 4.737334 z"
       style="font-style:normal;font-variant:normal;font-weight:normal;font-stretch:normal;font-size:14.66666698px;line-height:95.99999785%;font-family:'Ubuntu Condensed';-inkscape-font-specification:'Ubuntu Condensed, ';text-align:center;letter-spacing:-0.70999998px;word-spacing:-1.58000004px;text-anchor:middle"
       id="path3806" />
    <path
       d="m 15.607807,11.952474 q 1.026666,-0.249333 1.98,-0.249333 0.762666,0 1.378666,0.176 0.616,0.176 1.056,0.557333 0.440001,0.381333 0.674667,0.982667 0.249334,0.601333 0.249334,1.452 0,1.056 -0.410667,1.716 -0.396,0.645333 -1.085334,0.982666 0.176,0.293334 0.44,0.806667 0.278667,0.498667 0.557334,1.114667 0.293333,0.601333 0.557333,1.246666 0.278667,0.645334 0.469334,1.232001 h -1.32 q -0.161334,-0.440001 -0.410667,-0.997334 -0.234667,-0.557333 -0.498667,-1.1 -0.264,-0.557333 -0.528,-1.056 -0.264,-0.513333 -0.469333,-0.865333 -0.234667,0.02933 -0.484,0.044 -0.249334,0.01467 -0.498667,0.01467 h -0.366667 v 3.960001 h -1.290666 z m 1.290666,4.972 h 0.557334 q 1.012,0 1.554666,-0.454667 0.542667,-0.469333 0.542667,-1.598666 0,-0.572 -0.146667,-0.953334 -0.132,-0.396 -0.396,-0.616 -0.249333,-0.234666 -0.616,-0.337333 -0.352,-0.102667 -0.792,-0.102667 -0.381333,0 -0.704,0.044 z"
       style="font-style:normal;font-variant:normal;font-weight:normal;font-stretch:normal;font-size:14.66666698px;line-height:95.99999785%;font-family:'Ubuntu Condensed';-inkscape-font-specification:'Ubuntu Condensed, ';text-align:center;letter-spacing:-0.70999998px;word-spacing:-1.58000004px;text-anchor:middle"
       id="path3808" />
    <path
       d="M 22.431661,21.969808 V 11.805807 h 4.561334 v 1.129334 h -3.241334 v 3.153333 h 2.933334 v 1.1 h -2.933334 v 3.652 h 3.476 v 1.129334 z"
       style="font-style:normal;font-variant:normal;font-weight:normal;font-stretch:normal;font-size:14.66666698px;line-height:95.99999785%;font-family:'Ubuntu Condensed';-inkscape-font-specification:'Ubuntu Condensed, ';text-align:center;letter-spacing:-0.70999998px;word-spacing:-1.58000004px;text-anchor:middle"
       id="path3810" />
    <path
       d="m 28.396141,11.805807 h 1.32 v 10.164001 h -1.32 z"
       style="font-style:normal;font-variant:normal;font-weight:normal;font-stretch:normal;font-size:14.66666698px;line-height:95.99999785%;font-family:'Ubuntu Condensed';-inkscape-font-specification:'Ubuntu Condensed, ';text-align:center;letter-spacing:-0.70999998px;word-spacing:-1.58000004px;text-anchor:middle"
       id="path3812" />
    <path
       d="m 36.454058,13.008474 q 0.190667,0.88 0.410667,1.862667 0.22,0.982666 0.454667,1.950666 0.249333,0.968 0.498666,1.877334 0.249334,0.909333 0.469334,1.657333 0.176,-0.821333 0.337333,-1.818667 0.161333,-1.012 0.308,-2.112 0.161333,-1.1 0.293333,-2.273333 0.132,-1.173333 0.22,-2.346667 h 1.290667 q -0.337333,2.948 -0.762667,5.426667 -0.410666,2.478667 -0.968,4.737334 h -1.334666 q -0.22,-0.718667 -0.484,-1.598667 -0.249334,-0.88 -0.498667,-1.818667 -0.249333,-0.953333 -0.484,-1.921333 -0.234667,-0.968 -0.425333,-1.877334 -0.190667,0.909334 -0.425334,1.877334 -0.234666,0.968 -0.484,1.921333 -0.249333,0.938667 -0.513333,1.818667 -0.249333,0.88 -0.469333,1.598667 h -1.334667 q -0.557333,-2.258667 -0.982667,-4.737334 -0.410666,-2.478667 -0.748,-5.426667 h 1.334667 q 0.088,1.173334 0.22,2.346667 0.132,1.158667 0.278667,2.273333 0.161333,1.1 0.322666,2.112 0.161334,0.997334 0.337334,1.818667 0.22,-0.748 0.469333,-1.657333 0.249333,-0.909334 0.484,-1.877334 0.249333,-0.968 0.469333,-1.950666 0.22,-0.982667 0.410667,-1.862667 z"
       style="font-style:normal;font-variant:normal;font-weight:normal;font-stretch:normal;font-size:14.66666698px;line-height:95.99999785%;font-family:'Ubuntu Condensed';-inkscape-font-specification:'Ubuntu Condensed, ';text-align:center;letter-spacing:-0.70999998px;word-spacing:-1.58000004px;text-anchor:middle"
       id="path3814" />
    <path
       d="m 41.843328,11.805807 h 1.32 v 10.164001 h -1.32 z"
       style="font-style:normal;font-variant:normal;font-weight:normal;font-stretch:normal;font-size:14.66666698px;line-height:95.99999785%;font-family:'Ubuntu Condensed';-inkscape-font-specification:'Ubuntu Condensed, ';text-align:center;letter-spacing:-0.70999998px;word-spacing:-1.58000004px;text-anchor:middle"
       id="path3816" />
    <path
       d="m 49.446579,20.840474 v 1.129334 h -4.532 V 11.805807 h 1.32 v 9.034667 z"
       style="font-style:normal;font-variant:normal;font-weight:normal;font-stretch:normal;font-size:14.66666698px;line-height:95.99999785%;font-family:'Ubuntu Condensed';-inkscape-font-specification:'Ubuntu Condensed, ';text-align:center;letter-spacing:-0.70999998px;word-spacing:-1.58000004px;text-anchor:middle"
       id="path3818" />
    <path
       d="m 54.866787,20.840474 v 1.129334 h -4.532 V 11.805807 h 1.32 v 9.034667 z"
       style="font-style:normal;font-variant:normal;font-weight:normal;font-stretch:normal;font-size:14.66666698px;line-height:95.99999785%;font-family:'Ubuntu Condensed';-inkscape-font-specification:'Ubuntu Condensed, ';text-align:center;letter-spacing:-0.70999998px;word-spacing:-1.58000004px;text-anchor:middle"
       id="path3820" />
    <path
       d="m 55.754995,11.805807 h 1.32 v 10.164001 h -1.32 z"
       style="font-style:normal;font-variant:normal;font-weight:normal;font-stretch:normal;font-size:14.66666698px;line-height:95.99999785%;font-family:'Ubuntu Condensed';-inkscape-font-specification:'Ubuntu Condensed, ';text-align:center;letter-spacing:-0.70999998px;word-spacing:-1.58000004px;text-anchor:middle"
       id="path3822" />
    <path
       d="m 58.400912,16.880474 q 0,-1.437333 0.264001,-2.449333 0.264,-1.012 0.748,-1.642667 0.498666,-0.645333 1.188,-0.924 0.704,-0.293333 1.569333,-0.293333 0.66,0 1.202667,0.190666 0.542666,0.176 0.88,0.410667 l -0.410667,1.1 q -0.337333,-0.234667 -0.733333,-0.381333 -0.396,-0.161334 -0.909334,-0.161334 -1.276,0 -1.833333,1.041334 -0.557333,1.026666 -0.557333,3.109333 0,1.114667 0.161333,1.906667 0.176,0.792 0.484,1.290666 0.308,0.498667 0.748,0.733334 0.44,0.234666 0.982667,0.234666 0.454666,0 0.777333,-0.102666 v -3.974667 h 1.32 v 4.781333 q -0.396,0.190667 -0.982667,0.322667 -0.586666,0.132 -1.232,0.132 -0.792,0 -1.466666,-0.308 -0.674667,-0.322667 -1.173334,-0.968 -0.484,-0.66 -0.762666,-1.657333 -0.264001,-1.012 -0.264001,-2.390667 z"
       style="font-style:normal;font-variant:normal;font-weight:normal;font-stretch:normal;font-size:14.66666698px;line-height:95.99999785%;font-family:'Ubuntu Condensed';-inkscape-font-specification:'Ubuntu Condensed, ';text-align:center;letter-spacing:-0.70999998px;word-spacing:-1.58000004px;text-anchor:middle"
       id="path3824" />
    <path
       d="M 65.821973,21.969808 V 11.805807 h 4.561334 v 1.129334 h -3.241334 v 3.153333 h 2.933334 v 1.1 h -2.933334 v 3.652 h 3.476 v 1.129334 z"
       style="font-style:normal;font-variant:normal;font-weight:normal;font-stretch:normal;font-size:14.66666698px;line-height:95.99999785%;font-family:'Ubuntu Condensed';-inkscape-font-specification:'Ubuntu Condensed, ';text-align:center;letter-spacing:-0.70999998px;word-spacing:-1.58000004px;text-anchor:middle"
       id="path3826" />
    <path
       d="m 9.6637961,36.049807 v -10.164 H 14.22513 v 1.129334 h -3.241334 v 3.197333 h 2.874667 v 1.1 h -2.874667 v 4.737333 z"
       style="font-style:normal;font-variant:normal;font-weight:normal;font-stretch:normal;font-size:14.66666698px;line-height:95.99999785%;font-family:'Ubuntu Condensed';-inkscape-font-specification:'Ubuntu Condensed, ';text-align:center;letter-spacing:-0.70999998px;word-spacing:-1.58000004px;text-anchor:middle"
       id="path3828" />
    <path
       d="m 15.198588,36.049807 v -10.164 h 4.561333 v 1.129334 h -3.241333 v 3.153333 h 2.933333 v 1.1 h -2.933333 v 3.652 h 3.476 v 1.129333 z"
       style="font-style:normal;font-variant:normal;font-weight:normal;font-stretch:normal;font-size:14.66666698px;line-height:95.99999785%;font-family:'Ubuntu Condensed';-inkscape-font-specification:'Ubuntu Condensed, ';text-align:center;letter-spacing:-0.70999998px;word-spacing:-1.58000004px;text-anchor:middle"
       id="path3830" />
    <path
       d="m 23.920401,36.269807 q -1.422667,0 -2.141334,-0.806666 -0.704,-0.806667 -0.704,-2.552 v -7.025334 h 1.32 v 6.908 q 0,1.158667 0.337334,1.745334 0.337333,0.572 1.217333,0.572 0.909334,0 1.232,-0.586667 0.337334,-0.601333 0.337334,-1.730667 v -6.908 h 1.32 v 7.025334 q 0,1.716 -0.733334,2.537333 -0.733333,0.821333 -2.185333,0.821333 z"
       style="font-style:normal;font-variant:normal;font-weight:normal;font-stretch:normal;font-size:14.66666698px;line-height:95.99999785%;font-family:'Ubuntu Condensed';-inkscape-font-specification:'Ubuntu Condensed, ';text-align:center;letter-spacing:-0.70999998px;word-spacing:-1.58000004px;text-anchor:middle"
       id="path3832" />
    <path
       d="m 28.502547,36.049807 v -10.164 h 4.561333 v 1.129334 h -3.241333 v 3.153333 h 2.933333 v 1.1 h -2.933333 v 3.652 h 3.476 v 1.129333 z"
       style="font-style:normal;font-variant:normal;font-weight:normal;font-stretch:normal;font-size:14.66666698px;line-height:95.99999785%;font-family:'Ubuntu Condensed';-inkscape-font-specification:'Ubuntu Condensed, ';text-align:center;letter-spacing:-0.70999998px;word-spacing:-1.58000004px;text-anchor:middle"
       id="path3834" />
    <path
       d="m 34.467026,26.032474 q 1.026667,-0.249333 1.98,-0.249333 0.762667,0 1.378667,0.176 0.616,0.176 1.056,0.557333 0.44,0.381333 0.674667,0.982667 0.249333,0.601333 0.249333,1.452 0,1.056 -0.410667,1.716 -0.396,0.645333 -1.085333,0.982666 0.176,0.293334 0.44,0.806667 0.278667,0.498667 0.557333,1.114667 0.293334,0.601333 0.557334,1.246666 0.278666,0.645334 0.469333,1.232 h -1.32 q -0.161333,-0.44 -0.410667,-0.997333 -0.234666,-0.557333 -0.498666,-1.1 -0.264,-0.557333 -0.528,-1.056 -0.264,-0.513333 -0.469334,-0.865333 -0.234666,0.02933 -0.484,0.044 -0.249333,0.01467 -0.498666,0.01467 h -0.366667 v 3.96 h -1.290667 z m 1.290667,4.972 h 0.557333 q 1.012,0 1.554667,-0.454667 0.542667,-0.469333 0.542667,-1.598666 0,-0.572 -0.146667,-0.953334 -0.132,-0.396 -0.396,-0.616 -0.249333,-0.234666 -0.616,-0.337333 -0.352,-0.102667 -0.792,-0.102667 -0.381333,0 -0.704,0.044 z"
       style="font-style:normal;font-variant:normal;font-weight:normal;font-stretch:normal;font-size:14.66666698px;line-height:95.99999785%;font-family:'Ubuntu Condensed';-inkscape-font-specification:'Ubuntu Condensed, ';text-align:center;letter-spacing:-0.70999998px;word-spacing:-1.58000004px;text-anchor:middle"
       id="path3836" />
    <path
       d="m 46.277548,27.088474 q 0.190666,0.88 0.410666,1.862667 0.22,0.982666 0.454667,1.950666 0.249333,0.968 0.498667,1.877334 0.249333,0.909333 0.469333,1.657333 0.176,-0.821333 0.337333,-1.818667 0.161334,-1.012 0.308,-2.112 0.161334,-1.1 0.293334,-2.273333 0.132,-1.173333 0.22,-2.346667 h 1.290666 q -0.337333,2.948 -0.762666,5.426667 -0.410667,2.478667 -0.968,4.737333 h -1.334667 q -0.22,-0.718666 -0.484,-1.598666 -0.249333,-0.88 -0.498667,-1.818667 -0.249333,-0.953333 -0.484,-1.921333 -0.234666,-0.968 -0.425333,-1.877334 -0.190667,0.909334 -0.425333,1.877334 -0.234667,0.968 -0.484,1.921333 -0.249334,0.938667 -0.513334,1.818667 -0.249333,0.88 -0.469333,1.598666 h -1.334667 q -0.557333,-2.258666 -0.982667,-4.737333 -0.410666,-2.478667 -0.748,-5.426667 h 1.334667 q 0.088,1.173334 0.22,2.346667 0.132,1.158667 0.278667,2.273333 0.161333,1.1 0.322667,2.112 0.161333,0.997334 0.337333,1.818667 0.22,-0.748 0.469333,-1.657333 0.249334,-0.909334 0.484,-1.877334 0.249334,-0.968 0.469334,-1.950666 0.22,-0.982667 0.410666,-1.862667 z"
       style="font-style:normal;font-variant:normal;font-weight:normal;font-stretch:normal;font-size:14.66666698px;line-height:95.99999785%;font-family:'Ubuntu Condensed';-inkscape-font-specification:'Ubuntu Condensed, ';text-align:center;letter-spacing:-0.70999998px;word-spacing:-1.58000004px;text-anchor:middle"
       id="path3838" />
    <path
       d="m 51.666817,36.049807 v -10.164 h 4.561334 v 1.129334 h -3.241334 v 3.153333 h 2.933334 v 1.1 h -2.933334 v 3.652 h 3.476 v 1.129333 z"
       style="font-style:normal;font-variant:normal;font-weight:normal;font-stretch:normal;font-size:14.66666698px;line-height:95.99999785%;font-family:'Ubuntu Condensed';-inkscape-font-specification:'Ubuntu Condensed, ';text-align:center;letter-spacing:-0.70999998px;word-spacing:-1.58000004px;text-anchor:middle"
       id="path3840" />
    <path
       d="m 62.295299,25.885807 h 1.32 v 10.164 h -1.32 v -4.722666 h -3.344 v 4.722666 h -1.32 v -10.164 h 1.32 v 4.297334 h 3.344 z"
       style="font-style:normal;font-variant:normal;font-weight:normal;font-stretch:normal;font-size:14.66666698px;line-height:95.99999785%;font-family:'Ubuntu Condensed';-inkscape-font-specification:'Ubuntu Condensed, ';text-align:center;letter-spacing:-0.70999998px;word-spacing:-1.58000004px;text-anchor:middle"
       id="path3842" />
    <path
       d="m 65.371819,26.032474 q 1.026667,-0.249333 1.98,-0.249333 0.762667,0 1.378667,0.176 0.616,0.176 1.056,0.557333 0.44,0.381333 0.674667,0.982667 0.249333,0.601333 0.249333,1.452 0,1.056 -0.410667,1.716 -0.396,0.645333 -1.085333,0.982666 0.176,0.293334 0.44,0.806667 0.278667,0.498667 0.557333,1.114667 0.293334,0.601333 0.557334,1.246666 0.278666,0.645334 0.469333,1.232 h -1.32 q -0.161333,-0.44 -0.410667,-0.997333 -0.234666,-0.557333 -0.498666,-1.1 -0.264,-0.557333 -0.528,-1.056 -0.264,-0.513333 -0.469334,-0.865333 -0.234666,0.02933 -0.484,0.044 -0.249333,0.01467 -0.498666,0.01467 h -0.366667 v 3.96 h -1.290667 z m 1.290667,4.972 h 0.557333 q 1.012,0 1.554667,-0.454667 0.542667,-0.469333 0.542667,-1.598666 0,-0.572 -0.146667,-0.953334 -0.132,-0.396 -0.396,-0.616 -0.249333,-0.234666 -0.616,-0.337333 -0.352,-0.102667 -0.792,-0.102667 -0.381333,0 -0.704,0.044 z"
       style="font-style:normal;font-variant:normal;font-weight:normal;font-stretch:normal;font-size:14.66666698px;line-height:95.99999785%;font-family:'Ubuntu Condensed';-inkscape-font-specification:'Ubuntu Condensed, ';text-align:center;letter-spacing:-0.70999998px;word-spacing:-1.58000004px;text-anchor:middle"
       id="path3844" />
  </g>
  <path
     style="fill:none;fill-opacity:1;fill-rule:evenodd;stroke:#ffffff;stroke-width:3;stroke-linecap:butt;stroke-linejoin:miter;stroke-miterlimit:4;stroke-dasharray:none;stroke-opacity:1"
     d="m 18.037275,8.0808422 74.5904,0.2598968 c 0,0 -0.170188,8.714655 0.519794,64.194525 C 91.628327,83.052977 87.846113,87.723125 82.2318,93.067116 75.88773,99.105727 67.197353,103.25651 58.451237,103.72289 48.520164,104.25245 37.808589,100.9627 30.252428,94.496549 23.583141,88.789337 18.766185,79.734999 17.907327,71.23578 17.828158,10.107446 18.037275,8.0808422 18.037275,8.0808422 Z"
     id="path4384" />
  <path
     style="fill:none;stroke:none;stroke-width:1px;stroke-linecap:butt;stroke-linejoin:miter;stroke-opacity:1"
     d="m 21.675831,62.269338 -0.259897,9.09639 c 0,0 1.68933,10.655772 8.446649,17.802936 6.757318,7.147164 18.062832,11.695356 26.639428,11.695356 8.576597,0 17.932883,-5.197935 23.910511,-11.43546 5.977628,-6.237524 8.706545,-16.893295 8.706545,-16.893295 v -8.186752"
     id="path4122" />
  <g
     transform="translate(10.500268)"
     aria-label="ALTFRAUNHOFEN"
     style="font-style:normal;font-variant:normal;font-weight:normal;font-stretch:normal;font-size:14.66666698px;line-height:1.25;font-family:'Ubuntu Condensed';-inkscape-font-specification:'Ubuntu Condensed, ';letter-spacing:1.70000005px;word-spacing:0px;fill:#ffffff;fill-opacity:1;stroke:none"
     id="text4126">
    <path
       d="m 21.210175,66.943163 q -1.109605,0.320441 -2.248111,0.625383 -1.124265,0.320022 -2.364978,0.607371 -1.241132,0.30201 -2.628451,0.585171 -1.387739,0.297821 -2.995388,0.589359 l 0.0377,-1.319461 q 0.663082,-0.09844 1.311922,-0.211952 0.648421,-0.09886 1.297261,-0.21237 l 0.09131,-3.19603 q -0.640881,-0.165037 -1.2826,-0.300753 -0.641719,-0.135716 -1.298099,-0.271851 l 0.03644,-1.27548 q 1.5888,0.368193 2.95727,0.744763 1.36847,0.37657 2.590752,0.734291 1.221863,0.372381 2.326441,0.741412 1.11882,0.38411 2.208318,0.767382 z M 19.73531,66.182064 Q 18.528945,65.78078 17.307082,65.408399 16.085218,65.036017 14.803875,64.691282 l -0.07665,2.682905 q 1.298518,-0.256353 2.53965,-0.558363 1.241131,-0.30201 2.46844,-0.63376 z"
       style="letter-spacing:1.70000005px;fill:#ffffff;fill-opacity:1"
       id="path4936" />
    <path
       d="m 13.347807,76.677404 -1.094245,0.279325 -1.120929,-4.391189 9.848201,-2.513929 0.326484,1.278987 -8.753956,2.234604 z"
       style="letter-spacing:1.70000005px;fill:#ffffff;fill-opacity:1"
       id="path4938" />
    <path
       d="m 24.410782,79.323077 -1.025794,0.472377 -0.944755,-2.051588 -8.206353,3.779018 -0.552129,-1.19898 8.206353,-3.779018 -0.944755,-2.051588 1.025795,-0.472377 z"
       style="letter-spacing:1.70000005px;fill:#ffffff;fill-opacity:1"
       id="path4940" />
    <path
       d="m 16.88485,86.22575 7.895038,-6.401193 2.872686,3.543083 -0.877227,0.711244 -2.041362,-2.517754 -2.483576,2.013651 1.810439,2.23294 -0.854442,0.69277 -1.810438,-2.23294 -3.679794,2.983529 z"
       style="letter-spacing:1.70000005px;fill:#ffffff;fill-opacity:1"
       id="path4942" />
    <path
       d="m 28.083782,83.826577 q 0.983017,0.387155 1.762535,0.935968 0.623615,0.439051 1.025984,0.937579 0.402369,0.498529 0.542622,1.063635 0.140253,0.565105 -0.01404,1.191894 -0.142301,0.635232 -0.632011,1.330802 -0.607915,0.863466 -1.323655,1.166721 -0.695304,0.299706 -1.453152,0.178701 -0.02495,0.341172 -0.104602,0.912891 -0.05921,0.56817 -0.185971,1.232281 -0.106322,0.660562 -0.26196,1.340215 -0.143644,0.688096 -0.325472,1.277562 l -1.079333,-0.759894 q 0.12138,-0.452654 0.23835,-1.051908 0.128963,-0.590811 0.225498,-1.186516 0.104978,-0.607697 0.176183,-1.167424 0.07965,-0.57172 0.11439,-0.977748 -0.208768,-0.111107 -0.421085,-0.24265 -0.212318,-0.131543 -0.416192,-0.275079 l -0.299814,-0.211082 -2.279685,3.237999 -1.055348,-0.743008 z m -1.806923,4.808496 0.455718,0.320845 q 0.827489,0.582586 1.532956,0.523217 0.713911,-0.07136 1.364043,-0.994791 0.329288,-0.467711 0.428887,-0.863951 0.120036,-0.39979 0.03082,-0.731658 -0.06878,-0.335417 -0.309493,-0.630447 -0.22872,-0.286586 -0.588497,-0.539885 -0.311808,-0.219525 -0.600974,-0.369299 z"
       style="letter-spacing:1.70000005px;fill:#ffffff;fill-opacity:1"
       id="path4944" />
    <path
       d="m 37.076485,88.801891 q -0.09666,1.150896 -0.21812,2.323259 -0.102287,1.164441 -0.276654,2.426001 -0.160821,1.267184 -0.391423,2.664202 -0.217056,1.402641 -0.518464,3.008469 l -1.219118,-0.506115 q 0.144691,-0.654546 0.270213,-1.301171 0.139068,-0.641001 0.26459,-1.287626 l -2.952975,-1.225921 q -0.382891,0.539778 -0.738691,1.090804 -0.355799,0.551025 -0.717223,1.115596 l -1.17848,-0.489244 q 0.910967,-1.35277 1.751128,-2.496731 0.84016,-1.143961 1.61054,-2.158087 0.783926,-1.008503 1.522863,-1.90864 0.758107,-0.90806 1.504967,-1.789027 z m -1.237338,1.106116 q -0.805394,0.983711 -1.589319,1.992214 -0.783926,1.008503 -1.563254,2.082436 l 2.478873,1.029099 q 0.223952,-1.304497 0.384773,-2.57168 0.160821,-1.267184 0.288927,-2.532069 z"
       style="letter-spacing:1.70000005px;fill:#ffffff;fill-opacity:1"
       id="path4946" />
    <path
       d="m 41.284344,100.67923 q -1.405236,-0.22202 -1.989213,-1.130954 -0.569489,-0.906647 -0.297119,-2.630597 l 1.096347,-6.93926 1.303828,0.205994 -1.078037,6.823364 q -0.180817,1.144471 0.06083,1.776593 0.243937,0.617635 1.113155,0.754965 0.898192,0.141907 1.308459,-0.387218 0.427042,-0.541323 0.603282,-1.65682 l 1.078036,-6.823364 1.303828,0.205994 -1.096347,6.93926 q -0.267793,1.694976 -1.120316,2.391803 -0.852523,0.69683 -2.286733,0.47024 z"
       style="letter-spacing:1.70000005px;fill:#ffffff;fill-opacity:1"
       id="path4948" />
    <path
       d="m 53.185967,99.846189 q -0.526706,-0.771548 -1.181625,-1.650455 -0.643678,-0.896338 -1.344702,-1.780294 -0.689782,-0.901388 -1.402047,-1.767913 -0.71536,-0.88086 -1.385428,-1.621454 l 1.643714,7.612567 -1.204248,0.26002 -2.145186,-9.935042 1.075221,-0.232163 q 0.736701,0.771221 1.439678,1.594736 0.717314,0.82042 1.374188,1.638886 0.653778,0.804129 1.247115,1.606305 0.604578,0.784743 1.118902,1.498946 l -1.538467,-7.125131 1.204248,-0.260023 2.145186,9.935043 z"
       style="letter-spacing:1.70000005px;fill:#ffffff;fill-opacity:1"
       id="path4950" />
    <path
       d="m 57.165909,86.868221 1.149868,-0.648232 4.991387,8.85398 -1.149868,0.648232 -2.31923,-4.11397 -2.912998,1.642188 2.31923,4.11397 -1.149867,0.648232 -4.991387,-8.85398 1.149868,-0.648232 2.110355,3.743458 2.912998,-1.642188 z"
       style="letter-spacing:1.70000005px;fill:#ffffff;fill-opacity:1"
       id="path4952" />
    <path
       d="m 67.977702,84.212612 q 0.836689,0.843383 1.372584,1.695938 0.535977,0.831814 0.709018,1.651811 0.173122,0.799255 -0.04768,1.555457 -0.210391,0.745873 -0.866355,1.396632 -0.655965,0.650758 -1.413902,0.865529 -0.747525,0.204442 -1.555788,0.03529 -0.80818,-0.189897 -1.646109,-0.722155 -0.848259,-0.54267 -1.684948,-1.386053 -0.83669,-0.843383 -1.372585,-1.695938 -0.535895,-0.852555 -0.709017,-1.651811 -0.17304,-0.819997 0.03735,-1.565869 0.210473,-0.766614 0.866438,-1.417373 0.655964,-0.650759 1.413819,-0.844788 0.757937,-0.214771 1.566117,-0.02487 0.808263,0.169155 1.646109,0.722155 0.848259,0.54267 1.684949,1.386053 z m -0.999565,0.991632 q -0.650759,-0.655964 -1.27119,-1.114759 -0.620431,-0.458795 -1.190041,-0.658112 -0.57994,-0.20973 -1.098811,-0.12883 -0.508459,0.07057 -0.935357,0.494081 -0.426897,0.42351 -0.511929,0.94172 -0.07462,0.507881 0.130482,1.089473 0.194774,0.57118 0.638199,1.205577 0.453837,0.624066 1.104595,1.280031 0.650759,0.655964 1.27119,1.114759 0.630844,0.448465 1.200454,0.647783 0.569609,0.199318 1.078069,0.128747 0.508542,-0.09131 0.935439,-0.514823 0.426897,-0.42351 0.511847,-0.920978 0.08503,-0.518211 -0.109741,-1.089391 -0.194773,-0.571179 -0.64861,-1.195246 -0.453837,-0.624067 -1.104596,-1.280032 z"
       style="letter-spacing:1.70000005px;fill:#ffffff;fill-opacity:1"
       id="path4954" />
    <path
       d="m 73.573619,84.607974 -8.937434,-4.840369 2.172229,-4.010883 0.993048,0.537819 -1.543609,2.850177 2.811487,1.522656 1.368993,-2.527759 0.967255,0.523849 -1.368993,2.52776 4.165644,2.256044 z"
       style="letter-spacing:1.70000005px;fill:#ffffff;fill-opacity:1"
       id="path4956" />
    <path
       d="m 77.052479,77.460865 -9.650754,-3.189019 1.431147,-4.331002 1.072306,0.354335 -1.016989,3.077658 2.994102,0.989378 0.920351,-2.78521 1.044454,0.345131 -0.920351,2.785211 3.467587,1.145838 1.090616,-3.300475 1.072306,0.354336 z"
       style="letter-spacing:1.70000005px;fill:#ffffff;fill-opacity:1"
       id="path4958" />
    <path
       d="m 78.618797,64.34819 q -0.865333,0.352 -1.862667,0.806666 -1.012,0.44 -2.024,0.938667 -1.026666,0.484 -2.024,0.997334 -1.012,0.513333 -1.877333,1.012 l 7.788,-10e-7 v 1.232 l -10.164,10e-7 v -1.1 q 0.909333,-0.557334 1.862667,-1.070667 0.953333,-0.528 1.892,-0.997333 0.924,-0.469334 1.833333,-0.880001 0.894667,-0.425333 1.701333,-0.777333 h -7.289333 v -1.232 h 10.164 z"
       style="letter-spacing:1.70000005px;fill:#ffffff;fill-opacity:1"
       id="path4960" />
  </g>
</svg>
